<svg width="230" height="146" viewBox="0 0 230 146" fill="none" xmlns="http://www.w3.org/2000/svg">
<rect width="230" height="146" rx="8" fill="white"/>
<g clip-path="url(#clip0_82_1854)">
<path d="M86.3178 62.3137C88.4378 63.0829 89.8234 65.2132 90.3707 67.4062C90.5093 67.9562 90.6028 68.5236 90.5647 69.0909C90.5058 69.9925 90.1074 70.8453 89.5878 71.5833C88.2265 73.5047 85.8882 74.7335 83.543 74.5942C81.2013 74.4585 78.9601 72.8816 78.1737 70.6608C77.5225 68.8229 77.8897 66.6891 78.9947 65.0879C80.1032 63.4867 81.8941 62.4146 83.7994 62.0526C85.0222 61.8194 86.3766 61.889 87.3812 62.6235" fill="#FFCA17"/>
<path d="M86.1996 62.7361C88.8115 63.8325 90.7098 67.2334 89.9269 70.032C89.0436 73.1961 85.0668 74.6929 82.1778 73.8958C78.9701 73.0082 77.7057 69.5864 78.6756 66.6173C79.6975 63.4949 84.2389 61.2114 87.1626 63.0006C87.6406 63.293 88.0771 62.5411 87.5991 62.2487C84.2251 60.1846 79.753 62.5899 78.0902 65.7888C76.3893 69.0608 78.0244 73.3006 81.4746 74.5606C84.8382 75.7894 89.1371 74.223 90.5539 70.763C91.9395 67.3865 89.6255 63.2338 86.4282 61.8937C85.9121 61.6779 85.6904 62.5203 86.1996 62.7326V62.7361Z" fill="#3A3D42"/>
<path d="M74.4188 68.6718C75.6174 69.4689 76.4626 70.7882 76.6878 72.2154C76.7744 72.7688 76.7744 73.3466 76.5908 73.8792C76.4418 74.3143 76.1751 74.7042 75.8806 75.0558C74.7964 76.3541 73.1475 77.2766 71.4674 77.1199C69.8636 76.9702 68.419 75.8076 67.844 74.2969C67.269 72.7862 67.5461 71.0005 68.4779 69.6813C69.2331 68.6126 70.4247 67.8364 71.7238 67.6972C73.0228 67.5579 74.398 68.1044 75.1636 69.1661" fill="#FFCA17"/>
<path d="M74.2 69.0479C75.9598 70.3463 77.0786 72.8038 75.5752 74.7461C74.2069 76.5144 71.8652 77.2141 69.8838 76.1176C64.7951 73.3016 70.878 64.7281 74.8547 69.4691C75.215 69.8973 75.8247 69.2811 75.4679 68.853C73.5349 66.5486 70.4311 66.9385 68.4739 68.9818C66.4024 71.1434 66.8181 74.6417 68.9623 76.5249C71.2486 78.5298 74.3801 77.3533 76.1849 75.3622C78.2356 73.0997 76.7634 69.8694 74.633 68.296C74.1827 67.9619 73.7497 68.7172 74.1965 69.0479H74.2Z" fill="#3A3D42"/>
<path d="M87.5476 68.8474C86.5777 70.0483 85.5142 71.1518 84.3503 72.1612C83.9277 72.5267 84.5408 73.1428 84.9634 72.7773C86.1273 71.7679 87.1943 70.661 88.1608 69.4635C88.5106 69.0319 87.901 68.4123 87.5476 68.8474Z" fill="#3A3D42"/>
<path d="M84.4299 67.1352C84.2532 71.4758 84.3363 75.8234 84.1597 80.1676C84.1354 80.728 85.0014 80.728 85.0257 80.1676C85.2024 75.8269 85.1192 71.4793 85.2959 67.1352C85.3201 66.5747 84.4541 66.5747 84.4299 67.1352Z" fill="#3A3D42"/>
<path d="M84.7375 72.6058C83.965 71.5267 83.1163 70.5103 82.1845 69.5635C81.7896 69.1632 81.1799 69.7793 81.5713 70.1796C82.4512 71.0707 83.2583 72.0245 83.9893 73.0444C84.3114 73.4969 85.0631 73.0618 84.7375 72.6058Z" fill="#3A3D42"/>
<path d="M74.0856 73.0179C73.4378 73.8115 72.7346 74.5564 71.9794 75.2491C71.5672 75.6285 72.1803 76.2412 72.5926 75.8652C73.3477 75.1725 74.0509 74.4276 74.6987 73.634C75.0486 73.2023 74.4424 72.5862 74.0856 73.0179Z" fill="#3A3D42"/>
<path d="M72.0802 71.6417C71.8585 74.6874 71.8828 77.7437 71.6645 80.7894C71.623 81.3499 72.489 81.3464 72.5306 80.7894C72.7523 77.7437 72.728 74.6874 72.9462 71.6417C72.9878 71.0812 72.1218 71.0847 72.0802 71.6417Z" fill="#3A3D42"/>
<path d="M72.2883 75.0131C71.6959 74.3135 71.062 73.6556 70.3865 73.0395C69.9743 72.6635 69.3612 73.2762 69.7734 73.6556C70.4489 74.2752 71.0828 74.9331 71.6752 75.6292C72.0389 76.0574 72.6486 75.4378 72.2883 75.0131Z" fill="#3A3D42"/>
<path d="M143.426 64.6066C141.306 65.3759 139.92 67.5062 139.37 69.6992C139.231 70.2491 139.137 70.8165 139.176 71.3839C139.234 72.2855 139.633 73.1383 140.152 73.8762C141.514 75.7977 143.852 77.0229 146.197 76.8872C148.539 76.7514 150.78 75.1746 151.567 72.9538C152.218 71.1159 151.851 68.9821 150.746 67.3809C149.641 65.7797 147.846 64.7076 145.941 64.3456C144.718 64.1123 143.364 64.182 142.359 64.9164" fill="#FFCA17"/>
<path d="M143.309 64.1867C140.108 65.5268 137.797 69.6795 139.183 73.056C140.603 76.516 144.902 78.0824 148.262 76.8536C151.709 75.5935 153.344 71.3538 151.647 68.0818C149.984 64.8828 145.512 62.4776 142.138 64.5417C141.663 64.8341 142.096 65.586 142.574 65.2936C145.38 63.5775 149.073 65.5442 150.652 68.0504C152.637 71.1972 150.822 74.9983 147.559 76.1888C144.76 77.2121 141.746 75.5309 140.229 73.2022C138.407 70.4035 140.787 66.1812 143.537 65.0256C144.046 64.8132 143.821 63.9708 143.309 64.1867Z" fill="#3A3D42"/>
<path d="M155.326 70.9605C154.127 71.7576 153.282 73.0768 153.053 74.504C152.967 75.0575 152.967 75.6353 153.15 76.1679C153.299 76.603 153.566 76.9928 153.86 77.3444C154.945 78.6428 156.594 79.5652 158.274 79.4086C159.877 79.2589 161.322 78.0963 161.897 76.5856C162.472 75.0749 162.195 73.2857 161.263 71.9664C160.508 70.8978 159.316 70.1216 158.017 69.9823C156.718 69.8431 155.343 70.3896 154.577 71.4513" fill="#FFCA17"/>
<path d="M155.103 70.5857C153.163 72.0163 151.546 75.0586 153.271 77.2864C155.1 79.6499 158.103 80.6977 160.687 78.8806C166.251 74.9647 158.803 65.7403 154.272 71.1426C153.915 71.5673 154.525 72.1869 154.885 71.7588C158.474 67.4773 164.085 74.0318 160.528 77.8781C158.785 79.7613 156.129 78.9363 154.511 77.4117C152.529 75.546 153.655 72.7299 155.547 71.3376C155.993 71.0104 155.56 70.255 155.11 70.5857H155.103Z" fill="#3A3D42"/>
<path d="M141.58 71.7526C142.55 72.9535 143.613 74.0569 144.777 75.0664C145.196 75.4319 145.813 74.8193 145.39 74.4503C144.226 73.4408 143.16 72.3339 142.193 71.1365C141.84 70.7014 141.234 71.321 141.58 71.7526Z" fill="#3A3D42"/>
<path d="M144.445 69.4281C144.622 73.7688 144.538 78.1164 144.715 82.4606C144.739 83.021 145.605 83.021 145.581 82.4606C145.404 78.1199 145.488 73.7723 145.311 69.4281C145.287 68.8677 144.421 68.8677 144.445 69.4281Z" fill="#3A3D42"/>
<path d="M145.75 75.332C146.481 74.3121 147.288 73.3584 148.168 72.4673C148.563 72.067 147.95 71.4543 147.555 71.8511C146.623 72.7979 145.774 73.8109 145.002 74.8934C144.676 75.3494 145.428 75.7845 145.75 75.332Z" fill="#3A3D42"/>
<path d="M155.041 75.9206C155.689 76.7142 156.392 77.4591 157.147 78.1518C157.56 78.5312 158.173 77.9151 157.761 77.5357C157.005 76.843 156.302 76.0981 155.654 75.3045C155.301 74.8693 154.691 75.4889 155.041 75.9206Z" fill="#3A3D42"/>
<path d="M156.794 73.9307C157.016 76.9765 156.992 80.0327 157.21 83.0785C157.252 83.6354 158.118 83.6389 158.076 83.0785C157.854 80.0327 157.879 76.9765 157.66 73.9307C157.619 73.3738 156.753 73.3703 156.794 73.9307Z" fill="#3A3D42"/>
<path d="M158.065 77.9183C158.657 77.2186 159.291 76.5608 159.967 75.9446C160.379 75.5652 159.766 74.9526 159.354 75.3285C158.678 75.9481 158.044 76.606 157.452 77.3022C157.091 77.7269 157.701 78.3465 158.065 77.9183Z" fill="#3A3D42"/>
<path d="M83.0477 71.0728C80.8931 70.9683 78.7315 70.9405 76.5734 70.9858C76.2131 70.9927 75.8252 71.0101 75.5376 71.1668C75.2189 71.3408 75.1046 71.6367 75.0042 71.9117C74.6508 72.9072 74.301 73.9027 73.9476 74.8983C71.3773 74.947 68.6407 75.41 68.5783 74.5537C68.5783 74.5537 68.6476 73.398 67.9479 73.1543C67.5945 73.0325 63.9261 73.1543 62.4954 73.3075C62.3534 74.9296 62.2945 75.9565 62.3638 77.5785L57.6076 77.6342C57.2404 79.138 57.14 80.6765 57.3063 82.1977C62.1282 81.7521 64.8926 81.8391 69.7526 81.9296L83.0893 80.8715L83.0512 71.0728H83.0477ZM66.8359 77.5577C66.1812 77.7178 64.6085 77.6551 64.5565 77.5681C64.5358 77.5298 64.4873 76.3846 64.4942 75.8555C64.4977 75.5979 64.7159 75.3926 64.9722 75.3995L66.5241 75.4448C66.8948 75.5005 66.8324 75.6606 66.8463 75.8172C66.9468 76.8128 66.8636 77.0982 66.8324 77.5577H66.8359ZM80.1622 76.4333C79.3031 76.6805 77.242 76.5865 77.1761 76.4507C77.1484 76.3916 77.0826 74.5989 77.0965 73.7705C77.1034 73.3667 77.3875 73.0464 77.7235 73.0604L79.7569 73.13C80.2453 73.217 80.1622 73.4641 80.1795 73.7148C80.3111 75.2707 80.2037 75.7198 80.1622 76.4368V76.4333Z" fill="white"/>
<path d="M83.0479 70.6389C81.5376 70.5693 80.0272 70.5345 78.5169 70.531C77.7098 70.531 75.9015 70.2143 75.2295 70.8582C74.4847 71.5718 74.2907 72.63 73.9513 73.5872C73.4559 74.99 71.3878 74.6141 70.0923 74.6315C68.8903 74.6489 69.1327 74.4227 68.8383 73.5072C68.7032 73.0825 68.284 72.7344 67.8441 72.6961C66.0878 72.5465 64.2449 72.6961 62.4956 72.8667C62.2462 72.8911 62.0834 73.0477 62.0626 73.3018C61.9413 74.729 61.8824 76.1422 61.9309 77.5729C62.0764 77.4267 62.2185 77.2839 62.364 77.1377C60.7774 77.1551 59.1943 77.176 57.6078 77.1934C57.4242 77.1934 57.2302 77.3222 57.1886 77.5137C56.8492 79.0766 56.7383 80.5977 56.8734 82.192C56.8907 82.4113 57.057 82.648 57.3064 82.6271C62.4783 82.1676 67.6432 82.5262 72.8081 82.1189C76.2341 81.8474 79.66 81.5759 83.086 81.3044C83.3216 81.287 83.519 81.1199 83.519 80.8693C83.5052 77.6042 83.4948 74.3356 83.4809 71.0706C83.4809 70.5101 82.6114 70.5101 82.6149 71.0706C82.6287 74.3356 82.6391 77.6042 82.653 80.8693C82.7985 80.7231 82.9405 80.5803 83.086 80.4341C79.66 80.7057 76.2341 80.9772 72.8081 81.2487C67.6432 81.6594 62.4783 81.2974 57.3064 81.7569C57.4519 81.9031 57.5939 82.0458 57.7394 82.192C57.684 81.5341 57.6632 80.8901 57.6736 80.2288C57.6805 79.818 58.2209 78.0532 57.639 78.0602C58.1447 78.0532 58.647 78.0497 59.1528 78.0428C60.2232 78.0289 61.2936 78.0184 62.364 78.0045C62.5926 78.0045 62.8039 77.8096 62.797 77.5694C62.7485 76.1352 62.8074 74.7255 62.9286 73.2983C62.7831 73.4445 62.6411 73.5872 62.4956 73.7334C63.6768 73.6186 64.8615 73.5733 66.0463 73.542C66.5104 73.5281 66.9746 73.5281 67.4353 73.535C68.187 73.549 68 74.1999 68.1593 74.6594C68.7378 76.3302 72.7284 75.359 73.9478 75.3242C74.1522 75.3172 74.2977 75.1919 74.3669 75.004C74.5783 74.4053 74.7896 73.81 75.0009 73.2113C75.5343 71.7076 76.487 71.4047 77.8691 71.3908C79.5977 71.3734 81.3228 71.4187 83.0479 71.4987C83.6056 71.5231 83.6056 70.6529 83.0479 70.6285V70.6389Z" fill="#3A3D42"/>
<path d="M66.7215 77.1409C66.1222 77.2732 65.4051 77.2766 64.7955 77.1896C64.5045 77.1478 64.9998 77.757 64.9756 77.4159C64.9652 77.2627 64.9583 77.1096 64.9513 76.9529C64.9479 76.8485 64.8786 75.8356 64.9825 75.8356C65.4606 75.8495 65.9421 75.8634 66.4201 75.8773C66.6176 75.8843 66.4097 75.6928 66.4201 75.8181C66.434 76.0688 66.4617 76.3194 66.4686 76.57C66.4755 76.9007 66.434 77.2279 66.4063 77.5586C66.3647 78.119 67.2307 78.1155 67.2723 77.5586C67.3104 77.0887 67.345 76.6327 67.3173 76.1593C67.2827 75.6093 67.2307 75.028 66.531 75.0106C66.1949 75.0001 65.8624 74.9897 65.5264 74.9827C65.1419 74.9723 64.7574 74.9131 64.4283 75.1533C63.9676 75.4875 64.0645 76.1071 64.0784 76.6048C64.0853 76.8937 63.9918 77.663 64.2585 77.8754C64.553 78.1121 65.0102 78.0772 65.367 78.0877C65.8936 78.1016 66.4409 78.0877 66.957 77.9763C67.5009 77.8579 67.2723 77.0191 66.7284 77.1374L66.7215 77.1409Z" fill="#3A3D42"/>
<path d="M80.0437 76.0141C79.5518 76.1429 79.0357 76.1499 78.5299 76.1534C78.2805 76.1534 78.0346 76.1429 77.7886 76.129C77.709 76.122 77.6293 76.1151 77.5496 76.1081C77.2482 76.0768 77.56 76.0037 77.6016 76.3866C77.56 76.0141 77.3383 73.487 77.7678 73.5009C78.426 73.5253 79.0877 73.5462 79.7458 73.5671C79.8982 73.5706 79.7562 76.0141 79.732 76.4353C79.6973 76.9958 80.5633 76.9923 80.598 76.4353C80.6361 75.8227 80.6881 75.217 80.6707 74.6009C80.6534 74.037 80.7816 72.951 80.0472 72.756C79.6073 72.6377 79.1258 72.6725 78.672 72.6551C78.1662 72.6377 77.6639 72.5541 77.1928 72.7734C76.5173 73.0902 76.6593 74.1101 76.6697 74.7018C76.6801 75.304 76.6351 75.9689 76.7598 76.5641C76.8603 77.048 77.7193 76.9957 78.0658 77.0097C78.7932 77.0445 79.5657 77.034 80.2758 76.8496C80.8162 76.7103 80.5876 75.8714 80.0472 76.0107L80.0437 76.0141Z" fill="#3A3D42"/>
<path d="M172.4 77.6342L167.643 77.5785C167.716 75.9565 167.654 74.9261 167.512 73.3075C166.081 73.1543 162.413 73.0325 162.059 73.1543C161.363 73.398 161.429 74.5537 161.429 74.5537C161.367 75.41 158.63 74.947 156.06 74.8983C155.706 73.9027 155.356 72.9072 155.003 71.9117C154.906 71.6367 154.788 71.3373 154.47 71.1668C154.182 71.0101 153.794 70.9962 153.434 70.9858C151.276 70.9405 149.114 70.9683 146.956 71.0728L146.918 80.8715L160.255 81.9296C165.115 81.8391 167.879 81.7521 172.701 82.1977C172.867 80.6731 172.767 79.138 172.4 77.6342ZM152.925 76.1061C152.19 76.3185 150.427 76.2384 150.372 76.1201C150.347 76.0678 150.292 74.5363 150.302 73.8262C150.306 73.4815 150.552 73.2066 150.839 73.217L152.578 73.2762C152.997 73.3493 152.925 73.5616 152.942 73.7739C153.056 75.1036 152.963 75.4865 152.928 76.1026L152.925 76.1061ZM165.527 77.9406C164.793 78.1529 163.029 78.0728 162.974 77.9545C162.95 77.9023 162.894 76.3707 162.905 75.6606C162.908 75.316 163.154 75.041 163.442 75.0514L165.181 75.1106C165.6 75.1837 165.527 75.396 165.544 75.6084C165.659 76.9381 165.565 77.321 165.53 77.9371L165.527 77.9406Z" fill="white"/>
<path d="M172.4 77.2014C170.813 77.184 169.23 77.1632 167.643 77.1458C167.789 77.2919 167.931 77.4347 168.076 77.5809C168.128 76.1467 168.066 74.737 167.945 73.3098C167.924 73.0557 167.761 72.8991 167.512 72.8747C165.762 72.7076 163.916 72.551 162.163 72.7041C161.706 72.7424 161.446 73.0522 161.211 73.4108C160.615 74.3262 161.412 74.5943 159.912 74.636C159.305 74.6534 156.489 74.824 156.264 74.1905C155.873 73.0801 155.647 71.6982 154.774 70.8628C154.21 70.3197 152.807 70.5425 152.135 70.5356C150.406 70.5181 148.681 70.5634 146.953 70.6435C146.717 70.6539 146.52 70.8349 146.52 71.0786C146.506 74.3436 146.495 77.6122 146.481 80.8773C146.481 81.1279 146.679 81.295 146.914 81.3124C150.34 81.5839 153.766 81.8554 157.192 82.1269C162.357 82.5376 167.522 82.1756 172.694 82.6351C172.943 82.656 173.11 82.4193 173.127 82.2C173.262 80.6023 173.151 79.0811 172.812 77.5217C172.694 76.9717 171.859 77.2049 171.977 77.7514C172.303 79.2482 172.389 80.6789 172.261 82.2C172.407 82.0538 172.549 81.9111 172.694 81.7649C167.522 81.3054 162.357 81.6639 157.192 81.2567C153.766 80.9852 150.34 80.7137 146.914 80.4422C147.06 80.5883 147.202 80.7311 147.347 80.8773C147.361 77.6122 147.372 74.3436 147.386 71.0786C147.24 71.2248 147.098 71.3675 146.953 71.5137C148.463 71.4441 149.973 71.4093 151.484 71.4058C152.654 71.4023 154.244 71.0855 154.792 72.631C155.072 73.4282 155.353 74.2253 155.637 75.0189C155.703 75.2069 155.852 75.3322 156.056 75.3392C157.275 75.3775 161.266 76.3451 161.845 74.6743C161.959 74.3436 161.706 73.6127 162.333 73.5604C162.87 73.5152 163.421 73.5465 163.958 73.557C165.142 73.5778 166.331 73.6335 167.508 73.7484C167.363 73.6022 167.221 73.4595 167.075 73.3133C167.197 74.7405 167.259 76.1537 167.207 77.5843C167.2 77.8245 167.411 78.016 167.64 78.0195C169.227 78.0369 170.81 78.0577 172.396 78.0752C172.954 78.0821 172.954 77.2119 172.396 77.2049L172.4 77.2014Z" fill="#3A3D42"/>
<path d="M152.807 75.6885C152.391 75.7964 151.955 75.8033 151.529 75.8033C151.317 75.8033 151.106 75.7964 150.895 75.7824C150.825 75.779 150.76 75.772 150.69 75.765C150.424 75.7372 150.753 75.6571 150.798 76.0644C150.767 75.772 150.614 73.6487 150.877 73.6591C151.442 73.6765 152.007 73.6974 152.568 73.7183C152.516 73.6139 152.492 73.6069 152.502 73.6904C152.509 73.8575 152.526 74.0246 152.537 74.1917C152.554 74.4527 152.561 74.7138 152.561 74.9749C152.561 75.3543 152.516 75.7337 152.492 76.1097C152.457 76.6701 153.323 76.6666 153.358 76.1097C153.392 75.584 153.434 75.0689 153.42 74.5433C153.406 74.0246 153.507 73.0813 152.841 72.9038C152.46 72.8028 152.041 72.8307 151.65 72.8167C151.203 72.8028 150.77 72.7332 150.354 72.9246C149.748 73.2066 149.866 74.0977 149.876 74.6303C149.887 75.1524 149.849 75.7268 149.956 76.2419C150.053 76.6979 150.801 76.6527 151.134 76.6701C151.761 76.7014 152.429 76.6875 153.042 76.5308C153.583 76.3916 153.354 75.5527 152.814 75.6919L152.807 75.6885Z" fill="#3A3D42"/>
<path d="M165.412 77.5217C164.997 77.6296 164.56 77.6365 164.134 77.6365C163.923 77.6365 163.711 77.6296 163.5 77.6157C163.431 77.6122 163.365 77.6052 163.296 77.5982C163.029 77.5704 163.358 77.4903 163.403 77.8976C163.372 77.6052 163.22 75.4819 163.483 75.4923C164.047 75.5132 164.612 75.5306 165.173 75.5515C165.118 75.4471 165.097 75.4401 165.107 75.5236C165.114 75.6907 165.132 75.8578 165.142 76.0249C165.159 76.286 165.166 76.547 165.166 76.8081C165.166 77.1875 165.121 77.5669 165.097 77.9429C165.062 78.5033 165.928 78.4998 165.963 77.9429C165.998 77.4172 166.039 76.9021 166.025 76.3765C166.012 75.8578 166.112 74.9145 165.447 74.737C165.066 74.636 164.647 74.6639 164.255 74.6499C163.808 74.636 163.375 74.5629 162.96 74.7578C162.354 75.0398 162.471 75.9309 162.482 76.4635C162.492 76.9856 162.454 77.56 162.561 78.0751C162.655 78.5311 163.407 78.4859 163.739 78.5033C164.37 78.5346 165.035 78.5207 165.648 78.364C166.188 78.2248 165.96 77.3859 165.419 77.5251L165.412 77.5217Z" fill="#3A3D42"/>
<path d="M76.2201 70.3825C75.6554 70.3442 74.4222 70.2015 74.107 70.8559C73.8091 71.472 74.8102 71.6356 75.3471 71.6844C76.2062 71.7575 82.6355 71.7157 83.1759 71.6008C84.3884 71.1727 84.1632 70.6331 83.6748 70.3964C83.3699 70.2502 83.072 70.3268 82.6321 70.292C79.937 70.0309 77.4221 70.4626 76.2201 70.379V70.3825Z" fill="white"/>
<path d="M76.2196 69.9498C75.3536 69.8872 74.3906 69.8071 73.7982 70.552C73.3964 71.0568 73.7428 71.7216 74.2971 71.9061C76.2785 72.564 78.8177 72.1672 80.8649 72.1324C81.9076 72.115 84.7101 72.3795 84.4468 70.6077C84.3082 69.6644 82.5138 69.8524 81.9596 69.8106C80.0405 69.6609 78.1318 70.016 76.2162 69.9498C75.6584 69.9324 75.6584 70.8027 76.2162 70.8201C78.1318 70.8827 80.037 70.6008 81.9596 70.6808C82.3164 70.7191 82.6697 70.74 83.0265 70.74C83.5219 70.7505 82.7148 71.2064 82.6143 71.2134C82.0323 71.2447 81.4469 71.2517 80.8615 71.2621C79.5243 71.2865 78.1907 71.2935 76.8535 71.2865C76.3894 71.2865 75.9217 71.2795 75.4575 71.2587C74.0373 71.196 75.6758 70.7783 76.2162 70.8201C76.7739 70.8618 76.7704 69.9916 76.2162 69.9498H76.2196Z" fill="#3A3D42"/>
<path d="M148.81 70.3825C148.245 70.3442 147.008 70.2015 146.697 70.8559C146.402 71.472 147.403 71.6356 147.937 71.6844C148.796 71.7575 155.225 71.7157 155.766 71.6008C156.978 71.1727 156.753 70.6331 156.264 70.3964C155.96 70.2502 155.662 70.3268 155.222 70.292C152.527 70.0309 150.012 70.4626 148.81 70.379V70.3825Z" fill="white"/>
<path d="M148.809 69.9498C147.943 69.8872 146.98 69.8071 146.388 70.552C145.986 71.0568 146.333 71.7216 146.887 71.9061C148.868 72.564 151.408 72.1672 153.455 72.1324C154.497 72.115 157.3 72.3795 157.037 70.6077C156.898 69.6644 155.104 69.8524 154.549 69.8106C152.63 69.6609 150.722 70.016 148.809 69.9498C148.252 69.9324 148.252 70.8027 148.809 70.8201C150.725 70.8827 152.63 70.6008 154.549 70.6808C154.906 70.7191 155.26 70.74 155.616 70.74C156.112 70.7505 155.305 71.2064 155.204 71.2134C154.622 71.2447 154.037 71.2517 153.451 71.2621C152.114 71.2865 150.781 71.2935 149.443 71.2865C148.979 71.2865 148.512 71.2795 148.047 71.2587C146.627 71.196 148.266 70.7783 148.806 70.8201C149.364 70.8618 149.36 69.9916 148.806 69.9498H148.809Z" fill="#3A3D42"/>
<path d="M166.535 82.4926C167.768 82.4926 168.984 82.4926 170.206 82.4264C170.781 82.3951 172.049 82.2802 172.209 82.8093C172.361 83.3071 172.77 97.9338 172.223 97.9721C171.346 98.0312 142.747 98.08 142.234 97.9895C142.234 97.9895 141.718 82.7153 142.262 82.5239C142.598 82.4055 142.882 82.4682 143.329 82.4404C146.086 82.2315 163.774 82.4926 166.531 82.4926H166.535Z" fill="white"/>
<path d="M166.535 82.9245C167.065 82.9245 171.766 82.5939 171.811 83.0568C171.88 83.8261 171.894 84.6058 171.922 85.3786C172.019 88.0136 172.067 90.6486 172.071 93.2836C172.071 94.3871 172.061 95.494 172.009 96.5974C171.991 96.9281 171.974 97.2623 171.922 97.5895C171.86 97.9689 172.404 97.5303 172.057 97.5373C170.717 97.5721 169.376 97.5617 168.035 97.5686C162.763 97.593 157.494 97.5999 152.222 97.5999C148.969 97.5999 145.477 97.948 142.238 97.5477C142.384 97.6939 142.526 97.8366 142.671 97.9828C142.578 95.1981 142.512 92.4099 142.471 89.6252C142.446 87.8778 142.429 86.1304 142.481 84.3865C142.495 83.8713 142.498 83.3353 142.595 82.8271C142.585 82.8758 143.96 82.8375 144.234 82.8271C151.661 82.5973 159.105 82.9141 166.532 82.9211C167.09 82.9211 167.09 82.0508 166.532 82.0508C158.859 82.0404 151.11 81.5461 143.447 81.9882C142.141 82.0648 141.774 82.0578 141.663 83.3562C141.521 85.0862 141.577 86.8475 141.591 88.581C141.618 91.7138 141.698 94.8466 141.802 97.9759C141.809 98.2369 141.996 98.3797 142.235 98.411C145.692 98.8391 149.419 98.4632 152.894 98.4632C158.263 98.4632 163.632 98.4562 169.002 98.4284C170.006 98.4214 171.354 98.6512 172.338 98.3797C173.259 98.1256 172.916 95.1529 172.927 94.5263C172.961 91.759 172.899 88.9882 172.812 86.2244C172.788 85.4168 173.173 82.5938 172.158 82.1657C171.527 81.8977 170.876 81.9429 170.204 81.9812C168.981 82.0508 167.755 82.0474 166.532 82.0474C165.974 82.0474 165.974 82.9176 166.532 82.9176L166.535 82.9245Z" fill="#3A3D42"/>
<path d="M171.995 84.9417C172.067 85.5822 172.203 86.4385 171.96 87.0581C172.061 86.9571 172.161 86.8562 172.261 86.7552C171.569 86.9397 170.671 86.8144 169.961 86.8005C169.32 86.7866 167.796 87.0268 167.782 86.2018C167.775 85.7527 167.64 85.3385 168.215 85.3281C168.61 85.3176 169.009 85.3107 169.404 85.3002C170.328 85.2793 171.25 85.2585 172.175 85.2376C172.733 85.2237 172.733 84.3534 172.175 84.3674C171.25 84.3882 170.328 84.4091 169.404 84.43C168.95 84.4405 167.627 84.2142 167.287 84.6389C166.774 85.2759 166.667 86.7378 167.294 87.3261C167.644 87.6533 168.396 87.5907 168.825 87.622C169.837 87.6881 170.848 87.6916 171.86 87.6638C172.216 87.6533 172.642 87.6812 172.795 87.2913C173.069 86.5951 172.944 85.6657 172.861 84.9417C172.798 84.3917 171.932 84.3848 171.995 84.9417Z" fill="#3A3D42"/>
<path d="M169.42 87.219C169.493 87.8595 169.628 88.7158 169.385 89.3354C169.486 89.2345 169.586 89.1335 169.687 89.0326C168.994 89.2171 168.097 89.0918 167.387 89.0778C166.746 89.0639 165.225 89.3041 165.208 88.4791C165.201 88.0301 165.066 87.6159 165.637 87.6054C166.032 87.595 166.431 87.588 166.825 87.5776C167.75 87.5567 168.672 87.5358 169.597 87.5149C170.154 87.501 170.154 86.6308 169.597 86.6447C168.672 86.6656 167.75 86.6865 166.825 86.7074C166.372 86.7178 165.048 86.4915 164.709 86.9162C164.196 87.5532 164.089 89.0152 164.716 89.6035C165.066 89.9307 165.817 89.868 166.247 89.8993C167.258 89.9655 168.27 89.9689 169.281 89.9411C169.638 89.9307 170.064 89.9585 170.217 89.5686C170.49 88.8759 170.366 87.9431 170.283 87.219C170.22 86.6691 169.354 86.6621 169.417 87.219H169.42Z" fill="#3A3D42"/>
<path d="M155.588 82.4964C155.661 83.1369 155.796 83.9932 155.554 84.6128L155.855 84.3099C155.166 84.4979 154.265 84.3691 153.555 84.3552C152.914 84.3413 151.393 84.5814 151.376 83.7565C151.369 83.3074 151.238 82.8932 151.809 82.8828C152.204 82.8723 152.602 82.8654 152.997 82.8549C153.922 82.834 154.844 82.8131 155.769 82.7923C156.326 82.7783 156.326 81.9081 155.769 81.922C154.844 81.9429 153.922 81.9638 152.997 81.9847C152.544 81.9951 151.22 81.7689 150.881 82.1935C150.368 82.8306 150.261 84.2925 150.888 84.8843C151.238 85.2115 151.989 85.1488 152.419 85.1767C153.427 85.2428 154.442 85.2463 155.453 85.2184C155.81 85.208 156.236 85.2358 156.389 84.846C156.662 84.1533 156.538 83.2204 156.454 82.4999C156.392 81.9499 155.523 81.9429 155.588 82.4999V82.4964Z" fill="#3A3D42"/>
<path d="M158.162 84.9378C158.235 85.5783 158.37 86.4346 158.128 87.0542L158.429 86.7513C157.736 86.9358 156.839 86.8105 156.129 86.7966C155.488 86.7827 153.967 87.0228 153.95 86.1979C153.943 85.7488 153.808 85.3346 154.379 85.3242C154.774 85.3137 155.173 85.3068 155.568 85.2963C156.493 85.2754 157.414 85.2546 158.339 85.2337C158.897 85.2197 158.897 84.3495 158.339 84.3634C157.414 84.3843 156.493 84.4052 155.568 84.4261C155.114 84.4365 153.794 84.2103 153.451 84.635C152.938 85.272 152.831 86.7339 153.458 87.3222C153.808 87.6494 154.56 87.5867 154.989 87.6181C156.001 87.6842 157.012 87.6877 158.024 87.6598C158.38 87.6494 158.807 87.6772 158.959 87.2874C159.233 86.5912 159.108 85.6618 159.025 84.9378C158.962 84.3878 158.093 84.3809 158.159 84.9378H158.162Z" fill="#3A3D42"/>
<path d="M166.092 95.6448C166.164 96.2853 166.3 97.1416 166.057 97.7612L166.358 97.4584C165.666 97.6463 164.768 97.5175 164.058 97.5036C163.417 97.4897 161.897 97.7299 161.879 96.9049C161.872 96.4559 161.737 96.0416 162.309 96.0312C162.704 96.0208 163.102 96.0138 163.497 96.0034C164.422 95.9825 165.343 95.9616 166.268 95.9407C166.826 95.9268 166.826 95.0566 166.268 95.0705C165.343 95.0914 164.422 95.1123 163.497 95.1331C163.043 95.1436 161.72 94.9173 161.381 95.342C160.871 95.979 160.76 97.441 161.387 98.0327C161.737 98.3599 162.489 98.2973 162.919 98.3251C163.93 98.3912 164.942 98.3947 165.953 98.3669C166.31 98.3564 166.733 98.3843 166.888 97.9944C167.162 97.3017 167.037 96.3689 166.954 95.6448C166.892 95.0948 166.026 95.0879 166.088 95.6448H166.092Z" fill="#3A3D42"/>
<path d="M167.751 81.4716C168.984 81.4716 170.203 81.4716 171.405 81.3915C171.97 81.3532 173.203 81.2105 173.519 81.8649C173.816 82.481 172.815 82.6446 172.278 82.6933C171.419 82.7664 147.555 82.8952 147.018 82.7804C145.806 82.3522 146.031 81.8127 146.52 81.576C146.824 81.4298 147.122 81.5064 147.562 81.4716C150.257 81.2105 164.997 81.4716 167.754 81.4716H167.751Z" fill="white"/>
<path d="M167.751 81.9068C168.769 81.9068 169.784 81.8998 170.802 81.8615C171.208 81.8476 171.61 81.8093 172.015 81.7884C172.434 81.7675 173.338 82.133 172.278 82.2583C171.952 82.2966 171.613 82.2792 171.287 82.2827C169.521 82.3106 167.757 82.321 165.991 82.3349C161.016 82.3697 156.042 82.3941 151.071 82.3906C149.775 82.3906 148.476 82.408 147.181 82.3593C147.146 82.3593 147.108 82.3593 147.074 82.3523C147.101 82.2061 147.132 82.0634 147.164 81.9172C147.344 81.9207 147.52 81.9172 147.697 81.8963C148.078 81.8615 148.463 81.8546 148.847 81.8406C150.07 81.7989 151.296 81.7989 152.519 81.7954C157.597 81.778 162.676 81.9033 167.754 81.9103C168.312 81.9103 168.312 81.04 167.754 81.04C162.104 81.0331 156.458 80.8834 150.811 80.9356C149.717 80.9461 145.944 80.4622 145.716 81.9938C145.508 83.3862 147.766 83.2469 148.57 83.2539C153.731 83.2991 158.893 83.2539 164.054 83.2226C166.303 83.2086 168.551 83.1947 170.799 83.1634C171.606 83.1529 174.007 83.3618 174.007 82.14C174.007 81.4403 173.376 81.0226 172.739 80.96C171.111 80.7929 169.396 81.04 167.757 81.04C167.2 81.04 167.2 81.9103 167.757 81.9103L167.751 81.9068Z" fill="#3A3D42"/>
<path d="M63.4682 82.4926C62.235 82.4926 61.0157 82.4926 59.7963 82.4264C59.2213 82.3951 57.9534 82.2802 57.7941 82.8093C57.6417 83.3071 57.2329 97.9338 57.7802 97.9721C58.6566 98.0312 87.256 98.08 87.7687 97.9895C87.7687 97.9895 88.2848 82.7153 87.741 82.5239C87.4015 82.4055 87.1209 82.4682 86.674 82.4404C83.9166 82.2315 66.2291 82.4926 63.4752 82.4926H63.4682Z" fill="white"/>
<path d="M63.4686 82.0546C62.2423 82.0546 61.0195 82.0442 59.7967 81.9885C59.1212 81.9572 58.4769 81.905 57.8429 82.173C57.3164 82.3958 57.3337 82.9597 57.3025 83.44C57.1536 85.807 57.1259 88.188 57.0912 90.5619C57.0566 92.8489 56.9457 95.195 57.1986 97.4715C57.3129 98.5053 57.888 98.4148 58.7609 98.4218C68.1312 98.5192 77.5085 98.554 86.8788 98.4426C87.1697 98.4426 87.4746 98.4566 87.7656 98.4183C88.0046 98.3869 88.1916 98.2442 88.1986 97.9832C88.3025 94.8538 88.3787 91.7211 88.4099 88.5883C88.4272 86.8478 88.4584 85.0969 88.3371 83.3634C88.2471 82.0512 87.8418 82.0825 86.5531 81.9955C78.9079 81.4664 71.1276 82.0477 63.4686 82.0581C62.9109 82.0581 62.9109 82.9283 63.4686 82.9283C70.8332 82.9214 78.2047 82.6568 85.5693 82.8274C86.0682 82.8378 86.5705 82.8726 87.0693 82.8796C87.4538 82.8866 87.3914 82.6359 87.4434 83.0536C87.478 83.346 87.4919 83.6419 87.5058 83.9378C87.5924 85.713 87.5577 87.5022 87.5369 89.2775C87.5023 92.1805 87.4295 95.0836 87.3325 97.9832C87.478 97.837 87.6201 97.6943 87.7656 97.5481C84.5267 97.9484 81.0349 97.6003 77.7821 97.6003C72.5098 97.6003 67.241 97.5933 61.9686 97.5689C60.6281 97.562 59.2875 97.5655 57.9469 97.5376C57.5935 97.5306 58.1651 97.9727 58.082 97.5898C58.0127 97.2696 58.0127 96.925 57.9954 96.5978C57.933 95.4943 57.9365 94.3874 57.933 93.284C57.933 90.6489 57.9884 88.0104 58.082 85.3789C58.1097 84.6061 58.1339 83.8299 58.1928 83.0571C58.2275 82.6046 62.942 82.9249 63.4686 82.9249C64.0263 82.9249 64.0263 82.0546 63.4686 82.0546Z" fill="#3A3D42"/>
<path d="M57.1432 84.9408C57.0704 85.5709 56.9111 86.5316 57.1501 87.1373C57.3476 87.6385 57.6316 87.6385 58.1443 87.6594C59.0276 87.6942 59.9144 87.6768 60.7978 87.6385C61.3035 87.6176 62.2908 87.7116 62.7065 87.3218C63.3369 86.7335 63.2261 85.2715 62.7134 84.6345C62.4189 84.2656 61.3728 84.4431 60.9918 84.4326C59.9352 84.4083 58.8821 84.3839 57.8256 84.3595C57.2679 84.3456 57.2679 85.2158 57.8256 85.2298C58.6189 85.2472 59.4087 85.2646 60.2019 85.2855C60.5968 85.2959 60.9952 85.3029 61.3901 85.3133C61.6465 85.3029 61.8993 85.3237 62.1522 85.3794C62.1938 85.6509 62.218 85.9225 62.218 86.1974C62.2457 86.9946 60.9987 86.7614 60.4202 86.7857C59.6027 86.8205 58.5392 86.9667 57.7425 86.7544C57.8429 86.8553 57.9434 86.9563 58.0438 87.0572C57.7979 86.4376 57.933 85.5813 58.0092 84.9408C58.0715 84.3839 57.2055 84.3909 57.1432 84.9408Z" fill="#3A3D42"/>
<path d="M59.7174 87.2182C59.6446 87.8482 59.4853 88.809 59.7243 89.4146C59.9218 89.9159 60.2058 89.9159 60.7185 89.9368C61.6018 89.9716 62.4886 89.9542 63.3754 89.9159C63.8812 89.895 64.8685 89.9925 65.2841 89.5991C65.9111 89.0074 65.8038 87.5489 65.2911 86.9119C64.9966 86.5429 63.9505 86.7204 63.5694 86.71C62.5129 86.6856 61.4598 86.6613 60.4033 86.6369C59.8456 86.623 59.8456 87.4932 60.4033 87.5071C61.1965 87.5245 61.9864 87.5419 62.7796 87.5628C63.1745 87.5732 63.5729 87.5802 63.9678 87.5906C64.2241 87.5802 64.477 87.6011 64.7299 87.6568C64.7715 87.9283 64.7957 88.1998 64.7957 88.4748C64.8234 89.2719 63.5729 89.0352 62.9979 89.0631C62.1803 89.0979 61.1169 89.2441 60.3201 89.0317C60.4206 89.1327 60.5211 89.2336 60.6215 89.3346C60.3756 88.715 60.5107 87.8587 60.5869 87.2182C60.6492 86.6612 59.7832 86.6682 59.7209 87.2182H59.7174Z" fill="#3A3D42"/>
<path d="M73.5494 82.4994C73.4767 83.126 73.3173 84.0937 73.5563 84.6959C73.7538 85.1936 74.0379 85.1971 74.5505 85.218C75.4339 85.2528 76.3207 85.2354 77.204 85.1971C77.7098 85.1762 78.697 85.2702 79.1127 84.8804C79.7432 84.2886 79.6323 82.8301 79.1196 82.1896C78.8252 81.8241 77.779 81.9982 77.398 81.9912C76.3415 81.9669 75.2849 81.9425 74.2318 81.9181C73.6741 81.9042 73.6741 82.7744 74.2318 82.7884C75.0251 82.8058 75.8149 82.8232 76.6082 82.844C77.0031 82.8545 77.4015 82.8615 77.7964 82.8719C78.0527 82.8615 78.3056 82.8823 78.5585 82.938C78.6 83.2095 78.6243 83.4811 78.6243 83.756C78.652 84.5532 77.4049 84.3165 76.8264 84.3443C76.0124 84.3791 74.942 84.5288 74.1487 84.313L74.4501 84.6158C74.2041 83.9997 74.3392 83.1399 74.4154 82.4994C74.4778 81.9425 73.6118 81.9495 73.5494 82.4994Z" fill="#3A3D42"/>
<path d="M70.9752 84.9369C70.9025 85.567 70.7431 86.5277 70.9821 87.1334C71.1796 87.6346 71.4636 87.6346 71.9763 87.6555C72.8597 87.6903 73.7465 87.6729 74.6298 87.6346C75.1355 87.6137 76.1228 87.7112 76.5385 87.3179C77.169 86.7261 77.0581 85.2676 76.5454 84.6306C76.251 84.2617 75.2048 84.4392 74.8238 84.4287C73.7672 84.4044 72.7142 84.38 71.6576 84.3556C71.0999 84.3417 71.0999 85.2119 71.6576 85.2259C72.4509 85.2433 73.2407 85.2607 74.034 85.2816C74.4289 85.292 74.8272 85.299 75.2222 85.3094C75.4785 85.299 75.7314 85.3198 75.9842 85.3755C76.0258 85.647 76.0501 85.9186 76.0501 86.1935C76.0778 86.9907 74.8307 86.754 74.2522 86.7818C73.4347 86.8166 72.3712 86.9628 71.5745 86.7505C71.6749 86.8514 71.7754 86.9524 71.8759 87.0533C71.6334 86.4337 71.765 85.5774 71.8412 84.9369C71.9036 84.38 71.0376 84.387 70.9752 84.9369Z" fill="#3A3D42"/>
<path d="M63.0455 95.6436C62.9728 96.2736 62.8134 97.2343 63.0524 97.84C63.2499 98.3412 63.5339 98.3412 64.0466 98.3621C64.93 98.3969 65.8168 98.3795 66.7001 98.3412C67.2059 98.3204 68.1931 98.4143 68.6088 98.0245C69.2393 97.4362 69.1284 95.9708 68.6157 95.3338C68.3213 94.9648 67.2751 95.1423 66.8941 95.1319C65.8376 95.1075 64.7845 95.0831 63.7279 95.0588C63.1702 95.0448 63.1702 95.9151 63.7279 95.929C64.5212 95.9464 65.311 95.9638 66.1043 95.9847C66.4992 95.9951 66.8976 96.0021 67.2925 96.0125C67.5488 96.0021 67.8017 96.023 68.0546 96.0787C68.0961 96.3502 68.1204 96.6217 68.1204 96.8967C68.1481 97.6938 66.901 97.4606 66.3225 97.4849C65.505 97.5197 64.4415 97.6659 63.6448 97.4536C63.7453 97.5546 63.8457 97.6555 63.9462 97.7564C63.7002 97.1368 63.8353 96.2805 63.9115 95.6401C63.9739 95.0831 63.1079 95.0901 63.0455 95.6401V95.6436Z" fill="#3A3D42"/>
<path d="M62.2526 81.4716C61.0194 81.4716 59.8 81.4716 58.598 81.3915C58.0334 81.3532 56.7967 81.2105 56.4849 81.8649C56.1905 82.481 57.1881 82.6446 57.7251 82.6933C58.5841 82.7664 82.4481 82.8952 82.985 82.7804C84.1975 82.3522 83.9723 81.8127 83.4839 81.576C83.179 81.4298 82.8811 81.5064 82.4412 81.4716C79.7461 81.2105 65.0065 81.4716 62.2491 81.4716H62.2526Z" fill="white"/>
<path d="M62.2527 81.0366C60.5345 81.0366 58.5046 80.6154 56.8279 81.0575C56.1802 81.2281 55.619 82.2654 56.3395 82.7179C57.3891 83.3793 59.0346 83.1565 60.2193 83.1704C65.5747 83.2296 70.9302 83.2505 76.2856 83.2574C78.2671 83.2574 80.2485 83.2679 82.2265 83.24C83.0925 83.2261 85.3615 82.2828 83.9239 81.3395C83.2207 80.88 82.2057 81.0053 81.3882 80.974C80.0892 80.9252 78.7867 80.9218 77.4876 80.9183C74.1968 80.9078 70.9059 80.9461 67.615 80.9809C65.8276 81.0018 64.0401 81.0297 62.2527 81.0331C61.695 81.0331 61.695 81.9034 62.2527 81.9034C67.2098 81.8964 72.1634 81.785 77.1204 81.7885C78.2982 81.7885 79.4795 81.7989 80.6573 81.8233C81.0383 81.8303 81.4194 81.8442 81.8004 81.8616C81.9701 81.8686 82.1364 81.879 82.3062 81.8929C82.3512 81.8964 82.3962 81.8999 82.4413 81.9034C82.8292 81.7815 82.9886 81.9312 82.9262 82.3489C81.6965 82.4603 80.4286 82.3837 79.1954 82.3872C74.2383 82.3977 69.2813 82.3698 64.3242 82.335C62.5055 82.3211 60.6869 82.3106 58.8683 82.2828C58.4976 82.2758 58.127 82.2758 57.7528 82.2584C58.1131 82.2758 55.9377 81.9591 57.6247 81.7885C57.9434 81.7572 58.2794 81.8024 58.5946 81.8233C59.8105 81.9138 61.0299 81.9034 62.2492 81.9034C62.8069 81.9034 62.8069 81.0331 62.2492 81.0331L62.2527 81.0366Z" fill="#3A3D42"/>
<path d="M137.195 76.0429C130.907 76.0429 100.444 76.0429 94.1535 76.0359L94.0635 57.7891C100.441 57.723 130.654 57.6603 137.032 57.5977C137.122 57.5977 137.191 76.0429 137.191 76.0429H137.195Z" fill="white"/>
<path d="M137.194 75.6093C122.846 75.6023 108.502 75.6093 94.1534 75.6023C94.2989 75.7485 94.4409 75.8912 94.5864 76.0374C94.5552 69.9563 94.5275 63.8752 94.4963 57.7906C94.3509 57.9368 94.2088 58.0795 94.0633 58.2257C105.751 58.1109 117.442 58.1283 129.134 58.0795C131.427 58.0691 133.72 58.0586 136.013 58.0412C136.197 58.0412 136.377 58.0412 136.561 58.0378C137.108 58.0343 136.675 58.1317 136.609 57.6305C136.63 57.7871 136.623 57.9542 136.63 58.1143C136.654 58.9915 136.661 59.8687 136.671 60.7424C136.723 65.6261 136.744 70.5098 136.765 75.3935C136.765 75.6093 136.765 75.8251 136.765 76.0409C136.765 76.6013 137.634 76.6013 137.631 76.0409C137.621 72.9673 137.603 69.8937 137.586 66.82C137.572 64.7071 137.558 62.5942 137.534 60.4813C137.524 59.6494 137.773 58.2779 137.454 57.4843C137.382 57.3033 137.246 57.1641 137.035 57.1641C122.711 57.3068 108.387 57.2163 94.0668 57.3555C93.8312 57.3555 93.6338 57.5504 93.6338 57.7906C93.665 63.8717 93.6927 69.9528 93.7239 76.0374C93.7239 76.2741 93.9213 76.4725 94.1569 76.4725C108.505 76.4795 122.85 76.4725 137.198 76.4795C137.756 76.4795 137.756 75.6093 137.198 75.6093H137.194Z" fill="#3A3D42"/>
<path d="M136.009 60.7296C129.722 60.7296 100.742 60.7296 94.4543 60.7226L94.3643 58.836C100.742 58.7698 129.469 58.7072 135.846 58.6445C135.937 58.6445 136.006 60.7296 136.006 60.7296H136.009Z" fill="white"/>
<path d="M136.01 60.2917C122.157 60.2847 108.307 60.2917 94.4546 60.2847C94.6001 60.4309 94.7422 60.5736 94.8876 60.7198C94.8565 60.0898 94.8288 59.4632 94.7976 58.8332C94.6521 58.9794 94.5101 59.1221 94.3646 59.2683C101.771 59.1952 109.173 59.1952 116.58 59.1673C120.844 59.1534 125.105 59.136 129.369 59.1151C130.883 59.1082 132.397 59.1012 133.91 59.0908C134.447 59.0873 134.988 59.0838 135.525 59.0768C135.784 59.1151 135.764 59.0316 135.459 58.8262C135.487 59.0525 135.507 59.2787 135.518 59.5085C135.545 59.9122 135.559 60.3195 135.573 60.7233C135.594 61.2837 136.46 61.2837 136.439 60.7233C136.415 60.055 136.522 59.1499 136.262 58.5234C136.186 58.3424 136.055 58.2031 135.843 58.2031C122.015 58.3389 108.186 58.2588 94.3611 58.3946C94.1325 58.3946 93.9177 58.5895 93.9281 58.8297C93.9593 59.4597 93.987 60.0863 94.0182 60.7163C94.0286 60.953 94.2052 61.1514 94.4512 61.1514C108.304 61.1584 122.153 61.1514 136.006 61.1584C136.564 61.1584 136.564 60.2882 136.006 60.2882L136.01 60.2917Z" fill="#3A3D42"/>
<path d="M86.626 53.6252C86.678 54.3806 95.1165 57.7884 95.1165 57.7884C101.501 58.0843 126.48 59.1981 136.969 57.8824C137.406 57.8267 144.774 54.2274 145.179 53.6879C145.491 53.2702 144.362 53.7018 143.686 53.66C142.214 53.5695 86.5568 52.6019 86.626 53.6287V53.6252Z" fill="white"/>
<path d="M86.2106 53.7399C86.3803 54.2864 87.0732 54.5893 87.5269 54.8434C88.6424 55.4699 89.8236 55.9851 90.991 56.5038C92.5394 57.193 94.1814 58.1781 95.8961 58.2546C101.868 58.5262 107.844 58.7385 113.819 58.8568C120.796 58.9961 127.821 59.1005 134.78 58.5366C136.966 58.3591 138.369 57.7778 140.34 56.8136C141.573 56.2114 142.8 55.5883 144.009 54.9304C144.559 54.631 145.439 54.3073 145.644 53.6494C145.713 53.4232 145.564 53.176 145.342 53.1134C144.577 52.9045 143.271 53.1969 142.391 53.1795C140.984 53.1482 139.578 53.1203 138.172 53.096C133.412 53.009 128.649 52.9393 123.889 52.8802C113.365 52.7479 102.831 52.5843 92.3074 52.7862C91.6388 52.8001 86.3803 52.4242 86.2106 53.5032C86.124 54.0532 86.9588 54.2864 87.0454 53.733C86.99 54.088 86.8514 53.9244 87.3988 53.8653C87.9184 53.8096 88.438 53.7817 88.9611 53.7573C90.6134 53.6773 92.2693 53.6494 93.9251 53.6286C98.9584 53.5589 103.995 53.5798 109.032 53.6077C119.223 53.6668 129.414 53.7991 139.606 53.9906C140.61 54.008 141.611 54.0289 142.613 54.0532C143.295 54.0706 144.563 53.8026 145.11 53.9523L144.809 53.4162C144.681 53.8304 143.139 54.4118 142.751 54.6171C141.608 55.2228 140.448 55.7971 139.284 56.361C138.508 56.737 137.725 57.1617 136.907 57.4401C135.878 57.7917 134.465 57.6907 133.388 57.7638C127.035 58.1955 120.64 58.105 114.276 57.9901C108.623 57.8892 102.97 57.6907 97.3199 57.4436C96.7171 57.4158 95.7333 57.562 95.1721 57.3357C94.4308 57.0363 93.693 56.7265 92.9551 56.4133C91.812 55.9259 90.6758 55.4247 89.5534 54.8921C89.0996 54.6763 87.2117 54.0358 87.042 53.5032C86.8757 52.9707 86.0374 53.1969 86.2071 53.733L86.2106 53.7399Z" fill="#3A3D42"/>
<path d="M145.685 52.7988C139.789 50.7416 137.444 49.6486 135.012 48.5278C133.727 47.936 132.923 45.2488 132.594 44.9111C132.157 44.4656 129.151 44.7893 128.087 44.8311C122.288 45.0399 109.634 44.9146 104.157 44.8555C102.789 44.8415 102.148 44.4482 102.006 44.8311C101.753 45.5203 98.9439 48.573 98.9439 48.573C98.0779 49.2901 96.5468 49.6834 95.2963 49.9167C92.0504 50.5189 86.2966 53.2618 85.7285 53.4358C86.0368 53.9963 86.8613 53.8744 88.2642 54.2051C88.2296 54.32 88.2296 54.4418 88.2711 54.5706C88.4755 55.1937 89.9997 55.7437 90.8103 55.3399C91.0978 55.1972 91.2745 54.9813 91.3472 54.7446C92.6844 54.9187 93.9349 55.0231 94.7247 55.0649C94.9429 55.681 96.4533 56.224 97.2604 55.8237C97.5548 55.6775 97.7315 55.4582 97.8043 55.2146C98.8123 55.2633 99.9658 55.3155 101.199 55.3677C101.106 55.5592 101.099 55.7715 101.22 55.9838C101.559 56.5756 103.184 56.9446 103.898 56.4538C104.261 56.2066 104.75 55.9769 104.656 55.6358C106.17 55.6914 106.568 55.587 107.438 55.6114C107.168 55.8655 107.486 56.1892 107.673 56.5129C108.013 57.1047 109.638 57.4702 110.351 56.9829C110.84 56.6452 111.297 56.1022 110.985 55.6845C111.422 55.6914 111.411 55.6914 111.83 55.6949C112.627 55.7019 112.915 55.7054 113.687 55.7297C113.448 56.1231 113.981 56.6139 114.408 56.9272C115.097 57.4354 116.739 57.1082 117.106 56.5269C117.248 56.3006 117.241 56.0743 117.134 55.8655C118.277 55.9212 119.406 55.9838 120.529 56.0395C120.428 56.3772 120.515 56.7357 120.861 56.9898C121.55 57.498 123.192 57.1708 123.56 56.5895C123.646 56.4503 123.677 56.311 123.664 56.1718C124.758 56.2066 125.856 56.224 126.968 56.2136C127.02 56.4677 127.19 56.7044 127.491 56.8645C128.285 57.2857 129.833 56.7775 130.069 56.1579C130.076 56.1405 130.079 56.1231 130.086 56.1057C130.46 56.0848 130.834 56.0569 131.215 56.0256C131.946 55.9664 132.746 55.8794 133.588 55.775C133.675 55.8899 133.792 55.9908 133.948 56.0709C134.742 56.4921 136.29 55.9838 136.526 55.3642C136.526 55.3573 136.529 55.3503 136.533 55.3399C137.669 55.1519 138.808 54.9396 139.893 54.7168C139.958 54.95 140.121 55.1658 140.398 55.3155C141.192 55.7367 142.74 55.2285 142.976 54.6089C143.055 54.3931 143.017 54.1912 142.899 54.0137C144.403 53.6134 145.158 53.1608 145.688 52.7954L145.685 52.7988Z" fill="#D1D1D1"/>
<path d="M145.803 52.3811C142.768 51.3195 139.758 50.1986 136.821 48.8794C135.39 48.2389 134.479 47.6889 133.731 46.2235C133.363 45.5064 133.214 44.6048 132.38 44.3438C131.358 44.0235 130.038 44.2707 128.995 44.3403C127.72 44.4238 126.442 44.4447 125.164 44.4656C121.696 44.5248 118.225 44.5178 114.754 44.5039C111.654 44.4935 108.557 44.4656 105.457 44.4343C104.38 44.4238 102.994 43.9992 101.979 44.2916C101.387 44.4621 100.704 45.9102 100.316 46.3662C99.6061 47.2051 98.9306 48.1379 97.9641 48.674C96.4503 49.5164 94.4654 49.6034 92.82 50.129C90.3466 50.9227 88.05 52.1514 85.6078 53.0147C85.2822 53.1295 85.206 53.4811 85.4173 53.7422C85.8433 54.2678 86.4426 54.3235 87.08 54.4244C87.9599 54.5602 87.7417 54.7899 88.3271 55.319C89.0303 55.9525 90.9494 56.3145 91.5279 55.2981C91.663 55.0649 94.3165 55.3921 94.552 55.601C95.0058 56.0013 95.5393 56.2971 96.1559 56.3598C96.8244 56.4259 97.4168 56.3668 97.9156 55.8655C98.4526 55.326 100.472 55.775 101.193 55.8063C101.054 55.6218 100.916 55.4408 100.773 55.2564C100.431 56.7079 102.083 57.1256 103.219 57.1082C103.787 57.0977 104.657 56.6661 104.948 56.1649C105.104 55.8968 106.998 56.0396 107.431 56.0465C107.293 55.862 107.154 55.681 107.012 55.4965C106.077 58.0585 112.288 58.5249 111.394 55.5662C111.256 55.7506 111.117 55.9316 110.975 56.1161C111.876 56.1301 112.776 56.1335 113.674 56.1614C113.535 55.9769 113.397 55.7959 113.255 55.6114C112.846 58.2499 118.153 58.2395 117.533 55.7472C117.394 55.9316 117.256 56.1127 117.113 56.2971C118.246 56.3528 119.379 56.4155 120.508 56.4712C120.363 56.325 120.221 56.1823 120.075 56.0361C119.982 56.9202 120.588 57.6164 121.499 57.6547C122.074 57.6791 122.767 57.6547 123.276 57.3414C123.598 57.143 123.92 56.6139 124.298 56.6243C125.386 56.6557 126.304 56.4677 127.163 57.1743C127.544 57.4876 128.115 57.4598 128.573 57.4284C129.026 57.3936 129.605 57.2022 129.965 56.8993C130.208 56.694 130.256 56.6383 130.422 56.3807C130.412 56.3981 130.942 56.4851 131.195 56.4677C132.103 56.3981 132.944 56.1927 133.81 56.499C134.403 56.7079 134.933 56.6731 135.539 56.5373C135.937 56.4503 136.502 56.1753 136.73 55.8203C137.015 55.3817 138.192 55.5 138.885 55.3677C139.994 55.1589 140.686 56.0744 141.992 55.782C142.886 55.5836 143.672 54.8526 143.298 53.9093C143.198 54.0868 143.097 54.2643 142.997 54.4453C144.033 54.1425 144.989 53.7805 145.889 53.1817C146.354 52.8754 145.921 52.1201 145.453 52.4299C144.618 52.9833 143.724 53.3245 142.768 53.6029C142.561 53.6621 142.377 53.9162 142.467 54.139C142.841 55.0823 140.638 55.2459 140.25 54.508C140.156 54.327 139.945 54.2713 139.762 54.3096C138.643 54.5358 137.524 54.7447 136.401 54.9326C136.252 54.957 136.142 55.1032 136.1 55.2355C135.702 56.5269 134.129 55.2807 133.575 55.3469C132.411 55.4896 131.243 55.601 130.073 55.6775C129.872 55.6915 129.716 55.8029 129.653 55.9978C129.38 56.875 127.644 56.6696 127.332 55.9978C127.27 55.862 127.1 55.782 126.958 55.782C125.857 55.7855 124.755 55.7715 123.654 55.7402C123.467 55.7367 123.283 55.876 123.234 56.0604C123.037 56.861 120.827 57.2405 120.952 56.043C120.976 55.7994 120.733 55.6184 120.519 55.6079C119.386 55.5487 118.253 55.4896 117.124 55.4339C116.836 55.42 116.642 55.7228 116.705 55.9839C116.944 56.9376 113.899 57.1151 114.096 55.8481C114.141 55.5662 113.982 55.3051 113.677 55.2981C112.776 55.2703 111.876 55.2668 110.979 55.2529C110.701 55.2494 110.48 55.5348 110.559 55.8029C111.01 57.2962 107.414 56.9167 107.847 55.7332C107.948 55.4617 107.691 55.1833 107.428 55.1833C106.5 55.1728 105.575 55.232 104.646 55.2076C104.459 55.2041 104.272 55.3434 104.227 55.5279C103.988 56.5373 101.387 56.4225 101.608 55.4965C101.674 55.2146 101.477 54.957 101.189 54.9466C100.056 54.8978 98.9237 54.8456 97.7944 54.7934C97.6454 54.7864 97.493 54.8804 97.4203 55.0092C96.6131 56.4677 95.5808 54.8665 94.8291 54.6611C93.7657 54.3652 92.4355 54.4627 91.3339 54.327C91.1884 54.3096 91.0291 54.4209 90.9598 54.5428C90.5926 55.1902 88.7047 55.2981 88.6804 54.2191C88.677 54.0346 88.5522 53.8396 88.3617 53.7979C87.7243 53.6656 86.4738 53.7004 86.0166 53.14C85.9542 53.3836 85.8884 53.6238 85.826 53.8675C88.1227 53.0564 90.3051 51.9321 92.6087 51.128C95.0231 50.2857 97.9641 50.31 99.7689 48.305C100.493 47.5009 101.227 46.6864 101.875 45.8162C102.169 45.4194 102.194 45.0887 102.648 45.1548C103.354 45.2593 104.05 45.3045 104.764 45.3149C107.923 45.3498 111.083 45.3741 114.242 45.388C117.598 45.402 120.955 45.4055 124.308 45.3637C125.645 45.3463 126.986 45.3324 128.323 45.2697C128.981 45.2384 131.863 44.6814 132.286 45.2662C132.93 46.1608 133.117 47.3165 133.876 48.1658C134.61 48.9908 135.653 49.3319 136.64 49.774C139.55 51.0793 142.543 52.1827 145.55 53.2374C146.08 53.4219 146.305 52.583 145.779 52.3985L145.803 52.3811Z" fill="#3A3D42"/>
<path d="M99.3872 48.9855C99.3872 48.9855 92.6531 51.5439 88.5655 52.4942L88.1221 51.4082C89.189 51.3107 95.6911 48.9681 98.5385 48.1953L99.3907 48.989L99.3872 48.9855Z" fill="white"/>
<path d="M99.2736 48.5658C95.7264 49.892 92.1342 51.1903 88.4519 52.0745C88.6285 52.1754 88.8087 52.2764 88.9853 52.3773C88.8364 52.0153 88.6874 51.6533 88.5419 51.2913C88.4415 51.4688 88.341 51.6463 88.2405 51.8274C90.0626 51.5802 91.8986 50.7657 93.6376 50.1913C94.8708 49.7841 96.104 49.3803 97.3441 48.9974C98.4492 48.6563 98.2378 48.5031 99.0865 49.2933C99.4953 49.6727 100.108 49.06 99.6997 48.6771C99.4226 48.4196 98.8822 47.6433 98.4249 47.7721C97.1709 48.1202 95.9342 48.524 94.6976 48.9278C92.5429 49.6309 90.267 50.6787 88.0085 50.9885C87.7937 51.0163 87.6239 51.3226 87.7071 51.5245C87.856 51.8865 88.005 52.2485 88.1505 52.6105C88.244 52.8368 88.4311 52.976 88.6839 52.9134C92.3697 52.0292 95.962 50.7309 99.5057 49.4047C100.025 49.2097 99.8001 48.3708 99.2736 48.5658Z" fill="#3A3D42"/>
<path d="M87.925 51.2367C87.6618 51.3029 87.4574 51.5535 87.4262 51.8285C87.3985 52.107 87.544 52.3889 87.7761 52.5316C88.0082 52.6709 88.3165 52.6639 88.5486 52.5212C88.6283 52.4724 88.701 52.4098 88.7599 52.3332C88.9608 52.0721 88.9608 51.6649 88.7599 51.4038C88.559 51.1427 88.1779 51.0453 87.8835 51.1845" fill="white"/>
<path d="M87.8103 50.8164C87.2006 51.0114 86.875 51.624 87.0447 52.2436C87.2249 52.9015 87.98 53.2287 88.5932 52.9815C89.1855 52.7414 89.4627 52.0974 89.286 51.4917C89.1059 50.8652 88.3611 50.531 87.7722 50.7677C87.554 50.8547 87.4015 51.0531 87.4708 51.3038C87.5297 51.5126 87.7826 51.6971 88.0043 51.6066C88.1567 51.5439 88.3265 51.53 88.4338 51.6867C88.5343 51.8363 88.4789 52.0487 88.3334 52.1461C87.9766 52.3863 87.6475 51.7806 88.0424 51.6553C88.5724 51.4882 88.3472 50.6459 87.8103 50.8164Z" fill="#3A3D42"/>
<path d="M132.968 45.3723C132.968 45.3723 106.27 45.254 101.979 45.1391L102.076 44.0078C103.122 44.1784 105.786 44.1749 106.846 44.1645C109.884 44.1401 129.151 44.3803 132.192 44.3524L132.972 45.3723H132.968Z" fill="white"/>
<path d="M132.968 44.938C122.641 44.9241 112.298 44.9658 101.978 44.7048C102.124 44.851 102.266 44.9937 102.411 45.1399C102.442 44.764 102.477 44.3845 102.508 44.0086C102.363 44.1548 102.221 44.2975 102.075 44.4437C104.452 44.7605 106.904 44.5934 109.301 44.6073C112.176 44.6247 115.052 44.6526 117.927 44.6804C121.076 44.7117 124.224 44.7431 127.373 44.7674C128.551 44.7779 129.729 44.7848 130.907 44.7883C131.253 44.7883 131.599 44.7883 131.946 44.7883C132.247 44.7883 131.672 44.3845 132.019 44.8371C132.213 45.0877 132.403 45.3418 132.597 45.5924C132.933 46.031 133.685 45.5994 133.345 45.1538C132.85 44.5099 132.642 43.9181 131.804 43.9216C130.841 43.9216 129.874 43.9146 128.911 43.9111C125.648 43.8903 122.382 43.8554 119.118 43.8241C116.025 43.7928 112.932 43.7649 109.838 43.7406C107.268 43.7232 104.621 43.9146 102.075 43.5735C101.826 43.5387 101.66 43.7963 101.642 44.0086C101.611 44.3845 101.576 44.764 101.545 45.1399C101.524 45.3801 101.757 45.568 101.978 45.575C112.301 45.8361 122.645 45.7908 132.968 45.8082C133.526 45.8082 133.526 44.938 132.968 44.938Z" fill="#3A3D42"/>
<path d="M101.747 43.561C101.497 43.6411 101.3 43.9439 101.272 44.2781C101.244 44.6122 101.383 44.9569 101.605 45.1239C101.826 45.2945 102.121 45.2841 102.342 45.1135C102.419 45.0543 102.488 44.9777 102.543 44.8872C102.734 44.5705 102.737 44.0797 102.543 43.7629C102.353 43.4461 101.989 43.3313 101.709 43.4984" fill="white"/>
<path d="M101.629 43.1392C100.195 43.731 100.929 46.2442 102.471 45.5445C103.091 45.2626 103.215 44.3749 103.035 43.8006C102.824 43.1323 102.114 42.805 101.49 43.1218C100.991 43.3724 101.431 44.1243 101.927 43.8737C102.297 43.6857 102.252 44.5072 102.166 44.6673C102.02 44.9423 101.798 44.7683 101.729 44.5559C101.681 44.4097 101.677 44.0547 101.861 43.9781C102.079 43.8876 102.231 43.6927 102.162 43.442C102.107 43.2332 101.847 43.0487 101.629 43.1392Z" fill="#3A3D42"/>
<path d="M132.234 43.8368C131.985 43.9169 131.787 44.2197 131.759 44.5539C131.732 44.888 131.87 45.2326 132.092 45.3997C132.314 45.5703 132.608 45.5598 132.826 45.3893C132.903 45.3301 132.972 45.2535 133.027 45.1595C133.221 44.8428 133.221 44.352 133.027 44.0352C132.837 43.7184 132.473 43.6036 132.192 43.7741" fill="white"/>
<path d="M132.119 43.4166C130.685 44.0083 131.419 46.518 132.961 45.8218C133.581 45.5434 133.706 44.6523 133.525 44.0779C133.314 43.4096 132.6 43.0824 131.98 43.3992C131.482 43.6533 131.922 44.4016 132.417 44.151C132.788 43.9631 132.746 44.7811 132.656 44.9412C132.51 45.2162 132.289 45.0421 132.219 44.8298C132.167 44.6836 132.167 44.3285 132.351 44.252C132.569 44.1615 132.722 43.9665 132.652 43.7159C132.597 43.5071 132.337 43.3226 132.119 43.4131V43.4166Z" fill="#3A3D42"/>
<path d="M87.1139 54.1065C97.0766 56.0872 107.334 56.3413 117.459 56.2856C122.077 56.2612 126.746 56.4352 131.354 56.0663C135.774 55.7112 140.568 55.1543 144.721 53.5496C145.237 53.3512 145.012 52.5088 144.493 52.7107C140.381 54.298 135.715 54.7958 131.354 55.1961C126.944 55.5998 122.458 55.3736 118.034 55.4119C107.805 55.5024 97.4091 55.2692 87.3425 53.2676C86.7987 53.1597 86.5631 53.9986 87.1139 54.1065Z" fill="#3A3D42"/>
<path d="M87.5858 54.6185C88.4345 54.1973 88.3271 53.1635 87.4576 52.7701C86.46 52.3176 84.7557 52.9581 85.0466 53.8492C85.251 54.4723 86.7752 55.0223 87.5858 54.6185Z" fill="white"/>
<path d="M87.8032 54.9953C88.7004 54.4906 88.8424 53.401 88.1011 52.6805C87.3737 51.9739 86.1128 52.1027 85.2987 52.5587C84.5366 52.9833 84.3461 53.9058 85.0043 54.5149C85.7144 55.1728 86.9268 55.3747 87.8067 54.9953C88.3194 54.7725 87.876 54.0241 87.3702 54.2434C86.8506 54.4697 84.7722 53.9336 85.7386 53.3105C86.137 53.0529 86.6774 53.0042 87.1277 53.1156C87.7374 53.2653 87.9522 53.9162 87.3702 54.2469C86.8818 54.5219 87.3182 55.2738 87.8067 54.9988L87.8032 54.9953Z" fill="#3A3D42"/>
<path d="M94.0389 55.4783C94.8876 55.0571 94.7802 54.0268 93.9107 53.6334C92.9131 53.1809 91.2088 53.8214 91.4998 54.7125C91.7041 55.3356 93.2283 55.8856 94.0424 55.4818L94.0389 55.4783Z" fill="white"/>
<path d="M94.2573 55.8547C95.158 55.3499 95.2965 54.2604 94.5552 53.5399C93.8278 52.8332 92.5669 52.962 91.7528 53.418C90.9907 53.8427 90.8002 54.7651 91.4584 55.3743C92.1685 56.0322 93.3844 56.2341 94.2608 55.8547C94.7735 55.6319 94.3301 54.8835 93.8243 55.1028C93.3047 55.329 91.2263 54.793 92.1927 54.1699C92.5911 53.9123 93.1315 53.8636 93.5818 53.975C94.188 54.1247 94.4097 54.7756 93.8243 55.1028C93.3359 55.3778 93.7723 56.1296 94.2608 55.8547H94.2573Z" fill="#3A3D42"/>
<path d="M100.493 56.099C101.341 55.6778 101.234 54.644 100.361 54.2506C99.3633 53.7981 97.659 54.4386 97.95 55.3297C98.1543 55.9528 99.6785 56.5027 100.489 56.099H100.493Z" fill="white"/>
<path d="M100.71 56.4758C101.611 55.971 101.75 54.8815 101.008 54.161C100.281 53.4543 99.02 53.5831 98.2059 54.0391C97.4438 54.4638 97.2533 55.3862 97.9115 55.9954C98.6216 56.6533 99.834 56.8552 100.714 56.4758C101.227 56.253 100.783 55.5046 100.277 55.7239C99.7578 55.9501 97.6794 55.4141 98.6459 54.791C99.0442 54.5334 99.5846 54.4847 100.035 54.5961C100.645 54.7458 100.863 55.3967 100.277 55.7274C99.789 56.0024 100.225 56.7542 100.714 56.4792L100.71 56.4758Z" fill="#3A3D42"/>
<path d="M107.13 56.7754C107.875 56.2637 107.539 55.2542 106.596 54.9653C105.509 54.6346 103.971 55.4596 104.452 56.3055C104.792 56.8972 106.416 57.2662 107.13 56.7754Z" fill="white"/>
<path d="M107.347 57.1509C108.127 56.5488 108.151 55.5567 107.389 54.9093C106.589 54.227 105.259 54.3558 104.469 54.9928C103.731 55.588 103.8 56.4896 104.569 57.0048C105.317 57.506 106.565 57.6243 107.344 57.1509C107.822 56.862 107.386 56.1067 106.907 56.3991C106.509 56.6427 106.007 56.587 105.57 56.4826C105.266 56.4095 104.548 56.1693 104.905 55.7621C105.231 55.3827 105.879 55.2713 106.346 55.3513C106.783 55.4279 107.437 55.9918 106.911 56.3991C106.474 56.7367 106.907 57.4921 107.347 57.1509Z" fill="#3A3D42"/>
<path d="M113.58 57.0137C114.325 56.502 113.989 55.4925 113.043 55.2036C111.959 54.8729 110.417 55.6979 110.902 56.5437C111.238 57.1355 112.867 57.5045 113.58 57.0137Z" fill="white"/>
<path d="M113.798 57.3892C114.577 56.787 114.598 55.795 113.84 55.1475C113.039 54.4653 111.709 54.5941 110.923 55.2311C110.185 55.8263 110.254 56.7279 111.023 57.243C111.772 57.7443 113.019 57.8626 113.798 57.3892C114.276 57.1003 113.84 56.345 113.362 56.6374C112.963 56.881 112.457 56.8253 112.024 56.7209C111.72 56.6478 111.003 56.4076 111.359 56.0004C111.685 55.6244 112.333 55.5096 112.797 55.5896C113.233 55.6662 113.888 56.2301 113.362 56.6374C112.925 56.975 113.358 57.7304 113.798 57.3892Z" fill="#3A3D42"/>
<path d="M137.17 55.7994C136.342 55.3573 136.501 54.3305 137.388 53.958C138.41 53.5333 140.079 54.2121 139.743 55.0962C139.511 55.7124 137.959 56.2241 137.166 55.8029L137.17 55.7994Z" fill="white"/>
<path d="M137.389 55.4234C136.841 55.0927 137.094 54.5288 137.617 54.3338C138.082 54.1598 138.643 54.2816 139.062 54.5183C139.516 54.7759 139.332 55.0439 138.968 55.2528C138.539 55.4999 137.856 55.6427 137.389 55.4268C136.886 55.1901 136.446 55.942 136.952 56.1787C137.811 56.5825 138.93 56.3841 139.685 55.8237C140.458 55.2493 140.302 54.3687 139.592 53.8291C138.837 53.2583 137.579 53.2339 136.821 53.7908C135.944 54.4348 136.048 55.6322 136.952 56.1787C137.434 56.4676 137.867 55.7158 137.389 55.4268V55.4234Z" fill="#3A3D42"/>
<path d="M143.617 54.6009C142.789 54.1588 142.948 53.1285 143.835 52.7595C145.068 52.2444 146.561 52.9197 146.191 53.8978C145.959 54.5139 144.407 55.0256 143.613 54.6044L143.617 54.6009Z" fill="white"/>
<path d="M143.835 54.2248C143.343 53.9289 143.485 53.4555 143.925 53.1944C144.417 52.902 145.134 52.9682 145.601 53.2606C146.097 53.5704 145.619 53.9463 145.303 54.1064C144.891 54.3153 144.264 54.4267 143.831 54.2248C143.329 53.9881 142.889 54.7399 143.395 54.9766C144.237 55.37 145.279 55.182 146.041 54.6843C146.817 54.1795 146.883 53.1387 146.128 52.5748C145.328 51.9761 143.935 51.9692 143.177 52.6549C142.408 53.3476 142.511 54.4406 143.395 54.9732C143.876 55.2621 144.309 54.5102 143.831 54.2213L143.835 54.2248Z" fill="#3A3D42"/>
<path d="M130.716 56.5416C129.889 56.0995 130.048 55.0692 130.935 54.7002C131.957 54.2755 133.626 54.9543 133.29 55.8384C133.058 56.4546 131.506 56.9662 130.713 56.5451L130.716 56.5416Z" fill="white"/>
<path d="M130.935 56.1695C130.384 55.8388 130.64 55.2749 131.163 55.0799C131.627 54.9059 132.189 55.0277 132.608 55.2644C133.062 55.522 132.878 55.79 132.514 55.9989C132.085 56.246 131.402 56.3888 130.935 56.1729C130.432 55.9362 129.992 56.6881 130.498 56.9248C131.357 57.3286 132.476 57.1302 133.231 56.5698C134.004 55.9954 133.848 55.1147 133.138 54.5752C132.383 54.0043 131.125 53.98 130.367 54.5369C129.49 55.1809 129.594 56.3783 130.498 56.9248C130.98 57.2137 131.413 56.4619 130.935 56.1729V56.1695Z" fill="#3A3D42"/>
<path d="M124.086 56.9533C123.366 56.4242 123.75 55.4252 124.71 55.1607C125.811 54.8543 127.308 55.7211 126.788 56.553C126.421 57.1343 124.779 57.4615 124.09 56.9533H124.086Z" fill="white"/>
<path d="M124.394 56.6425C123.958 56.277 124.221 55.8175 124.685 55.6226C125.198 55.4068 125.88 55.5634 126.293 55.922C126.75 56.3188 126.085 56.5729 125.763 56.6703C125.305 56.8061 124.723 56.8479 124.308 56.5764C123.837 56.27 123.404 57.0219 123.871 57.3282C124.654 57.8399 125.752 57.6694 126.552 57.2934C127.394 56.9001 127.54 55.9602 126.906 55.3058C126.203 54.5818 124.955 54.4913 124.1 54.9473C123.223 55.4137 122.998 56.6077 123.781 57.2586C124.207 57.6137 124.824 57.001 124.394 56.6425Z" fill="#3A3D42"/>
<path d="M117.636 56.921C116.919 56.3919 117.3 55.3929 118.26 55.1283C119.362 54.8255 120.858 55.6887 120.335 56.5207C119.968 57.102 118.326 57.4292 117.636 56.921Z" fill="white"/>
<path d="M117.941 56.6152C117.505 56.2497 117.771 55.7902 118.232 55.5953C118.745 55.3794 119.427 55.5361 119.839 55.8946C120.297 56.2914 119.632 56.5455 119.309 56.643C118.852 56.7788 118.267 56.8205 117.854 56.549C117.383 56.2427 116.95 56.9946 117.418 57.3009C118.201 57.8126 119.299 57.642 120.099 57.2661C120.941 56.8727 121.086 55.9294 120.453 55.2785C119.749 54.5545 118.502 54.464 117.647 54.92C116.774 55.3864 116.545 56.5803 117.328 57.2313C117.754 57.5863 118.371 56.9737 117.941 56.6152Z" fill="#3A3D42"/>
<path d="M103.309 44.9819C100.818 49.34 96.0693 51.6687 91.611 53.43C91.0983 53.6319 91.32 54.4743 91.8396 54.2689C96.5126 52.4206 101.445 49.9875 104.054 45.4205C104.331 44.9332 103.583 44.4946 103.306 44.9819H103.309Z" fill="#3A3D42"/>
<path d="M106.399 45.1265C104.376 48.6874 101.698 51.8272 98.1852 54.0097C97.7106 54.3056 98.1471 55.0574 98.6217 54.7616C102.269 52.499 105.048 49.2652 107.147 45.5651C107.424 45.0777 106.676 44.6391 106.399 45.1265Z" fill="#3A3D42"/>
<path d="M107.892 45.2638C107.518 47.0947 106.835 48.4731 105.675 49.9421C104.306 51.6755 102.855 53.6283 101.033 54.9023C100.579 55.2191 101.009 55.9744 101.469 55.6542C103.52 54.2236 105.103 52.0584 106.641 50.1092C107.763 48.6855 108.363 47.2653 108.726 45.497C108.837 44.9505 108.002 44.7173 107.892 45.2672V45.2638Z" fill="#3A3D42"/>
<path d="M109.173 45.3448C108.716 48.9614 106.582 52.0246 104.576 54.9555C104.257 55.4185 105.009 55.8536 105.324 55.3941C107.441 52.3066 109.561 49.1424 110.042 45.3448C110.112 44.7878 109.246 44.7948 109.176 45.3448H109.173Z" fill="#3A3D42"/>
<path d="M110.902 45.5167C110.688 48.9836 108.879 52.4541 107.279 55.472C107.016 55.9663 107.764 56.4084 108.027 55.9106C109.711 52.736 111.54 49.1577 111.768 45.5167C111.803 44.9562 110.937 44.9597 110.902 45.5167Z" fill="#3A3D42"/>
<path d="M112.388 45.416C112.291 47.5324 111.924 49.6522 111.532 51.7303C111.286 53.0426 110.656 54.3688 110.566 55.6916C110.528 56.252 111.394 56.2485 111.432 55.6916C111.532 54.2296 112.242 52.6701 112.506 51.2082C112.848 49.3007 113.167 47.3514 113.254 45.4125C113.278 44.8521 112.412 44.8521 112.388 45.4125V45.416Z" fill="#3A3D42"/>
<path d="M113.877 45.3813C113.87 48.8273 113.344 52.4057 113.638 55.8343C113.687 56.3878 114.553 56.3948 114.504 55.8343C114.213 52.4057 114.74 48.8273 114.743 45.3813C114.743 44.8208 113.877 44.8208 113.877 45.3813Z" fill="#3A3D42"/>
<path d="M115.845 45.3461C115.886 48.8513 116.354 52.3462 116.662 55.834C116.711 56.3875 117.577 56.3944 117.528 55.834C117.22 52.3462 116.752 48.8513 116.711 45.3461C116.704 44.7857 115.838 44.7857 115.845 45.3461Z" fill="#3A3D42"/>
<path d="M118.153 45.4164C118.288 48.9495 119.008 52.4722 120.041 55.8451C120.203 56.3812 121.042 56.1515 120.875 55.6154C119.864 52.3155 119.15 48.8729 119.019 45.4164C118.998 44.856 118.132 44.856 118.153 45.4164Z" fill="#3A3D42"/>
<path d="M120.311 45.4815C120.546 49.0007 121.838 52.7426 123.394 55.8754C123.643 56.3767 124.391 55.9381 124.142 55.4368C122.673 52.4781 121.399 48.8162 121.177 45.4815C121.139 44.9246 120.273 44.9211 120.311 45.4815Z" fill="#3A3D42"/>
<path d="M122.711 45.4503C123.151 49.2375 124.945 52.5199 126.466 55.9486C126.694 56.4603 127.439 56.0182 127.214 55.51C125.766 52.2415 123.996 49.0634 123.577 45.4503C123.514 44.9003 122.645 44.8933 122.711 45.4503Z" fill="#3A3D42"/>
<path d="M125.129 45.5996C125.684 49.1223 127.759 52.7494 129.785 55.6211C130.104 56.0736 130.855 55.642 130.533 55.1825C128.545 52.3665 126.505 48.8125 125.964 45.3664C125.878 44.8129 125.043 45.0496 125.129 45.5961V45.5996Z" fill="#3A3D42"/>
<path d="M127.242 45.5996C127.824 49.2789 130.561 52.6728 132.84 55.4819C133.193 55.917 133.803 55.2974 133.453 54.8657C131.285 52.1889 128.635 48.8682 128.08 45.3664C127.994 44.8129 127.159 45.0496 127.246 45.5961L127.242 45.5996Z" fill="#3A3D42"/>
<path d="M128.971 45.5989C129.501 47.5969 130.807 49.3339 132.058 50.9385C133.242 52.4597 134.604 54.0644 136.228 55.1295C136.699 55.4358 137.132 54.684 136.665 54.3777C135.217 53.4309 134.042 51.9967 132.951 50.6775C131.68 49.1389 130.329 47.3358 129.806 45.3726C129.66 44.8296 128.826 45.0593 128.971 45.6023V45.5989Z" fill="#3A3D42"/>
<path d="M130.9 45.6307C131.447 47.6043 133.089 49.1986 134.516 50.5735C136.054 52.0564 137.759 53.4731 139.574 54.6114C140.048 54.9107 140.481 54.1554 140.01 53.8595C138.493 52.9057 137.104 51.7431 135.77 50.5492C134.229 49.1707 132.313 47.4616 131.738 45.3974C131.589 44.8579 130.751 45.0877 130.903 45.6272L130.9 45.6307Z" fill="#3A3D42"/>
<path d="M104.771 45.2275C103.111 49.2479 98.4662 52.6697 94.5067 54.3266C93.9975 54.5389 94.2227 55.3813 94.7388 55.1654C98.9892 53.3867 103.784 49.8849 105.609 45.4607C105.824 44.9421 104.986 44.7193 104.774 45.231L104.771 45.2275Z" fill="#3A3D42"/>
<path d="M134.687 48.9916C134.687 48.9916 140.648 51.4978 144.725 52.4411L145.186 51.3516C144.123 51.2576 138.265 48.9533 135.431 48.1875L134.69 48.9916H134.687Z" fill="white"/>
<path d="M134.568 49.4089C137.831 50.7594 141.171 52.03 144.607 52.8584C144.777 52.9002 145.019 52.8375 145.095 52.66C145.248 52.298 145.4 51.9325 145.556 51.5705C145.65 51.3442 145.605 50.9753 145.296 50.93C143.866 50.7316 142.438 50.0737 141.084 49.6003C139.248 48.9598 137.416 48.288 135.542 47.7659C135.396 47.7241 135.223 47.7659 135.119 47.8773C134.873 48.1453 134.624 48.4133 134.378 48.6814C134 49.0921 134.61 49.7082 134.991 49.2975C135.739 48.4864 135.614 48.6779 136.688 49.019C137.8 49.3706 138.902 49.7604 140.007 50.1468C141.631 50.7142 143.353 51.5357 145.068 51.7724C144.981 51.5601 144.895 51.3477 144.808 51.1319C144.694 51.3999 144.579 51.668 144.468 51.9395C144.378 52.2179 144.354 52.2075 144.396 51.9151C144.087 51.8385 143.779 51.755 143.474 51.6714C142.179 51.3164 140.907 50.8813 139.643 50.4357C138.011 49.8614 136.401 49.2348 134.804 48.5735C134.288 48.3611 134.066 49.2035 134.575 49.4123L134.568 49.4089Z" fill="#3A3D42"/>
<path d="M145.332 51.3593C145.592 51.4289 145.782 51.6865 145.796 51.9615C145.81 52.24 145.647 52.5219 145.408 52.6577C145.169 52.7934 144.861 52.7795 144.639 52.6333C144.563 52.5846 144.494 52.5184 144.438 52.4419C144.251 52.1738 144.272 51.77 144.487 51.5125C144.701 51.2549 145.086 51.1679 145.373 51.3106" fill="white"/>
<path d="M145.214 51.7763C145.56 51.8946 145.245 52.4342 144.923 52.2949C144.569 52.1418 144.798 51.5292 145.151 51.6823C145.37 51.7763 145.612 51.7484 145.744 51.5257C145.851 51.3412 145.806 51.0244 145.588 50.9304C145.002 50.6763 144.355 50.8504 144.022 51.4178C143.686 51.9921 143.932 52.7301 144.483 53.0468C145.072 53.3845 145.848 53.0816 146.114 52.476C146.392 51.8459 146.083 51.1567 145.442 50.9374C144.912 50.7564 144.687 51.5953 145.21 51.7763H145.214Z" fill="#3A3D42"/>
<path d="M94.0562 77.5838L96.4707 77.3958L96.6854 58.6617C95.3656 58.519 94.2779 59.3161 94.2952 59.2152L94.0527 67.5936V77.5873L94.0562 77.5838Z" fill="#FFCA17"/>
<path d="M94.0562 78.0192C94.8598 77.9565 95.667 77.8939 96.4706 77.8312C96.7097 77.8138 96.9002 77.6467 96.9036 77.3961C96.9764 71.1514 97.0491 64.9067 97.1184 58.662C97.1184 58.4218 96.921 58.2303 96.6854 58.2269C95.7986 58.2129 95.0815 58.6933 94.2952 58.7803C94.0562 58.8082 93.8691 58.9578 93.8622 59.2154C93.6855 65.3453 93.6197 71.4542 93.6232 77.5875C93.6232 78.148 94.4892 78.148 94.4892 77.5875C94.4892 71.4542 94.5515 65.3453 94.7282 59.2154C94.5827 59.3616 94.4407 59.5043 94.2952 59.6505C95.1474 59.5566 95.7397 59.0832 96.6854 59.0971C96.5399 58.9509 96.3979 58.8082 96.2524 58.662C96.1797 64.9067 96.1069 71.1514 96.0376 77.3961C96.1831 77.2499 96.3251 77.1072 96.4706 76.961C95.667 77.0236 94.8598 77.0863 94.0562 77.1489C93.5019 77.1907 93.4985 78.0609 94.0562 78.0192Z" fill="#3A3D42"/>
<path d="M107.83 77.5838L110.244 77.3958L110.459 58.6617C109.139 58.519 108.051 59.3161 108.069 59.2152L107.826 67.5936V77.5873L107.83 77.5838Z" fill="#FFCA17"/>
<path d="M107.83 78.0192C108.633 77.9565 109.44 77.8939 110.244 77.8312C110.483 77.8138 110.674 77.6467 110.677 77.3961C110.75 71.1514 110.819 64.9067 110.892 58.662C110.892 58.4218 110.694 58.2303 110.459 58.2269C109.572 58.2129 108.855 58.6933 108.069 58.7803C107.83 58.8082 107.643 58.9578 107.636 59.2154C107.459 65.3453 107.393 71.4542 107.397 77.5875C107.397 78.148 108.263 78.148 108.263 77.5875C108.263 71.4542 108.325 65.3453 108.502 59.2154C108.356 59.3616 108.214 59.5043 108.069 59.6505C108.921 59.5566 109.513 59.0832 110.459 59.0971C110.313 58.9509 110.171 58.8082 110.026 58.662C109.953 64.9067 109.884 71.1514 109.811 77.3961C109.957 77.2499 110.099 77.1072 110.244 76.961C109.44 77.0236 108.633 77.0863 107.83 77.1489C107.275 77.1907 107.272 78.0609 107.83 78.0192Z" fill="#3A3D42"/>
<path d="M121.035 77.5838L123.449 77.3958L123.664 58.6617C122.344 58.519 121.256 59.3161 121.274 59.2152L121.031 67.5936V77.5873L121.035 77.5838Z" fill="#FFCA17"/>
<path d="M121.035 78.0192C121.838 77.9565 122.645 77.8939 123.449 77.8312C123.688 77.8138 123.879 77.6467 123.882 77.3961C123.955 71.1514 124.028 64.9067 124.097 58.662C124.097 58.4218 123.899 58.2303 123.664 58.2269C122.777 58.2129 122.06 58.6933 121.274 58.7803C121.035 58.8082 120.848 58.9578 120.841 59.2154C120.664 65.3453 120.598 71.4542 120.602 77.5875C120.602 78.148 121.468 78.148 121.468 77.5875C121.468 71.4542 121.53 65.3453 121.707 59.2154C121.561 59.3616 121.419 59.5043 121.274 59.6505C122.126 59.5566 122.718 59.0832 123.664 59.0971C123.518 58.9509 123.376 58.8082 123.231 58.662C123.158 64.9067 123.085 71.1514 123.016 77.3961C123.162 77.2499 123.304 77.1072 123.449 76.961C122.645 77.0236 121.838 77.0863 121.035 77.1489C120.48 77.1907 120.477 78.0609 121.035 78.0192Z" fill="#3A3D42"/>
<path d="M134.617 77.5838L137.031 77.3958L137.246 58.6617C135.926 58.519 134.838 59.3161 134.856 59.2152L134.613 67.5936V77.5873L134.617 77.5838Z" fill="#FFCA17"/>
<path d="M134.617 78.0192C135.42 77.9565 136.228 77.8939 137.031 77.8312C137.27 77.8138 137.461 77.6467 137.464 77.3961C137.537 71.1514 137.61 64.9067 137.679 58.662C137.679 58.4218 137.482 58.2303 137.246 58.2269C136.359 58.2129 135.642 58.6933 134.856 58.7803C134.617 58.8082 134.43 58.9578 134.423 59.2154C134.246 65.3453 134.18 71.4542 134.184 77.5875C134.184 78.148 135.05 78.148 135.05 77.5875C135.05 71.4542 135.112 65.3453 135.289 59.2154C135.143 59.3616 135.001 59.5043 134.856 59.6505C135.708 59.5566 136.304 59.0832 137.246 59.0971C137.1 58.9509 136.958 58.8082 136.813 58.662C136.74 64.9067 136.667 71.1514 136.598 77.3961C136.744 77.2499 136.886 77.1072 137.031 76.961C136.228 77.0236 135.42 77.0863 134.617 77.1489C134.062 77.1907 134.059 78.0609 134.617 78.0192Z" fill="#3A3D42"/>
<path d="M137.195 59.6827C130.907 59.6827 100.444 59.6827 94.1535 59.6757L94.0635 57.7891C100.441 57.723 130.654 57.6603 137.032 57.5977C137.122 57.5977 137.191 59.6827 137.191 59.6827H137.195Z" fill="white"/>
<path d="M137.194 59.2491C122.846 59.2422 108.501 59.2491 94.1529 59.2422C94.2984 59.3883 94.4404 59.5311 94.5859 59.6773C94.5547 59.0472 94.527 58.4207 94.4958 57.7906C94.3503 57.9368 94.2083 58.0795 94.0628 58.2257C101.711 58.1492 109.364 58.1526 117.012 58.1248C121.387 58.1109 125.766 58.0935 130.141 58.0761C131.745 58.0691 133.345 58.0621 134.949 58.0517C135.542 58.0482 136.13 58.0447 136.723 58.0378C136.979 58.0726 136.951 57.989 136.643 57.7871C136.671 58.0134 136.692 58.2397 136.702 58.4694C136.73 58.8732 136.744 59.2804 136.757 59.6842C136.778 60.2446 137.644 60.2446 137.623 59.6842C137.599 59.0159 137.707 58.1109 137.447 57.4843C137.371 57.3033 137.239 57.1641 137.028 57.1641C122.704 57.3068 108.38 57.2163 94.0593 57.3555C93.8307 57.3555 93.6159 57.5504 93.6263 57.7906C93.6575 58.4207 93.6852 59.0472 93.7164 59.6773C93.7268 59.914 93.9035 60.1124 94.1494 60.1124C108.498 60.1228 122.842 60.1124 137.19 60.1193C137.748 60.1193 137.748 59.2491 137.19 59.2491H137.194Z" fill="#3A3D42"/>
<path d="M106.395 74.0197C106.343 74.0441 100.212 74.0267 98.6354 73.7134C98.5141 73.689 98.379 73.6577 98.3028 73.5568C98.2405 73.4732 98.2266 73.3653 98.2197 73.2609C98.0499 71.2837 98.1677 65.7143 98.1816 63.7267C98.1816 63.6014 98.1885 63.4657 98.2716 63.3752C98.3686 63.2673 98.5349 63.2603 98.6804 63.2638C100.139 63.2882 104.424 63.2011 105.882 63.222C106.062 63.222 106.263 63.2394 106.381 63.3752C106.468 63.4761 106.485 63.6223 106.495 63.7546C106.575 64.6944 106.419 73.2052 106.398 74.0197H106.395Z" fill="#D1D1D1"/>
<path d="M106.396 73.585C105.46 73.6616 98.6951 73.8426 98.6327 73.0071C98.5046 71.2876 98.5565 69.5437 98.5669 67.8206C98.5738 66.8564 98.5877 65.8922 98.5981 64.928C98.612 63.9046 98.4976 63.7027 99.5576 63.7027C101.373 63.7027 103.185 63.661 105 63.654C105.492 63.654 106.056 63.4939 106.074 64.1239C106.087 64.7052 106.08 65.29 106.08 65.8748C106.07 68.5899 106.032 71.3085 105.963 74.0201C105.949 74.5805 106.815 74.5805 106.829 74.0201C106.912 70.7863 106.981 67.5422 106.943 64.3049C106.926 62.6898 106.032 62.7803 104.636 62.7873C103.476 62.7907 102.319 62.8082 101.158 62.8221C100.306 62.8325 99.1697 62.6306 98.3418 62.8604C97.2298 63.1667 97.7182 66.1115 97.7113 66.933C97.6974 68.12 97.694 69.307 97.7009 70.4974C97.7044 71.3816 97.5589 72.5233 97.8048 73.3796C98.172 74.6745 100.694 74.3473 101.726 74.3891C103.261 74.4482 104.868 74.5805 106.403 74.4552C106.957 74.4099 106.96 73.5397 106.403 73.585H106.396Z" fill="#3A3D42"/>
<path d="M119.992 74.0197C119.94 74.0441 113.808 74.0267 112.232 73.7134C112.107 73.689 111.976 73.6577 111.899 73.5568C111.837 73.4732 111.823 73.3653 111.816 73.2609C111.647 71.2837 111.764 65.7143 111.778 63.7267C111.778 63.6014 111.785 63.4657 111.868 63.3752C111.965 63.2673 112.132 63.2603 112.277 63.2638C113.735 63.2882 118.02 63.2011 119.479 63.222C119.659 63.222 119.86 63.2394 119.978 63.3752C120.064 63.4761 120.082 63.6223 120.092 63.7546C120.172 64.6944 120.019 73.2052 119.995 74.0197H119.992Z" fill="#D1D1D1"/>
<path d="M119.992 73.585C119.057 73.6616 112.291 73.8426 112.229 73.0071C112.101 71.2876 112.153 69.5437 112.163 67.8206C112.17 66.8564 112.184 65.8922 112.194 64.928C112.208 63.9046 112.094 63.7027 113.154 63.7027C114.969 63.7027 116.781 63.661 118.596 63.654C119.088 63.654 119.652 63.4939 119.67 64.1239C119.687 64.7052 119.677 65.29 119.677 65.8748C119.666 68.5899 119.628 71.3085 119.559 74.0201C119.545 74.5805 120.411 74.5805 120.425 74.0201C120.508 70.7863 120.577 67.5422 120.539 64.3049C120.522 62.6898 119.628 62.7803 118.232 62.7873C117.072 62.7907 115.915 62.8082 114.754 62.8221C113.902 62.8325 112.766 62.6306 111.938 62.8604C110.826 63.1667 111.314 66.1115 111.304 66.933C111.29 68.12 111.287 69.307 111.294 70.4974C111.297 71.3781 111.152 72.5233 111.398 73.3796C111.768 74.6745 114.287 74.3473 115.319 74.3891C116.854 74.4482 118.461 74.5805 119.992 74.4552C120.546 74.4099 120.55 73.5397 119.992 73.585Z" fill="#3A3D42"/>
<path d="M133.46 74.0197C133.408 74.0441 127.277 74.0267 125.701 73.7134C125.58 73.689 125.444 73.6577 125.368 73.5568C125.306 73.4732 125.292 73.3653 125.285 73.2609C125.115 71.2837 125.233 65.7143 125.247 63.7267C125.247 63.6014 125.254 63.4657 125.337 63.3752C125.434 63.2673 125.6 63.2603 125.746 63.2638C127.204 63.2882 131.489 63.2011 132.948 63.222C133.128 63.222 133.329 63.2394 133.446 63.3752C133.533 63.4761 133.55 63.6223 133.561 63.7546C133.64 64.6944 133.485 73.2052 133.464 74.0197H133.46Z" fill="#D1D1D1"/>
<path d="M133.46 73.585C132.525 73.6616 125.76 73.8426 125.697 73.0071C125.569 71.2876 125.621 69.5437 125.631 67.8206C125.638 66.8564 125.652 65.8922 125.663 64.928C125.676 63.9046 125.562 63.7027 126.622 63.7027C128.437 63.7027 130.249 63.661 132.064 63.654C132.556 63.654 133.121 63.4939 133.138 64.1239C133.152 64.7052 133.145 65.29 133.145 65.8748C133.135 68.5899 133.096 71.3085 133.027 74.0201C133.013 74.5805 133.879 74.5805 133.893 74.0201C133.976 70.7863 134.046 67.5422 134.007 64.3049C133.99 62.6898 133.096 62.7803 131.7 62.7873C130.54 62.7907 129.383 62.8082 128.223 62.8221C127.37 62.8325 126.234 62.6306 125.406 62.8604C124.294 63.1667 124.783 66.1115 124.776 66.933C124.762 68.12 124.758 69.307 124.765 70.4974C124.769 71.3816 124.623 72.5233 124.869 73.3796C125.236 74.6745 127.758 74.3473 128.791 74.3891C130.325 74.4482 131.933 74.5805 133.467 74.4552C134.021 74.4099 134.025 73.5397 133.467 73.585H133.46Z" fill="#3A3D42"/>
<path d="M101.778 63.1977C101.771 66.7516 101.764 70.3056 101.761 73.8596C101.761 74.42 102.627 74.42 102.627 73.8596C102.634 70.3056 102.641 66.7516 102.644 63.1977C102.644 62.6372 101.778 62.6372 101.778 63.1977Z" fill="#3A3D42"/>
<path d="M115.475 63.2445C115.506 66.7846 115.561 70.3247 115.523 73.8647C115.516 74.4251 116.382 74.4251 116.389 73.8647C116.427 70.3247 116.368 66.7846 116.341 63.2445C116.337 62.6841 115.471 62.6841 115.475 63.2445Z" fill="#3A3D42"/>
<path d="M129.151 63.1977C129.262 66.7029 129.12 70.2186 129.151 73.7169C129.155 74.2773 130.021 74.2773 130.017 73.7169C129.986 70.2151 130.128 66.6994 130.017 63.1977C130 62.6372 129.134 62.6372 129.151 63.1977Z" fill="#3A3D42"/>
<path d="M88.0112 71.7866C86.9201 71.7866 85.8393 71.7866 84.755 71.6996C84.2458 71.6578 83.1234 71.5046 82.9779 72.2078C82.8428 72.8726 82.4791 79.5455 82.9641 79.5977C83.74 79.6777 147.884 79.8135 148.338 79.6917C148.338 79.6917 148.795 72.1521 148.314 71.898C148.012 71.7413 147.763 71.8214 147.368 71.7866C144.922 71.5046 90.4534 71.7866 88.0078 71.7866H88.0112Z" fill="white"/>
<path d="M88.0113 71.3512C86.5703 71.3512 84.2008 70.7212 82.9053 71.5461C82.3095 71.9255 82.4376 73.2901 82.403 73.8644C82.3164 75.2463 82.2713 76.6317 82.2921 78.0136C82.2991 78.5427 82.1951 79.6427 82.7459 79.9734C83.1304 80.2066 83.9722 80.0499 84.3879 80.0534C85.7181 80.0639 87.0518 80.0708 88.382 80.0778C98.5594 80.1265 108.737 80.1439 118.914 80.1613C125.676 80.1718 132.438 80.1787 139.2 80.1752C141.413 80.1752 143.63 80.1718 145.844 80.1613C146.686 80.1578 147.621 80.2623 148.452 80.1126C148.646 80.0778 148.761 79.8724 148.771 79.6949C148.903 77.5228 149.017 75.3368 148.951 73.1578C148.903 71.5252 148.418 71.386 146.866 71.3234C143.717 71.198 140.554 71.2433 137.405 71.2363C126.071 71.2085 114.737 71.2537 103.402 71.2955C98.2719 71.3129 93.1416 71.3547 88.0078 71.3547C87.4501 71.3547 87.4501 72.2249 88.0078 72.2249C106.333 72.2179 124.661 71.9882 142.986 72.1309C144.223 72.1414 145.459 72.1483 146.696 72.1866C146.883 72.1936 147.995 72.2249 148.006 72.2528C148.321 73.4119 148.102 74.8808 148.068 76.0643C148.037 77.1712 147.985 78.2782 147.922 79.3851C147.895 79.8933 148.657 79.2563 147.992 79.2702C147.074 79.2876 146.152 79.2876 145.231 79.2911C135.76 79.3329 126.289 79.3015 116.818 79.2876C107.916 79.2737 99.0097 79.2528 90.1071 79.2145C87.897 79.2041 85.6835 79.2006 83.4734 79.1727C83.3106 79.1727 83.1512 79.1727 82.9884 79.1623C83.4041 79.1797 83.2136 79.124 83.1755 78.5775C83.1339 77.944 83.1478 77.3035 83.1547 76.67C83.172 75.4517 83.2309 74.2334 83.321 73.0185C83.3729 72.3154 83.6466 72.0648 84.4502 72.1031C85.6384 72.1622 86.8127 72.2145 88.0044 72.2179C88.5621 72.2179 88.5621 71.3477 88.0044 71.3477L88.0113 71.3512Z" fill="#3A3D42"/>
<path d="M125.354 72.0112C125.281 72.6412 125.122 73.6019 125.361 74.2076C125.558 74.7054 125.843 74.7088 126.355 74.7297C127.239 74.7645 128.125 74.7471 129.012 74.7088C129.518 74.688 130.505 74.7854 130.921 74.3921C131.551 73.8003 131.44 72.3418 130.928 71.7048C130.633 71.3359 129.587 71.5134 129.206 71.503C128.15 71.4786 127.097 71.4542 126.04 71.4299C125.482 71.4159 125.482 72.2862 126.04 72.3001C126.833 72.3175 127.623 72.3349 128.416 72.3558C128.811 72.3662 129.21 72.3732 129.605 72.3836C129.861 72.3732 130.114 72.3941 130.367 72.4498C130.408 72.7213 130.429 72.9928 130.432 73.2678C130.46 74.0649 129.213 73.8282 128.635 73.856C127.817 73.8908 126.75 74.037 125.957 73.8247C126.057 73.9256 126.158 74.0266 126.258 74.1275C126.012 73.5079 126.147 72.6516 126.224 72.0112C126.286 71.4542 125.42 71.4612 125.358 72.0112H125.354Z" fill="#3A3D42"/>
<path d="M82.3404 73.7416C82.2677 74.3717 82.1083 75.3324 82.3474 75.9381C82.5448 76.4358 82.8289 76.4393 83.3416 76.4602C84.2249 76.495 85.1117 76.4776 85.995 76.4393C86.5008 76.4184 87.488 76.5124 87.9037 76.1226C88.5342 75.5308 88.4233 74.0723 87.9107 73.4318C87.6162 73.0663 86.5701 73.2404 86.189 73.2334C85.1325 73.2091 84.0794 73.1847 83.0229 73.1603C82.4651 73.1464 82.4651 74.0166 83.0229 74.0305C83.8161 74.0479 84.6059 74.0654 85.3992 74.0862C85.7941 74.0967 86.1925 74.1036 86.5874 74.1141C86.8437 74.1036 87.0966 74.1245 87.3495 74.1802C87.391 74.4517 87.4153 74.7232 87.4153 74.9982C87.443 75.7954 86.1959 75.5587 85.6174 75.5865C84.8034 75.6213 83.733 75.771 82.9397 75.5552L83.2411 75.858C82.9951 75.2384 83.1302 74.3821 83.2065 73.7416C83.2723 73.1847 82.4028 73.1916 82.3404 73.7416Z" fill="#3A3D42"/>
<path d="M90.107 75.8393C90.0343 76.4693 89.8749 77.4301 90.114 78.0357C90.3114 78.5335 90.5955 78.537 91.1082 78.5579C91.9915 78.5927 92.8783 78.5753 93.7651 78.537C94.2708 78.5161 95.2581 78.6136 95.6738 78.2202C96.3043 77.6285 96.1934 76.17 95.6807 75.533C95.3863 75.164 94.3401 75.3415 93.9591 75.3311C92.9025 75.3067 91.8495 75.2823 90.7929 75.258C90.2352 75.2441 90.2352 76.1143 90.7929 76.1282C91.5862 76.1456 92.376 76.163 93.1693 76.1839C93.5642 76.1943 93.9625 76.2013 94.3575 76.2117C94.6138 76.2013 94.8667 76.2222 95.1195 76.2779C95.1611 76.5494 95.1854 76.8209 95.1854 77.0959C95.2131 77.893 93.966 77.6563 93.3875 77.6842C92.57 77.719 91.5031 77.8652 90.7098 77.6528L91.0112 77.9557C90.7652 77.3361 90.9003 76.4798 90.9765 75.8393C91.0389 75.2823 90.1729 75.2893 90.1105 75.8393H90.107Z" fill="#3A3D42"/>
<path d="M93.7516 73.3315C93.6788 73.9615 93.5195 74.9222 93.7585 75.5279C93.9559 76.0257 94.24 76.0292 94.7527 76.05C95.636 76.0849 96.5228 76.0674 97.4096 76.0292C97.9154 76.0083 98.9026 76.1057 99.3183 75.7124C99.9453 75.1206 99.8379 73.6622 99.3253 73.0252C99.0308 72.6562 97.9847 72.8337 97.6036 72.8233C96.5471 72.7989 95.494 72.7745 94.4375 72.7502C93.8797 72.7362 93.8797 73.6065 94.4375 73.6204C95.2307 73.6378 96.0205 73.6552 96.8138 73.6761C97.2087 73.6865 97.6071 73.6935 98.002 73.7039C98.2583 73.6935 98.5112 73.7144 98.7641 73.7701C98.8056 74.0416 98.8299 74.3131 98.8299 74.5881C98.8576 75.3852 97.6105 75.1485 97.032 75.1763C96.2145 75.2112 95.1511 75.3573 94.3543 75.145L94.6557 75.4479C94.4097 74.8283 94.5448 73.972 94.621 73.3315C94.6834 72.7745 93.8174 72.7815 93.755 73.3315H93.7516Z" fill="#3A3D42"/>
<path d="M139.588 73.3315C139.515 73.9615 139.355 74.9222 139.594 75.5279C139.792 76.0292 140.076 76.0292 140.589 76.05C141.472 76.0849 142.359 76.0674 143.242 76.0292C143.748 76.0083 144.735 76.1023 145.151 75.7124C145.781 75.1241 145.67 73.6622 145.158 73.0252C144.863 72.6562 143.817 72.8337 143.436 72.8233C142.38 72.7989 141.326 72.7745 140.27 72.7502C139.712 72.7362 139.712 73.6065 140.27 73.6204C141.063 73.6378 141.853 73.6552 142.646 73.6761C143.041 73.6865 143.44 73.6935 143.834 73.7039C144.091 73.6935 144.344 73.7144 144.597 73.7701C144.638 74.0416 144.662 74.3131 144.662 74.5881C144.69 75.3852 143.443 75.1485 142.865 75.1763C142.047 75.2112 140.984 75.3573 140.187 75.145L140.488 75.4479C140.242 74.8283 140.377 73.972 140.454 73.3315C140.516 72.7745 139.65 72.7815 139.588 73.3315Z" fill="#3A3D42"/>
<path d="M131.749 74.9643C131.676 75.5943 131.517 76.555 131.756 77.1607C131.953 77.6585 132.237 77.662 132.75 77.6829C133.633 77.7177 134.52 77.7003 135.407 77.662C135.912 77.6411 136.9 77.7351 137.315 77.3452C137.946 76.7535 137.835 75.295 137.322 74.6545C137.028 74.2855 135.982 74.463 135.601 74.4561C134.544 74.4317 133.491 74.4073 132.435 74.383C131.877 74.3691 131.877 75.2393 132.435 75.2532C133.228 75.2706 134.018 75.288 134.811 75.3089C135.206 75.3193 135.604 75.3263 135.999 75.3367C136.255 75.3263 136.508 75.3472 136.761 75.4029C136.803 75.6744 136.827 75.9459 136.827 76.2209C136.855 77.018 135.608 76.7848 135.029 76.8092C134.212 76.844 133.145 76.9902 132.351 76.7778L132.653 77.0807C132.407 76.4611 132.542 75.6048 132.618 74.9643C132.68 74.4073 131.814 74.4143 131.752 74.9643H131.749Z" fill="#3A3D42"/>
<path d="M87.7762 70.7006C86.685 70.7006 85.6042 70.7006 84.5199 70.6136C84.0107 70.5719 82.8884 70.4187 82.7429 71.1218C82.6078 71.7867 83.5292 71.9607 84.0142 72.0129C84.7901 72.093 147.431 72.2288 147.885 72.1069C148.868 71.644 148.56 71.0661 148.079 70.812C147.777 70.6519 147.528 70.7355 147.133 70.7006C144.687 70.4187 90.2183 70.7006 87.7727 70.7006H87.7762Z" fill="white"/>
<path d="M87.7757 70.2653C86.3347 70.2653 83.9653 69.6352 82.6697 70.4602C81.8487 70.9823 82.4792 72.0962 83.2032 72.2877C83.9272 72.4791 84.6096 72.4617 85.3509 72.4687C88.6799 72.4965 92.0054 72.507 95.3343 72.5174C106.333 72.5557 117.335 72.5766 128.333 72.587C132.923 72.5905 137.513 72.594 142.103 72.587C143.984 72.5835 146.131 72.8655 147.995 72.5278C148.861 72.3712 149.145 71.4244 148.716 70.7804C148.317 70.1852 147.475 70.2792 146.852 70.2444C145.809 70.1887 144.76 70.1922 143.717 70.1817C139.293 70.1365 134.866 70.14 130.443 70.14C116.223 70.14 101.999 70.2583 87.7792 70.2653C87.2215 70.2653 87.2215 71.1355 87.7792 71.1355C106.104 71.1285 124.432 70.8988 142.757 71.0415C143.994 71.0519 145.231 71.0589 146.467 71.0972C147.067 71.1146 148.535 71.6681 147.268 71.6889C144.379 71.7307 141.49 71.7168 138.604 71.7203C127.772 71.7272 116.936 71.7064 106.104 71.682C100.717 71.6681 95.3343 71.6541 89.9477 71.6298C88.382 71.6228 86.8127 71.6158 85.247 71.6019C84.8971 71.6019 84.5472 71.595 84.1974 71.588C84.0588 71.588 83.9445 71.5706 83.799 71.5497C83.6777 71.0624 83.8163 70.8849 84.2216 71.0241C84.5368 71.0519 84.8521 71.0763 85.1708 71.0937C86.0368 71.1529 86.9097 71.1355 87.7757 71.139C88.3335 71.139 88.3335 70.2687 87.7757 70.2687V70.2653Z" fill="#3A3D42"/>
<path d="M63.5863 72.4094C63.0217 72.3711 61.785 72.2284 61.4732 72.8828C61.1753 73.4989 62.1764 73.6625 62.7133 73.7112C63.5724 73.7843 67.7917 73.7425 68.3286 73.6277C69.541 73.1995 69.3159 72.66 68.8274 72.4233C68.5226 72.2771 68.2247 72.3537 67.7847 72.3189C65.0897 72.0578 64.7849 72.4929 63.5863 72.4094Z" fill="white"/>
<path d="M63.5864 71.9747C62.8832 71.9225 61.8786 71.8076 61.3243 72.3645C60.7805 72.911 60.9814 73.5202 61.5633 73.8857C62.1384 74.2477 63.0875 74.1676 63.7388 74.1781C64.8958 74.1955 66.0562 74.1781 67.2132 74.1398C68.1485 74.1085 70.5699 73.5863 69.3263 72.2357C68.734 71.5918 67.0955 71.8215 66.3507 71.8006C65.4223 71.7763 64.5147 72.013 63.5864 71.9747C63.0286 71.9503 63.0286 72.8205 63.5864 72.8449C64.39 72.8797 65.1833 72.7057 65.9835 72.6743C66.7179 72.6465 67.4488 72.7474 68.1832 72.7648C69.0908 72.7857 68.1832 73.2173 67.9199 73.2347C67.6844 73.2522 67.4453 73.2591 67.2098 73.2696C66.0528 73.3148 64.8923 73.3183 63.7353 73.3078C63.3924 73.3078 63.0529 73.2974 62.71 73.273C61.9098 73.2173 62.1037 72.8344 62.7481 72.7996C63.0252 72.7857 63.3058 72.8205 63.5829 72.8414C64.1406 72.8832 64.1371 72.013 63.5829 71.9712L63.5864 71.9747Z" fill="#3A3D42"/>
<path d="M162.686 72.6091C162.121 72.5708 160.885 72.4281 160.573 73.0825C160.278 73.6986 161.276 73.8622 161.813 73.9109C162.672 73.984 166.891 73.9422 167.428 73.8274C168.641 73.3992 168.415 72.8597 167.927 72.623C167.622 72.4768 167.324 72.5534 166.884 72.5186C164.189 72.2575 163.884 72.6891 162.682 72.6056L162.686 72.6091Z" fill="white"/>
<path d="M162.686 72.1733C161.983 72.1211 160.978 72.0062 160.424 72.5667C159.88 73.1132 160.081 73.7223 160.663 74.0878C161.238 74.4498 162.187 74.3698 162.838 74.3802C163.995 74.3976 165.156 74.3802 166.313 74.3419C167.248 74.3106 169.67 73.7884 168.426 72.4379C167.834 71.7974 166.195 72.0236 165.45 72.0028C164.522 71.9784 163.614 72.2151 162.686 72.1768C162.128 72.1524 162.128 73.0227 162.686 73.047C163.49 73.0818 164.283 72.9078 165.087 72.8765C165.821 72.8486 166.552 72.9496 167.286 72.967C168.194 72.9878 167.286 73.4195 167.023 73.4369C166.787 73.4543 166.548 73.4612 166.313 73.4717C165.156 73.5169 163.995 73.5204 162.838 73.51C162.495 73.51 162.156 73.4995 161.813 73.4752C161.013 73.4195 161.207 73.0366 161.851 73.0018C162.128 72.9878 162.409 73.0227 162.686 73.0435C163.244 73.0853 163.24 72.2151 162.686 72.1733Z" fill="#3A3D42"/>
<path d="M85.5792 78.827C105.865 79.2482 127.304 77.6818 147.499 79.1124C148.178 80.4073 156.229 93.4119 160.521 102.563C127.584 102.25 104.271 102.358 71.335 102.048C75.8001 93.6312 77.9964 87.9817 83.0678 79.92L83.6047 79.4919C84.1659 79.0428 84.8621 78.8096 85.5792 78.8235V78.827Z" fill="white"/>
<path d="M108.325 102.02C107.92 97.7837 107.836 97.8777 108.294 93.6449C108.519 91.5599 109.018 89.3808 110.961 87.71C112.908 86.0357 115.928 84.8418 119.531 86.1506C122.288 87.1531 122.905 91.6156 123.255 93.6484L123.764 102.023" fill="#FFCA17"/>
<path d="M108.758 102.019C108.397 98.3156 108.144 94.4797 109.312 90.8735C110.86 86.0977 118.935 83.7969 121.526 88.7815C123.508 92.5931 123.082 97.8596 123.334 102.019C123.369 102.576 124.235 102.58 124.2 102.019C124.045 99.4887 123.892 96.9616 123.736 94.431C123.577 91.8099 122.998 87.9809 120.726 86.3275C117.366 83.8839 111.685 85.3389 109.457 88.7188C106.981 92.4782 107.476 97.7482 107.892 102.016C107.944 102.569 108.813 102.573 108.758 102.016V102.019Z" fill="#3A3D42"/>
<path d="M75.5307 94.546C76.4763 94.546 77.4255 94.546 78.3712 94.546C78.2326 94.4381 78.0941 94.3337 77.952 94.2258C78.0698 94.8767 78.1426 95.5241 78.1807 96.1855C78.1911 96.464 78.1945 96.7424 78.1876 97.0209C78.1841 97.543 77.8135 97.3307 77.3701 97.3342C75.9983 97.3516 74.6265 97.369 73.2548 97.3899C72.9846 97.3934 72.749 97.6649 72.8356 97.9399C72.8668 98.0338 72.8945 98.1243 72.9257 98.2149C73.0954 98.7474 73.9337 98.5212 73.7605 97.9851C73.7293 97.8911 73.7016 97.8006 73.6705 97.7101C73.5319 97.8946 73.3933 98.0756 73.2513 98.2601C74.2108 98.2462 75.1704 98.2357 76.1299 98.2218C76.7327 98.2149 78.101 98.4724 78.6171 98.1104C79.0398 97.8146 79.0294 97.5326 79.0467 97.0209C79.0848 96.008 78.9601 94.9916 78.7834 93.996C78.7488 93.8081 78.5444 93.6758 78.3643 93.6758C77.4186 93.6758 76.4694 93.6758 75.5237 93.6758C74.966 93.6758 74.966 94.546 75.5237 94.546H75.5307Z" fill="#3A3D42"/>
<path d="M80.4048 85.8009C80.3667 86.9008 80.3563 88.0008 80.3701 89.1008C80.3736 89.3409 80.5641 89.5324 80.8031 89.5359C83.1448 89.5707 85.4865 89.602 87.8283 89.6368C89.0268 89.6542 89.3524 89.428 89.3282 88.1957C89.3109 87.2698 89.2277 85.7487 88.1885 85.4806C87.2324 85.2335 85.9403 85.4424 84.9496 85.4319C83.6991 85.418 82.452 85.4075 81.2015 85.3936C80.6438 85.3867 80.6438 86.2569 81.2015 86.2638C82.452 86.2778 83.6991 86.2882 84.9496 86.3021C85.5731 86.3091 86.2001 86.3161 86.8237 86.3195C88.2024 86.3335 88.3479 86.9565 88.4622 88.1923C88.5453 89.0764 87.8594 88.7631 87.1874 88.7527C86.55 88.7422 85.9092 88.7353 85.2718 88.7248C83.7822 88.7039 82.2892 88.6831 80.7997 88.6622C80.9452 88.8084 81.0872 88.9511 81.2327 89.0973C81.2153 87.9973 81.2257 86.8974 81.2673 85.7974C81.2881 85.237 80.4221 85.237 80.4013 85.7974L80.4048 85.8009Z" fill="#3A3D42"/>
<path d="M81.9389 82.3149C82.507 82.381 83.0786 82.4436 83.6467 82.5098C84.3465 82.5898 85.1501 82.5794 85.8187 82.8091C85.7182 82.7082 85.6178 82.6072 85.5173 82.5063C85.836 83.3696 85.784 84.4834 85.8152 85.3954C85.836 85.9559 86.702 85.9559 86.6812 85.3954C86.6535 84.6749 86.605 83.9578 86.5288 83.2373C86.4942 82.8892 86.5115 82.2278 86.1547 82.0155C85.6559 81.7231 84.8868 81.7823 84.3326 81.7161C83.5359 81.6256 82.7391 81.5351 81.9424 81.4446C81.3881 81.382 81.3951 82.2522 81.9424 82.3149H81.9389Z" fill="#3A3D42"/>
<path d="M80.0956 86.3428C80.3554 86.3011 80.6186 86.3011 80.8784 86.3254C81.114 86.3463 81.3115 86.1096 81.3115 85.8903C81.3115 85.6362 81.114 85.4761 80.8784 85.4552C80.5355 85.4239 80.203 85.4483 79.8635 85.504C79.6314 85.5422 79.5032 85.8277 79.5621 86.04C79.6279 86.2872 79.8635 86.3811 80.0956 86.3428Z" fill="#3A3D42"/>
<path d="M127.55 90.2718C127.443 91.2151 127.19 92.6736 127.55 93.5821C127.81 94.233 128.17 94.1843 128.853 94.2121C130.21 94.2643 131.568 94.24 132.926 94.1808C133.612 94.1529 135.119 94.3026 135.691 93.7666C136.56 92.952 136.411 90.8531 135.704 89.9689C135.313 89.4781 133.733 89.7427 133.228 89.7287C131.61 89.6905 129.989 89.6556 128.371 89.6174C127.813 89.6034 127.813 90.4737 128.371 90.4876C129.788 90.5189 131.205 90.5537 132.621 90.585C132.978 90.592 135.109 90.4354 135.226 90.8879C135.348 91.3474 135.618 92.9172 134.925 93.1609C133.553 93.6447 131.461 93.3732 130.016 93.3697C129.133 93.3697 128.378 93.4916 128.309 92.4055C128.264 91.6954 128.329 90.9819 128.413 90.2752C128.475 89.7183 127.609 89.7253 127.547 90.2752L127.55 90.2718Z" fill="#3A3D42"/>
<path d="M149.447 82.8758C148.571 82.8305 147.694 82.8062 146.814 82.7992C146.229 82.7957 145.342 82.6391 144.795 82.9036C143.866 83.3492 144.216 84.9191 144.265 85.7301C144.313 86.576 144.466 87.1538 145.387 87.2164C147.448 87.3592 149.568 87.2164 151.633 87.2164C152.191 87.2164 152.191 86.3462 151.633 86.3462H148.508C147.989 86.3462 147.469 86.3462 146.946 86.3462C146.267 86.3462 145.214 86.6943 145.127 85.7301C145.086 85.2532 145.086 84.7729 145.089 84.296C145.089 83.6311 145.103 83.6938 145.758 83.6764C146.988 83.645 148.217 83.6764 149.444 83.7425C150.001 83.7704 149.998 82.9001 149.444 82.8723L149.447 82.8758Z" fill="#3A3D42"/>
<path d="M146.998 87.1078C146.991 87.9537 146.537 89.8925 147.694 90.2128C148.401 90.4077 149.301 90.2754 150.029 90.2859C151.134 90.2998 152.235 90.3172 153.34 90.3311C153.898 90.3381 153.898 89.4679 153.34 89.4609C152.079 89.4435 150.819 89.4261 149.558 89.4087C149.277 89.4052 147.878 89.5967 147.85 89.1163C147.812 88.4514 147.86 87.7727 147.867 87.1078C147.871 86.5474 147.005 86.5474 147.001 87.1078H146.998Z" fill="#3A3D42"/>
<path d="M147.867 97.9232C147.718 98.8769 147.032 101.408 148.549 101.529C149.858 101.634 151.168 101.724 152.481 101.742C153.413 101.752 154.632 101.867 155.467 101.376C156.236 100.924 156.139 98.2782 155.588 97.7248C155.075 97.2096 153.534 97.5055 152.886 97.4881C151.421 97.4567 149.959 97.4324 148.494 97.4115C148.532 97.6969 148.57 97.9823 148.608 98.2678C148.746 98.2399 148.889 98.2156 149.027 98.1877C149.574 98.0833 149.342 97.2444 148.798 97.3488C148.66 97.3767 148.518 97.401 148.379 97.4289C147.887 97.5229 148.019 98.2782 148.494 98.2852C149.775 98.3026 151.057 98.3235 152.339 98.3513C152.886 98.3618 153.437 98.3757 153.984 98.3896C155.055 98.414 155.065 99.2215 155.03 100.092C154.978 101.317 151.49 100.861 150.794 100.826C150.233 100.798 149.671 100.753 149.11 100.711C148.109 100.635 148.629 98.6263 148.701 98.1633C148.788 97.6134 147.953 97.3801 147.867 97.9336V97.9232Z" fill="#3A3D42"/>
<path d="M155.696 94.1933C154.265 94.1028 152.758 94.0749 151.341 94.3325C150.16 94.5449 150.351 96.2261 150.427 97.1172C150.475 97.6707 151.341 97.6777 151.293 97.1172C151.251 96.6334 151.251 96.1704 151.286 95.6866C151.341 94.9834 152.429 95.0809 152.865 95.0496C153.808 94.9834 154.753 95.0043 155.696 95.0635C156.253 95.0983 156.25 94.2281 155.696 94.1933Z" fill="#3A3D42"/>
<path d="M155.689 98.1883C156.444 98.251 157.199 98.2614 157.958 98.2162C158.512 98.1849 158.516 97.3146 157.958 97.346C157.199 97.3912 156.448 97.3808 155.689 97.3181C155.131 97.2729 155.138 98.1431 155.689 98.1883Z" fill="#3A3D42"/>
<path d="M85.5797 79.2656C102.883 79.6136 120.193 79.1576 137.496 79.3421C139.484 79.363 141.469 79.3978 143.457 79.4396C144.258 79.457 147.011 79.1402 147.33 79.6972C148.352 81.4794 149.426 83.2338 150.469 85.002C153.891 90.8151 157.269 96.6839 160.151 102.786C160.275 102.567 160.4 102.351 160.525 102.131C130.796 101.853 101.068 101.895 71.3389 101.616C71.4636 101.836 71.5883 102.051 71.713 102.271C73.7915 98.3373 75.714 94.3239 77.7163 90.3487C78.6377 88.5247 79.5938 86.7216 80.5914 84.9359C81.7173 82.917 82.9332 79.4361 85.5832 79.2621C86.1374 79.2273 86.1409 78.3536 85.5832 78.3918C83.82 78.5067 82.8916 79.3804 82.0082 80.8145C80.5707 83.1467 79.237 85.5416 77.9657 87.9678C75.5616 92.5521 73.3827 97.2513 70.9648 101.832C70.8124 102.121 70.9994 102.483 71.3389 102.487C101.068 102.765 130.796 102.72 160.525 103.002C160.875 103.002 161.034 102.636 160.899 102.347C157.958 96.1165 154.497 90.1364 151.009 84.2049C150.015 82.5167 148.993 80.8424 148.016 79.1437C147.569 78.364 146.596 78.6529 145.785 78.6285C143.627 78.5659 141.469 78.5241 139.307 78.4928C121.398 78.2282 103.489 78.7539 85.5797 78.3953C85.022 78.3849 85.022 79.2551 85.5797 79.2656Z" fill="#3A3D42"/>
</g>
<defs>
<clipPath id="clip0_82_1854">
<rect width="118" height="60" fill="white" transform="translate(56 43)"/>
</clipPath>
</defs>
</svg>
