<svg width="230" height="146" viewBox="0 0 230 146" fill="none" xmlns="http://www.w3.org/2000/svg">
<rect width="230" height="146" rx="8" fill="white"/>
<g clip-path="url(#clip0_82_2064)">
<path d="M118.839 46.5H140.042C140.846 46.5 141.498 47.1516 141.498 47.9555V69.1586C141.498 69.9624 140.846 70.6141 140.042 70.6141H118.839C118.035 70.6141 117.384 69.9624 117.384 69.1586V47.9555C117.384 47.1516 118.035 46.5 118.839 46.5Z" fill="#FFCA17" stroke="#3A3D42"/>
<path d="M135.76 59.5302H123.123C122.587 59.5302 122.151 59.0956 122.151 58.558C122.151 58.0214 122.586 57.5859 123.123 57.5859H135.76C136.297 57.5859 136.732 58.0205 136.732 58.558C136.732 59.0947 136.298 59.5302 135.76 59.5302Z" fill="white" stroke="#3A3D42"/>
<path d="M89.9555 46.5H111.159C111.962 46.5 112.614 47.1516 112.614 47.9555V69.1586C112.614 69.9624 111.962 70.6141 111.159 70.6141H89.9555C89.1516 70.6141 88.5 69.9624 88.5 69.1586V47.9555C88.5 47.1516 89.1516 46.5 89.9555 46.5Z" fill="white" stroke="#3A3D42"/>
<path d="M101.529 57.0848V57.5848H102.029H106.876C107.414 57.5848 107.848 58.019 107.848 58.557C107.848 59.0945 107.413 59.5291 106.876 59.5291H102.029H101.529V60.0291V64.8762C101.529 65.4141 101.095 65.8483 100.557 65.8483C100.019 65.8483 99.5848 65.4128 99.5848 64.8762V60.0291V59.5291H99.0848H94.2377C93.6998 59.5291 93.2656 59.0949 93.2656 58.557C93.2656 58.0194 93.7011 57.5848 94.2377 57.5848H99.0848H99.5848V57.0848V52.2377C99.5848 51.6998 100.019 51.2656 100.557 51.2656C101.095 51.2656 101.529 51.7011 101.529 52.2377V57.0848Z" fill="white" stroke="#3A3D42"/>
<path d="M118.839 75.3828H140.042C140.846 75.3828 141.498 76.0344 141.498 76.8383V98.0414C141.498 98.8452 140.846 99.4969 140.042 99.4969H118.839C118.035 99.4969 117.384 98.8452 117.384 98.0414V76.8383C117.384 76.0344 118.035 75.3828 118.839 75.3828Z" fill="white" stroke="#3A3D42"/>
<path d="M131.169 87.0862L130.816 87.4397L131.169 87.7933L134.597 91.2209C134.976 91.6005 134.976 92.2151 134.597 92.5947C134.217 92.9744 133.603 92.9744 133.223 92.5947L129.795 89.1672L129.442 88.8136L129.088 89.1672L125.661 92.5947C125.281 92.9744 124.666 92.9744 124.287 92.5947C123.907 92.2151 123.907 91.6005 124.287 91.2209L127.714 87.7933L128.068 87.4397L127.714 87.0862L124.287 83.6586C123.907 83.2789 123.907 82.6644 124.287 82.2848C124.666 81.9051 125.281 81.9051 125.661 82.2848L129.088 85.7123L129.442 86.0659L129.795 85.7123L133.223 82.2848C133.603 81.9051 134.217 81.9051 134.597 82.2848C134.976 82.6644 134.976 83.2789 134.597 83.6586L131.169 87.0862Z" fill="white" stroke="#3A3D42"/>
<path d="M89.9555 75.3828H111.159C111.962 75.3828 112.614 76.0344 112.614 76.8383V98.0414C112.614 98.8452 111.962 99.4969 111.159 99.4969H89.9555C89.1516 99.4969 88.5 98.8452 88.5 98.0414V76.8383C88.5 76.0344 89.1516 75.3828 89.9555 75.3828Z" fill="#FFCA17" stroke="#3A3D42"/>
<path d="M94.2397 86.4727H106.875C107.412 86.4727 107.847 86.9078 107.847 87.4439C107.847 87.9801 107.412 88.4152 106.875 88.4152H94.2397C93.7025 88.4152 93.2676 87.9801 93.2676 87.4439C93.2676 86.9078 93.7025 86.4727 94.2397 86.4727Z" fill="white" stroke="#3A3D42"/>
<path d="M101.257 82.5573C101.629 82.9437 101.619 83.5591 101.232 83.9319C100.846 84.3047 100.23 84.2937 99.8576 83.9074C99.4848 83.5211 99.4958 82.9057 99.8821 82.5329C100.268 82.16 100.884 82.171 101.257 82.5573Z" fill="white" stroke="#3A3D42"/>
<path d="M101.257 90.9753C101.629 91.3616 101.619 91.977 101.232 92.3499C100.846 92.7227 100.23 92.7117 99.8576 92.3254C99.4848 91.9391 99.4958 91.3236 99.8821 90.9508C100.268 90.578 100.884 90.589 101.257 90.9753Z" fill="white" stroke="#3A3D42"/>
</g>
<defs>
<clipPath id="clip0_82_2064">
<rect width="54" height="54" fill="white" transform="translate(88 46)"/>
</clipPath>
</defs>
</svg>
