<svg width="230" height="146" viewBox="0 0 230 146" fill="none" xmlns="http://www.w3.org/2000/svg">
<rect width="230" height="146" rx="8" fill="white"/>
<path d="M115.037 79.5601C119.085 79.5601 122.366 76.1468 122.366 71.9363C122.366 67.7258 119.085 64.3125 115.037 64.3125C110.99 64.3125 107.709 67.7258 107.709 71.9363C107.709 76.1468 110.99 79.5601 115.037 79.5601Z" fill="#FFCA17"/>
<path d="M115.038 79.9402C110.785 79.9402 107.326 76.3492 107.326 71.9349C107.326 67.5206 110.785 63.9297 115.038 63.9297C119.291 63.9297 122.749 67.5206 122.749 71.9349C122.749 76.3492 119.291 79.9402 115.038 79.9402ZM115.038 64.6925C111.21 64.6925 108.093 67.9393 108.093 71.9349C108.093 75.9306 111.21 79.1773 115.038 79.1773C118.865 79.1773 121.983 75.9306 121.983 71.9349C121.983 67.9393 118.865 64.6925 115.038 64.6925Z" fill="#3A3D42"/>
<path d="M94.9125 100.987C93.3 100.987 91.8699 100.456 90.7155 99.419C88.3646 97.3072 87.6355 93.6511 87.9627 90.9579C88.5142 86.3901 91.1501 82.1108 93.6599 78.5244C101.357 67.519 111.153 57.6578 121.996 50.0107C124.029 48.5781 127.483 46.7547 131.077 45.9313C135.143 45.001 138.34 45.5964 140.327 47.6478C143.519 50.9457 142.383 57.0019 136.952 65.6444C126.801 81.8084 108.027 98.2189 96.7726 100.768C96.1323 100.912 95.5107 100.987 94.9125 100.987ZM134.592 46.257C130.227 46.257 125.058 48.7827 122.44 50.6294C111.668 58.2299 101.932 68.026 94.2862 78.9617C91.8325 82.4689 89.2526 86.6506 88.7198 91.0509C88.4301 93.4651 89.089 96.9351 91.2249 98.8562C92.6364 100.121 94.4451 100.517 96.5997 100.028C101.745 98.8655 109.022 94.4419 116.561 87.9019C124.371 81.1246 131.381 73.0775 136.303 65.2444C139.892 59.5323 143.407 51.9318 139.775 48.178C138.438 46.7965 136.597 46.2616 134.592 46.2616V46.257Z" fill="#3A3D42"/>
<path d="M134.695 101C131.447 101 127.161 99.223 121.88 95.6785C106.247 85.1894 90.37 65.7879 87.907 54.1592C87.3602 51.5776 87.8883 49.3356 89.4259 47.675C91.5057 45.4376 94.9362 44.7538 97.4132 45.0748C101.839 45.6469 105.985 48.3727 109.457 50.9682C120.104 58.9223 129.643 69.0533 137.041 80.2588C140.271 85.1475 143.743 94.5994 139.327 99.1671C138.144 100.39 136.597 101 134.691 101H134.695ZM96.2028 45.7632C94.0903 45.7632 91.5898 46.4702 89.9914 48.196C88.608 49.6891 88.1547 51.6427 88.6594 54.0057C89.7858 59.3317 94.0669 66.8531 100.395 74.6491C106.952 82.7241 114.734 89.9665 122.315 95.0552C127.83 98.7578 135.167 102.386 138.785 98.6415C143.042 94.2412 139.023 84.6405 136.41 80.6821C129.059 69.551 119.585 59.4852 109.004 51.5822C105.611 49.0472 101.573 46.3819 97.3198 45.833C96.9646 45.7865 96.5907 45.7632 96.2028 45.7632Z" fill="#3A3D42"/>
<path d="M91.2994 65.7686C93.4624 65.7686 95.2159 64.0234 95.2159 61.8706C95.2159 59.7178 93.4624 57.9727 91.2994 57.9727C89.1363 57.9727 87.3828 59.7178 87.3828 61.8706C87.3828 64.0234 89.1363 65.7686 91.2994 65.7686Z" fill="white"/>
<path d="M91.2998 66.1486C88.9302 66.1486 87 64.2275 87 61.8692C87 59.5109 88.9302 57.5898 91.2998 57.5898C93.6693 57.5898 95.5996 59.5109 95.5996 61.8692C95.5996 64.2275 93.6693 66.1486 91.2998 66.1486ZM91.2998 58.348C89.3509 58.348 87.7618 59.9249 87.7618 61.8692C87.7618 63.8136 89.3462 65.3858 91.2998 65.3858C93.2534 65.3858 94.8331 63.8089 94.8331 61.8692C94.8331 59.9296 93.2487 58.348 91.2998 58.348Z" fill="#3A3D42"/>
<path d="M138.701 65.7686C140.864 65.7686 142.617 64.0234 142.617 61.8706C142.617 59.7178 140.864 57.9727 138.701 57.9727C136.538 57.9727 134.784 59.7178 134.784 61.8706C134.784 64.0234 136.538 65.7686 138.701 65.7686Z" fill="white"/>
<path d="M138.7 66.1486C136.331 66.1486 134.4 64.2275 134.4 61.8692C134.4 59.5109 136.331 57.5898 138.7 57.5898C141.07 57.5898 143 59.5109 143 61.8692C143 64.2275 141.07 66.1486 138.7 66.1486ZM138.7 58.348C136.751 58.348 135.162 59.9249 135.162 61.8692C135.162 63.8136 136.747 65.3858 138.7 65.3858C140.654 65.3858 142.233 63.8089 142.233 61.8692C142.233 59.9296 140.649 58.348 138.7 58.348Z" fill="#3A3D42"/>
<path d="M105.559 100.397C107.722 100.397 109.476 98.6523 109.476 96.4995C109.476 94.3467 107.722 92.6016 105.559 92.6016C103.396 92.6016 101.643 94.3467 101.643 96.4995C101.643 98.6523 103.396 100.397 105.559 100.397Z" fill="white"/>
<path d="M105.559 100.778C103.189 100.778 101.259 98.8564 101.259 96.4981C101.259 94.1398 103.189 92.2188 105.559 92.2188C107.928 92.2188 109.858 94.1398 109.858 96.4981C109.858 98.8564 107.928 100.778 105.559 100.778ZM105.559 92.9816C103.61 92.9816 102.021 94.5585 102.021 96.5028C102.021 98.4471 103.605 100.019 105.559 100.019C107.512 100.019 109.092 98.4425 109.092 96.5028C109.092 94.5631 107.507 92.9816 105.559 92.9816Z" fill="#3A3D42"/>
<g opacity="0.13">
<path d="M95.0851 63.4812C95.0009 63.1649 94.6972 62.9463 94.37 62.9416C94.0101 62.9323 93.7671 63.244 93.454 63.3742C93.4026 63.3975 93.3511 63.4207 93.2997 63.444C93.2857 63.4486 93.2717 63.4533 93.2577 63.4626C92.1313 63.8719 91.3882 63.8673 90.5983 63.7277C90.388 63.7045 89.5795 63.4021 89.458 63.3602C89.2056 63.2486 88.9672 63.0951 88.6821 63.0998C87.5231 63.1091 87.2987 64.7557 88.4157 65.0673C90.1637 65.8116 92.2809 65.7651 93.9727 64.8952C94.4588 64.565 95.2487 64.1836 95.0804 63.4858L95.0851 63.4812Z" fill="#3A3D42"/>
</g>
<g opacity="0.13">
<path d="M121.412 74.1981C121.258 74.2493 121.118 74.3376 121.038 74.4865C120.767 74.9144 120.87 74.7842 120.552 75.133C120.048 75.5749 119.552 76.0308 119.024 76.4494C118.113 77.0169 117.846 77.082 116.725 77.4309C114.313 78.1984 112.612 76.9657 110.308 75.7331C109.995 75.5796 109.714 75.254 109.331 75.3796C108.845 75.5052 108.667 76.1564 109.032 76.5052C109.616 77.0355 111.584 78.3891 113.35 78.8775C114.921 79.2682 116.636 79.138 118.127 78.5147C118.875 78.2216 119.529 77.6216 119.692 77.5193C120.496 76.989 121.342 76.2308 121.66 75.7656C121.856 75.4912 122.127 75.2214 122.188 74.8772C122.277 74.4539 121.814 74.0632 121.403 74.1934L121.412 74.1981Z" fill="#3A3D42"/>
</g>
<g opacity="0.13">
<path d="M109.728 97.4721C109.616 97.0255 109.06 96.8069 108.667 97.0395C108.405 97.1744 108.344 97.4767 108.181 97.7C108.162 97.7279 108.148 97.7465 108.134 97.7651C108.101 97.807 108.069 97.8442 108.036 97.886C107.98 97.9744 107.704 98.207 107.587 98.3047C106.933 98.7745 107.26 98.6582 106.676 98.8396C105.839 98.9838 104.204 98.8396 103.26 98.1233C103.246 98.114 103.236 98.1093 103.227 98.1C103.143 98.0256 103.049 97.9186 102.998 97.8581C102.886 97.7046 102.745 97.5697 102.554 97.5232C101.942 97.3325 101.376 98.0628 101.717 98.6024C102.362 99.6257 103.568 100.156 104.722 100.37C105.835 100.64 107.078 100.468 108.237 99.6815C108.709 99.3466 109.078 98.8675 109.405 98.3977C109.597 98.1233 109.84 97.8209 109.728 97.4721Z" fill="#3A3D42"/>
</g>
<g opacity="0.13">
<path d="M141.439 64.9196C141.593 64.6591 141.747 64.394 141.901 64.1288C142.14 63.7102 142.345 63.2822 142.523 62.8357C142.294 62.6682 141.976 62.631 141.719 62.7845C141.359 63.059 141.457 63.1008 141.355 63.1706C140.7 63.7753 140.761 63.7753 140.032 64.0265C139.326 64.2498 139.336 64.2172 138.929 64.2358C137.919 64.2358 137.868 64.2265 136.826 63.8823C136.438 63.7567 136.008 63.459 135.611 63.7055C135.461 63.7893 135.368 63.9195 135.312 64.0684C135.466 64.2172 135.625 64.366 135.784 64.5102C136.143 64.8312 136.508 65.1428 136.83 65.501C137.625 65.7615 138.471 65.8685 139.308 65.7475C139.317 65.7243 139.639 65.7289 140.172 65.5847C140.621 65.4685 141.013 65.2219 141.411 64.994C141.425 64.9661 141.439 64.9428 141.448 64.9242L141.439 64.9196Z" fill="#3A3D42"/>
</g>
</svg>
