<svg width="230" height="146" viewBox="0 0 230 146" fill="none" xmlns="http://www.w3.org/2000/svg">
<rect width="230" height="146" rx="8" fill="white"/>
<path d="M122.145 84.8311C128.698 89.8602 133.42 96.9472 139.218 102.874C140.564 104.249 142.183 105.652 144.078 105.571C145.75 105.501 147.277 104.093 147.528 102.395C147.73 101.031 147.182 99.6337 146.34 98.5538C145.505 97.4738 144.397 96.6463 143.317 95.8296C137.109 91.1229 131.147 86.0669 125.472 80.6992C124.328 82.0425 123.178 83.3857 122.14 84.8311H122.145Z" fill="white"/>
<path d="M143.919 106C141.949 106 140.288 104.582 138.92 103.18C136.796 101.004 134.784 98.6447 132.841 96.3558C129.487 92.4121 126.016 88.3393 121.895 85.1746C121.714 85.0349 121.677 84.777 121.81 84.5889C122.859 83.1329 124.025 81.7574 125.159 80.4356C125.233 80.3496 125.34 80.2959 125.457 80.2852C125.569 80.2852 125.686 80.3174 125.766 80.398C131.408 85.7388 137.403 90.8163 143.578 95.4962L143.669 95.566C144.733 96.372 145.835 97.2048 146.682 98.3009C147.693 99.6011 148.156 101.122 147.954 102.465C147.672 104.367 145.979 105.92 144.105 106C144.047 106 143.988 106 143.929 106H143.919ZM122.72 84.7555C126.772 87.9363 130.173 91.9339 133.469 95.8078C135.406 98.0806 137.403 100.434 139.511 102.589C140.794 103.9 142.338 105.237 144.057 105.157C145.521 105.092 146.889 103.83 147.113 102.341C147.278 101.224 146.879 99.945 146.011 98.8274C145.228 97.8173 144.174 97.0221 143.152 96.2484L143.062 96.1785C136.982 91.5685 131.073 86.5716 125.499 81.3221C124.552 82.4344 123.594 83.5734 122.715 84.7609L122.72 84.7555Z" fill="#3A3D42"/>
<path d="M118.712 84.2977C118.887 85.399 119.521 86.4145 120.426 87.043C120.735 87.2579 121.091 87.4299 121.464 87.4191C121.831 87.403 122.167 87.2096 122.475 87.0054C124.445 85.6892 125.893 83.7389 127.309 81.8263C127.714 81.2783 128.129 80.7088 128.278 80.0426C128.395 79.5322 128.342 78.9896 128.188 78.4899C127.756 77.0984 126.271 75.9863 124.892 76.4C124.168 76.6203 123.609 77.1952 123.104 77.7646C121.714 79.3119 120.426 80.9452 119.249 82.6644C118.818 83.293 118.382 84.0129 118.712 84.303V84.2977Z" fill="#FFCA17"/>
<path d="M121.421 87.8475C121.027 87.8475 120.628 87.7024 120.191 87.3962C119.233 86.7299 118.541 85.6553 118.323 84.4947C117.891 83.9037 118.546 82.9527 118.908 82.4207C120.09 80.696 121.4 79.0357 122.794 77.4776C123.348 76.865 123.955 76.2418 124.775 75.9946C126.436 75.4896 128.113 76.8382 128.586 78.3641C128.773 78.9766 128.81 79.5892 128.682 80.1372C128.512 80.9002 128.049 81.5288 127.639 82.0822C126.287 83.9144 124.753 85.9884 122.704 87.3585C122.347 87.6003 121.948 87.8206 121.48 87.8421C121.458 87.8421 121.437 87.8421 121.421 87.8421V87.8475ZM119.015 84.0112C119.073 84.0756 119.111 84.1509 119.126 84.2368C119.281 85.2147 119.856 86.1389 120.665 86.6977C120.968 86.9072 121.224 87.0039 121.453 86.9985C121.714 86.9878 121.991 86.8266 122.246 86.6547C124.173 85.3652 125.595 83.4416 126.973 81.5772C127.351 81.0667 127.735 80.5402 127.868 79.9492C127.958 79.5462 127.932 79.0841 127.788 78.6166C127.437 77.4722 126.17 76.4567 125.014 76.8059C124.397 76.994 123.907 77.4991 123.412 78.0471C122.038 79.573 120.756 81.2064 119.595 82.9043C119.084 83.6458 119.015 83.9144 119.015 84.0058V84.0112Z" fill="#3A3D42"/>
<path d="M104.955 40.4798C95.958 40.9688 87.8821 47.8677 84.3846 56.2873C80.887 64.7068 82.1593 74.9692 87.6053 82.2497C91.1827 87.0317 98.5292 91.1098 108.202 90.0244C114.958 89.2668 120.925 84.7911 124.806 79.1333C127.862 74.6737 129.81 69.3652 129.917 63.9384C130.023 58.5117 127.074 39.2763 104.96 40.4798H104.955ZM116.693 82.1906C106.6 89.5623 93.6901 85.2854 89.7294 76.1943C86.7376 69.3276 87.1475 62.6865 87.8821 60.3815C89.1012 56.5559 92.5509 48.8456 99.8868 46.4546C108.782 43.5532 115.421 46.6319 118.684 49.3077C121.942 51.9835 124.226 55.8574 125.003 60.0376C126.489 68.0112 123.193 77.4462 116.693 82.1959V82.1906Z" fill="white"/>
<path d="M105.057 90.6255C96.4964 90.6255 90.3424 86.6011 87.276 82.5068C81.7129 75.0706 80.4299 64.7168 83.9967 56.12C87.7924 46.9858 96.2089 40.5328 104.934 40.0546C112.643 39.6355 118.807 41.6289 123.253 45.9811C129.007 51.6174 130.407 59.9241 130.333 63.9431C130.232 69.2409 128.438 74.5763 125.148 79.3744C120.82 85.6877 114.66 89.7228 108.251 90.4428C107.154 90.5664 106.089 90.6255 105.062 90.6255H105.057ZM106.909 40.8445C106.276 40.8445 105.632 40.8606 104.977 40.8982C96.5656 41.3603 88.4419 47.6091 84.7686 56.4531C81.3136 64.7759 82.554 74.8019 87.9361 81.9964C91.2314 86.4023 98.2744 90.7168 108.155 89.6046C114.325 88.9115 120.271 85.0053 124.461 78.8908C127.607 74.2969 129.396 68.983 129.497 63.9269C129.572 60.0476 128.219 52.0257 122.672 46.5882C118.781 42.7734 113.484 40.8445 106.909 40.8445ZM105.44 86.3593C103.79 86.3593 102.134 86.139 100.516 85.693C95.4636 84.3014 91.2899 80.8143 89.3469 76.3601C86.3976 69.6009 86.6372 62.89 87.4836 60.2464C88.5749 56.8238 91.9607 48.587 99.7597 46.0456C110.135 42.6606 117.067 47.4318 118.946 48.9738C122.262 51.698 124.621 55.7009 125.414 59.9509C126.974 68.306 123.407 77.8055 116.939 82.5283C113.494 85.0429 109.481 86.3593 105.44 86.3593ZM106.915 45.7071C104.844 45.7071 102.533 46.0294 100.01 46.8515C92.5782 49.2747 89.3256 57.2053 88.2715 60.5043C87.5901 62.6321 87.1482 69.2247 90.1081 76.0162C91.9501 80.2394 95.9214 83.5492 100.734 84.8763C106.073 86.3432 111.802 85.2417 116.449 81.846C122.667 77.3004 126.095 68.1609 124.589 60.1121C123.833 56.0555 121.581 52.2353 118.413 49.6347C117.072 48.5333 113.031 45.7124 106.909 45.7124L106.915 45.7071Z" fill="#3A3D42"/>
<path d="M107.069 57.3921C108.51 57.3921 109.678 56.2086 109.678 54.7488C109.678 53.2889 108.51 52.1055 107.069 52.1055C105.629 52.1055 104.461 53.2889 104.461 54.7488C104.461 56.2086 105.629 57.3921 107.069 57.3921Z" fill="white"/>
<path d="M107.069 57.8151C105.403 57.8151 104.04 56.4398 104.04 54.7474C104.04 53.0551 105.398 51.6797 107.069 51.6797C108.741 51.6797 110.098 53.0551 110.098 54.7474C110.098 56.4398 108.741 57.8151 107.069 57.8151ZM107.069 52.5286C105.861 52.5286 104.876 53.5225 104.876 54.7474C104.876 55.9724 105.861 56.9663 107.069 56.9663C108.278 56.9663 109.262 55.9724 109.262 54.7474C109.262 53.5225 108.278 52.5286 107.069 52.5286Z" fill="#3A3D42"/>
<path d="M97.8695 72.7527C96.0062 71.0118 94.9309 68.4758 94.7179 65.9128C94.6434 65.0048 94.6913 64.0484 95.1544 63.2639C95.6176 62.4795 96.5812 61.9529 97.4329 62.2538C98.6041 62.6675 98.8437 64.1935 99.0992 65.4239C99.408 66.9122 100.143 68.4489 101.516 69.0614C102.357 69.4322 103.305 69.4053 104.215 69.5396C105.12 69.6793 106.1 70.0769 106.456 70.9312C106.877 71.936 106.206 73.1396 105.259 73.6661C104.311 74.1927 101.473 76.1162 97.8748 72.7527H97.8695Z" fill="#FFCA17"/>
<path d="M102.08 75.1248C100.803 75.1248 99.2642 74.6412 97.582 73.0669C95.7241 71.326 94.5263 68.7362 94.2974 65.953C94.1962 64.7172 94.3506 63.7984 94.7925 63.057C95.3035 62.1865 96.4534 61.4719 97.566 61.8642C98.8863 62.3262 99.2004 63.8683 99.4506 65.1041L99.4985 65.3459C99.7008 66.3184 100.254 68.0485 101.676 68.6825C102.208 68.9189 102.804 68.978 103.438 69.0371C103.709 69.064 103.992 69.0909 104.268 69.1338C105.014 69.2467 106.345 69.612 106.834 70.778C107.361 72.0299 106.526 73.4484 105.456 74.0502L105.301 74.1361C104.7 74.48 103.571 75.1355 102.086 75.1355L102.08 75.1248ZM98.1516 72.4436C101.346 75.431 103.827 74.0018 104.891 73.3893L105.051 73.2979C105.807 72.8735 106.398 71.8902 106.062 71.095C105.722 70.2783 104.604 70.0258 104.141 69.9559C103.885 69.9183 103.63 69.8914 103.358 69.8646C102.687 69.8001 101.995 69.7356 101.34 69.4455C99.5783 68.661 98.9182 66.6461 98.684 65.5124L98.6361 65.2653C98.4178 64.1853 98.1676 62.9603 97.2945 62.654C96.6238 62.4176 95.8625 62.8904 95.5111 63.4814C95.1651 64.0671 95.048 64.8247 95.1332 65.8778C95.3461 68.4515 96.4481 70.8478 98.1516 72.4436Z" fill="#3A3D42"/>
<path d="M112.35 61.8119C111.2 62.3169 110.63 63.8697 111.173 65.0142C111.626 65.9545 112.637 66.5079 113.137 67.4213C113.414 67.9317 113.515 68.5228 113.531 69.1084C113.553 69.9198 113.414 70.7365 113.121 71.494C112.845 72.2248 112.424 72.9125 112.312 73.6916C112.201 74.4707 112.52 75.3949 113.26 75.6205C113.723 75.7656 114.223 75.5937 114.649 75.3572C117.061 74.0032 118.269 71.2576 118.615 68.0929C118.796 66.4219 118.088 64.7133 116.933 63.5044C115.778 62.3008 113.984 61.0973 112.35 61.8119Z" fill="white"/>
<path d="M113.627 76.0956C113.462 76.0956 113.297 76.0741 113.143 76.0257C112.158 75.7194 111.769 74.5642 111.908 73.6293C111.993 73.0383 112.232 72.5118 112.461 72.0067C112.562 71.781 112.658 71.5661 112.743 71.3458C113.009 70.6419 113.143 69.8736 113.121 69.1214C113.105 68.5089 112.994 68.0199 112.781 67.6277C112.568 67.2462 112.243 66.9184 111.897 66.5799C111.492 66.177 111.072 65.7579 110.806 65.2045C110.497 64.5543 110.47 63.7645 110.742 63.0338C111.008 62.303 111.54 61.7174 112.19 61.4326C114.319 60.5031 116.433 62.3729 117.242 63.2164C118.557 64.5919 119.227 66.4295 119.041 68.1435C118.642 71.7971 117.194 74.4245 114.862 75.7302C114.426 75.9774 114.016 76.1009 113.632 76.1009L113.627 76.0956ZM113.382 62.0236C113.095 62.0236 112.802 62.0774 112.52 62.2009C112.073 62.3944 111.711 62.8027 111.519 63.3185C111.327 63.8343 111.343 64.3824 111.551 64.8283C111.753 65.2528 112.104 65.6021 112.477 65.9674C112.85 66.3382 113.233 66.7196 113.505 67.2086C113.787 67.7244 113.93 68.3369 113.952 69.0891C113.973 69.9542 113.824 70.8354 113.515 71.6413C113.425 71.8831 113.318 72.1195 113.212 72.3506C112.999 72.8288 112.797 73.2801 112.727 73.7475C112.642 74.3278 112.866 75.0532 113.382 75.209C113.734 75.3165 114.159 75.1445 114.447 74.9833C117.082 73.5058 117.944 70.3894 118.2 68.0414C118.36 66.5746 117.774 64.9895 116.635 63.7967C116.188 63.3293 114.809 62.0183 113.377 62.0183L113.382 62.0236Z" fill="#3A3D42"/>
<g opacity="0.13">
<path d="M127.66 82.8054C127.49 82.1016 126.468 81.9619 126.127 82.6012C125.584 83.5092 124.993 84.3849 124.525 85.3358C124.493 85.3949 124.456 85.4594 124.418 85.5131C123.481 86.6145 125.217 87.8609 125.962 86.593C126.574 85.7441 127.016 84.7825 127.41 83.81C127.421 83.7939 127.522 83.5683 127.57 83.4501C127.682 83.2567 127.714 83.0149 127.655 82.7946L127.66 82.8054Z" fill="#3A3D42"/>
</g>
</svg>
