<svg width="230" height="146" viewBox="0 0 230 146" fill="none" xmlns="http://www.w3.org/2000/svg">
<rect width="230" height="146" rx="8" fill="white"/>
<path d="M131.037 48.9303C130.953 51.6389 131.077 54.353 131.408 57.0392C131.565 58.3125 131.801 59.6584 132.598 60.5967C133.177 61.278 133.979 61.6633 134.715 62.1213C138.752 64.6288 141.104 70.0515 140.346 75.0832C139.582 80.115 135.759 84.404 131.2 85.3367C129.291 85.7276 118.242 86.9004 115.317 78.6351C113.38 73.1621 114.655 66.0473 119.219 63.0092C120.393 62.2274 121.791 61.6689 122.498 60.3789C122.891 59.664 123.009 58.8152 123.099 57.983C123.43 54.945 123.469 51.8734 123.262 48.8242C125.62 48.9192 127.978 48.9303 131.037 48.9303Z" fill="white"/>
<path d="M127.63 86.0683C123.503 86.0683 117.081 85.0073 114.88 78.786C112.988 73.4359 113.998 65.9301 118.961 62.624C119.248 62.4341 119.551 62.2554 119.837 62.0823C120.747 61.5406 121.611 61.0268 122.089 60.1556C122.442 59.5133 122.555 58.7036 122.639 57.9329C122.959 55.0009 123.015 51.9461 122.796 48.8522C122.785 48.7238 122.835 48.5953 122.925 48.5004C123.015 48.4055 123.138 48.3496 123.273 48.3608C125.536 48.4501 127.748 48.4669 131.032 48.4669C131.156 48.4669 131.274 48.5172 131.363 48.6065C131.448 48.6959 131.498 48.8131 131.493 48.936C131.408 51.6166 131.532 54.3196 131.863 56.9779C132.003 58.1339 132.217 59.4351 132.947 60.2952C133.351 60.7755 133.901 61.0994 134.479 61.44C134.642 61.535 134.799 61.6299 134.957 61.7249C139.128 64.3161 141.581 69.9622 140.795 75.1448C140.009 80.3385 136.006 84.8118 131.285 85.7779C131.24 85.7891 129.735 86.0628 127.63 86.0628V86.0683ZM123.75 49.299C123.93 52.27 123.863 55.202 123.554 58.0334C123.458 58.899 123.329 59.8037 122.903 60.5968C122.302 61.6913 121.291 62.2945 120.314 62.8753C120.022 63.0484 119.742 63.216 119.478 63.3947C114.885 66.4495 113.976 73.4694 115.75 78.49C118.81 87.1518 130.982 84.9179 131.105 84.8956C135.462 84.002 139.162 79.8526 139.892 75.0219C140.627 70.18 138.348 64.9193 134.474 62.5123C134.322 62.4173 134.171 62.328 134.013 62.2386C133.396 61.8756 132.756 61.4959 132.245 60.8983C131.352 59.8428 131.111 58.3852 130.954 57.1008C130.639 54.5542 130.51 51.9629 130.566 49.3939C127.765 49.3939 125.749 49.3772 123.75 49.3046V49.299Z" fill="#3A3D42"/>
<path d="M139.829 70.1108C130.099 70.619 118.983 70.3565 114.873 69.7422C114.183 72.6295 114.329 75.8462 115.317 78.633C118.236 86.8982 129.291 85.7255 131.2 85.3345C135.759 84.4019 139.588 80.1129 140.346 75.0811C140.593 73.4392 140.508 71.7527 140.143 70.1387C140.037 70.1275 139.936 70.1052 139.835 70.1108H139.829Z" fill="#FFCA17"/>
<path d="M127.629 86.0678C123.503 86.0678 117.08 85.0067 114.879 78.7854C113.874 75.9428 113.706 72.6088 114.424 69.6321C114.481 69.4032 114.705 69.2524 114.941 69.2859C118.91 69.8835 129.847 70.1739 139.807 69.6545C139.919 69.6545 140.02 69.6601 140.104 69.6712C140.132 69.6712 140.16 69.6768 140.188 69.6824C140.385 69.6992 140.553 69.8444 140.593 70.0342C140.986 71.7599 141.053 73.4744 140.8 75.1442C140.014 80.3379 136.011 84.8112 131.29 85.7774C131.245 85.7885 129.74 86.0622 127.635 86.0622L127.629 86.0678ZM115.227 70.252C114.66 72.955 114.846 75.9316 115.749 78.4838C118.809 87.1456 130.981 84.9118 131.105 84.8894C135.461 83.9959 139.161 79.8465 139.891 75.0158C140.11 73.5693 140.071 72.0782 139.767 70.576C130.111 71.073 119.539 70.8161 115.233 70.2576L115.227 70.252Z" fill="#3A3D42"/>
<path d="M123.682 51.3634C123.604 51.3634 123.536 51.302 123.531 51.2182C123.48 50.3973 123.508 49.5764 123.626 48.7666C123.638 48.6828 123.716 48.627 123.8 48.6381C123.885 48.6493 123.941 48.7275 123.929 48.8113C123.817 49.5987 123.789 50.4029 123.84 51.2015C123.84 51.2853 123.783 51.3579 123.699 51.3634C123.699 51.3634 123.694 51.3634 123.688 51.3634H123.682Z" fill="#3A3D42"/>
<path d="M131.65 47.9017C129.095 47.8458 126.53 47.7955 123.981 47.8681C123.549 47.8793 123.083 47.9017 122.757 48.0189C122.443 48.1362 122.319 48.3149 122.24 48.488C122.083 48.8231 122.038 49.1694 122.094 49.5156C122.106 49.5994 122.128 49.6832 122.224 49.7558C122.471 49.9456 123.077 49.9736 123.593 49.9791C125.968 50.0071 128.343 50.0294 130.712 50.0573C131.347 50.0629 131.987 50.035 132.256 49.7781C132.548 49.4989 133.009 47.9352 131.656 47.9072L131.65 47.9017Z" fill="white"/>
<path d="M130.846 50.5084C130.801 50.5084 130.751 50.5084 130.7 50.5084L123.581 50.4302C122.829 50.4246 122.262 50.3632 121.931 50.1063C121.689 49.9164 121.644 49.6707 121.633 49.5813C121.56 49.1513 121.622 48.7157 121.818 48.2913C121.919 48.0735 122.11 47.7607 122.599 47.582C122.986 47.4424 123.469 47.4145 123.969 47.4033C126.506 47.3307 129.078 47.381 131.57 47.4368H131.666C132.502 47.4536 132.817 47.9394 132.929 48.2242C133.193 48.8888 132.89 49.7935 132.575 50.0951C132.233 50.4302 131.638 50.5084 130.852 50.5084H130.846ZM122.537 49.4082C122.633 49.4473 122.891 49.5087 123.593 49.5143L130.712 49.5925C131.615 49.6037 131.862 49.5031 131.93 49.4417C132.014 49.3412 132.194 48.833 132.065 48.5426C132.042 48.4923 131.98 48.3583 131.643 48.3527H131.548C129.067 48.2968 126.506 48.2466 123.991 48.3192C123.671 48.3304 123.188 48.3415 122.908 48.442C122.739 48.5035 122.694 48.5761 122.649 48.671C122.537 48.9167 122.498 49.1625 122.531 49.4026L122.537 49.4082Z" fill="#3A3D42"/>
<path d="M85.4604 54.6148C85.2077 54.6148 85 54.4137 85 54.1624C85 53.9111 85.2021 53.7045 85.4548 53.7045L134.041 53.4141C134.294 53.4141 134.501 53.6151 134.501 53.8664C134.501 54.1177 134.299 54.3244 134.047 54.3244L85.4604 54.6148Z" fill="#3A3D42"/>
<path d="M101.427 39.457L106.367 39.5743L106.525 105.428L101.528 105.395L101.427 39.457Z" fill="white"/>
<path d="M106.525 105.887L101.528 105.848C101.276 105.848 101.074 105.642 101.074 105.39L100.973 39.4524C100.973 39.3295 101.023 39.2122 101.113 39.1229C101.192 39.0447 101.31 39 101.439 39L106.379 39.1173C106.626 39.1229 106.828 39.3239 106.828 39.5752L106.986 105.435C106.986 105.558 106.935 105.675 106.851 105.759C106.767 105.843 106.649 105.893 106.525 105.893V105.887ZM101.989 104.944L106.065 104.971L105.908 40.022L101.888 39.9271L101.989 104.944Z" fill="#3A3D42"/>
<path d="M144.539 100.469L144.449 105.383L93.4883 105.54L93.5164 100.569L144.539 100.469Z" fill="white"/>
<path d="M93.4887 106.001C93.3652 106.001 93.2473 105.95 93.1631 105.867C93.0788 105.783 93.0283 105.666 93.0283 105.543L93.0564 100.572C93.0564 100.321 93.2641 100.12 93.5168 100.12L144.54 100.02C144.663 100.02 144.781 100.07 144.865 100.154C144.949 100.243 145 100.36 145 100.483L144.91 105.398C144.91 105.643 144.702 105.844 144.45 105.844L93.4831 106.001H93.4887ZM93.9715 101.03L93.9491 105.085L144.001 104.928L144.074 100.93L93.9715 101.03Z" fill="#3A3D42"/>
<path d="M99.373 53.9724C99.373 51.7776 101.164 49.9961 103.37 49.9961C105.577 49.9961 107.368 51.7776 107.368 53.9724C107.368 56.1671 105.577 57.9486 103.37 57.9486C101.164 57.9486 99.373 56.1671 99.373 53.9724Z" fill="white"/>
<path d="M103.37 58.4002C100.911 58.4002 98.918 56.4121 98.918 53.9716C98.918 51.5311 100.917 49.543 103.37 49.543C105.824 49.543 107.822 51.5311 107.822 53.9716C107.822 56.4121 105.824 58.4002 103.37 58.4002ZM103.37 50.4533C101.422 50.4533 99.8331 52.0281 99.8331 53.9716C99.8331 55.9151 101.416 57.4899 103.37 57.4899C105.324 57.4899 106.907 55.9151 106.907 53.9716C106.907 52.0281 105.324 50.4533 103.37 50.4533Z" fill="#3A3D42"/>
<g opacity="0.13">
<path d="M105.093 57.6668C104.925 57.8064 104.274 57.9125 104.24 57.9014C104.043 57.9125 103.847 57.9069 103.65 57.8902C103.555 57.8734 103.527 57.8902 103.022 57.7394C103.005 57.7338 102.982 57.7226 102.965 57.7171C102.825 57.65 102.69 57.5719 102.533 57.5719C102.28 57.516 101.989 57.5942 101.792 57.7673C101.225 58.1471 101.298 59.0909 101.893 59.4148C102.769 59.9453 103.824 60.0794 104.818 59.8671C105.368 59.7443 106.014 59.5823 106.385 59.1356C107.075 58.3034 106.014 57.1195 105.088 57.6668H105.093Z" fill="#3A3D42"/>
</g>
<g opacity="0.13">
<path d="M130.639 49.901C130.336 49.7056 129.971 49.7782 129.629 49.7503C128.904 49.6832 128.186 49.7056 127.467 49.7893C126.294 49.8229 125.115 49.8452 123.947 49.767C122.549 49.8005 122.549 51.8389 123.947 51.878C125.395 51.7719 126.872 51.6937 128.315 51.878C128.831 51.9115 129.353 51.8948 129.87 51.878C130.089 51.878 130.319 51.9059 130.516 51.7942C131.324 51.515 131.38 50.3087 130.645 49.9066L130.639 49.901Z" fill="#3A3D42"/>
</g>
<g opacity="0.13">
<path d="M137.573 79.928C137.113 79.9168 136.854 80.291 136.546 80.5646C135.395 81.4526 136.439 80.8327 134.485 82.0613C133.042 82.7929 132.548 83.0554 130.87 83.4575C129.443 83.8484 129.601 83.787 127.647 83.7814C126.356 83.759 124.587 83.6753 123.992 83.5468C122.88 83.2732 121.746 83.0665 120.674 82.6421C119.888 82.3796 119.338 82.0725 118.355 81.3856C118.125 81.1957 117.912 80.9723 117.592 80.9835C116.918 80.9611 116.536 81.8603 117.036 82.3238C118.535 83.5747 119.478 83.9545 121.168 84.4627C122.426 84.8816 123.722 85.2055 125.025 85.4456C126.507 85.6522 128.029 85.6913 129.516 85.507C128.955 85.5852 131.195 85.3172 132.009 85.0268C133.643 84.6247 136.304 82.9939 136.939 82.5081C137.304 82.3238 137.601 82.011 137.921 81.7541C138.101 81.581 138.337 81.4302 138.415 81.1789C138.701 80.6205 138.202 79.9 137.584 79.9224L137.573 79.928Z" fill="#3A3D42"/>
</g>
</svg>
