<svg width="16" height="16" viewBox="0 0 16 16" fill="none" xmlns="http://www.w3.org/2000/svg">
    <path d="m1.593 12.066 5.483-9.471c.303-.524.455-.786.653-.873a.667.667 0 0 1 .541 0c.198.087.35.35.653.873l5.483 9.47c.304.526.456.789.434 1.004a.667.667 0 0 1-.271.47c-.176.128-.48.128-1.086.128H2.516c-.607 0-.91 0-1.086-.128a.667.667 0 0 1-.27-.47c-.023-.215.129-.478.433-1.003z" fill="#FFCA17"/>
    <path d="M8 6v2.667m0 2.667h.006m-.93-8.74-5.483 9.472c-.304.525-.456.788-.434 1.003.02.188.119.36.271.47.176.128.48.128 1.086.128h10.967c.607 0 .91 0 1.086-.128a.667.667 0 0 0 .27-.47c.023-.215-.129-.478-.433-1.003L8.923 2.595c-.303-.524-.455-.786-.653-.873a.667.667 0 0 0-.541 0c-.198.087-.35.35-.653.873z" stroke="#16150D" stroke-width="1.5" stroke-linecap="round" stroke-linejoin="round"/>
</svg>
