<svg width="15" height="18" viewBox="0 0 15 18" fill="none" xmlns="http://www.w3.org/2000/svg">
    <g clip-path="url(#uhrfr1dq3a)">
        <path d="M7.24 3.946c.78 0 1.758-.522 2.34-1.217.527-.63.912-1.511.912-2.392 0-.12-.011-.24-.033-.337-.868.033-1.912.576-2.538 1.305-.494.554-.945 1.424-.945 2.315 0 .13.022.26.033.304.055.011.143.022.231.022zM4.493 17.1c1.066 0 1.538-.707 2.868-.707 1.351 0 1.648.685 2.834.685 1.165 0 1.945-1.065 2.681-2.109.824-1.195 1.165-2.37 1.187-2.424-.077-.022-2.308-.924-2.308-3.457 0-2.196 1.758-3.185 1.857-3.261-1.165-1.653-2.933-1.696-3.417-1.696-1.307 0-2.373.783-3.043.783-.725 0-1.68-.74-2.812-.74C2.186 4.174 0 5.936 0 9.262c0 2.066.813 4.25 1.813 5.664.857 1.196 1.604 2.174 2.68 2.174z" fill="#000"/>
    </g>
    <defs>
        <clipPath id="uhrfr1dq3a">
            <path fill="#fff" d="M0 0h15v18H0z"/>
        </clipPath>
    </defs>
</svg>
