<svg width="14" height="14" viewBox="0 0 14 14" fill="none" xmlns="http://www.w3.org/2000/svg">
    <path d="M7 7h.005m2.057 2.063c-2.734 2.733-5.873 4.026-7.012 2.887-1.14-1.139.153-4.278 2.887-7.012S10.81.912 11.949 2.051c1.14 1.139-.153 4.278-2.887 7.012zm0-4.125c2.733 2.734 4.026 5.873 2.887 7.012-1.139 1.14-4.278-.154-7.012-2.887C2.203 6.329.911 3.19 2.05 2.05c1.139-1.14 4.278.153 7.012 2.887zM7.292 7a.292.292 0 1 1-.584 0 .292.292 0 0 1 .583 0z" stroke="#E2E3E7" stroke-linecap="round" stroke-linejoin="round"/>
</svg>
