<svg width="14" height="14" viewBox="0 0 14 14" fill="none" xmlns="http://www.w3.org/2000/svg">
    <path d="M2.917 5.251v4.667m2.625-4.667v4.667m2.916-4.667v4.667m2.625-4.667v4.667m-9.333.933v.467c0 .327 0 .49.064.615.056.11.145.199.255.255.124.063.288.063.614.063h8.634c.326 0 .49 0 .614-.063a.583.583 0 0 0 .255-.255c.064-.125.064-.288.064-.615v-.467c0-.326 0-.49-.064-.614a.583.583 0 0 0-.255-.255c-.124-.064-.288-.064-.614-.064H2.683c-.326 0-.49 0-.614.064a.583.583 0 0 0-.255.255c-.064.124-.064.288-.064.614zm5.048-9.055-4.317.96c-.26.058-.391.087-.489.157a.583.583 0 0 0-.195.243c-.047.11-.047.244-.047.51v.652c0 .327 0 .49.064.615.056.11.145.199.255.255.124.063.288.063.614.063h8.634c.326 0 .49 0 .614-.063a.583.583 0 0 0 .255-.255c.064-.125.064-.288.064-.615v-.651c0-.267 0-.401-.047-.511a.583.583 0 0 0-.195-.243c-.098-.07-.228-.1-.489-.157l-4.317-.96c-.075-.016-.113-.025-.151-.028a.584.584 0 0 0-.102 0c-.038.003-.076.012-.151.028z" stroke="#E2E3E7" stroke-linecap="round" stroke-linejoin="round"/>
</svg>
