<svg width="14" height="14" viewBox="0 0 14 14" fill="none" xmlns="http://www.w3.org/2000/svg">
    <path d="M5.25 3.501v2.626c0 .321 0 .482-.04.631a1.167 1.167 0 0 1-.173.368c-.088.126-.212.23-.459.435L2.422 9.358c-.247.206-.37.309-.46.435a1.167 1.167 0 0 0-.172.368c-.04.15-.04.31-.04.631v.176c0 .653 0 .98.127 1.23.112.22.29.398.51.51.25.127.576.127 1.23.127h6.766c.654 0 .98 0 1.23-.128.22-.111.398-.29.51-.51.127-.249.127-.576.127-1.229v-.176c0-.321 0-.482-.04-.63a1.168 1.168 0 0 0-.173-.369c-.088-.126-.212-.229-.459-.435L9.422 7.561c-.247-.206-.37-.309-.46-.435a1.167 1.167 0 0 1-.172-.368c-.04-.149-.04-.31-.04-.631V3.501m-3.908 0h4.316c.164 0 .245 0 .308-.031a.292.292 0 0 0 .127-.128c.032-.062.032-.144.032-.307v-1.4c0-.164 0-.245-.032-.308a.292.292 0 0 0-.127-.127c-.063-.032-.144-.032-.308-.032H4.842c-.164 0-.245 0-.308.032a.292.292 0 0 0-.127.127c-.032.063-.032.144-.032.308v1.4c0 .163 0 .245.032.307.028.055.072.1.127.128.063.031.144.031.308.031zM3.208 9.918h7.584c.27 0 .406 0 .519.022.463.092.825.454.917.917.022.113.022.248.022.52 0 .27 0 .406-.022.519a1.167 1.167 0 0 1-.917.916c-.113.023-.248.023-.52.023H3.209c-.27 0-.406 0-.519-.023a1.167 1.167 0 0 1-.917-.916c-.022-.113-.022-.249-.022-.52 0-.27 0-.406.022-.519.092-.463.454-.825.917-.917.113-.022.248-.022.52-.022z" stroke="#E2E3E7" stroke-linecap="round" stroke-linejoin="round"/>
</svg>
