<svg width="14" height="14" viewBox="0 0 14 14" fill="none" xmlns="http://www.w3.org/2000/svg">
    <g clip-path="url(#rkgltssfta)">
        <path d="M12.25 12.25H7.583m-6.125.293 3.237-1.245c.207-.08.31-.12.408-.172.086-.046.168-.1.245-.16.087-.067.165-.145.322-.302l6.58-6.58a1.65 1.65 0 0 0-2.334-2.333l-6.58 6.58a3.64 3.64 0 0 0-.302.322 1.75 1.75 0 0 0-.16.245c-.052.097-.091.2-.171.407l-1.245 3.238zm0 0 1.2-3.122c.086-.223.13-.335.203-.386a.292.292 0 0 1 .221-.047c.088.017.173.101.342.27l1.318 1.318c.17.17.254.254.27.342a.292.292 0 0 1-.046.221c-.051.074-.163.117-.387.203l-3.121 1.2z" stroke="#E2E3E7" stroke-linecap="round" stroke-linejoin="round"/>
    </g>
    <defs>
        <clipPath id="rkgltssfta">
            <path fill="#fff" d="M0 0h14v14H0z"/>
        </clipPath>
    </defs>
</svg>
