<svg width="14" height="14" viewBox="0 0 14 14" fill="none" xmlns="http://www.w3.org/2000/svg">
    <path d="M9.333 3.5v-.467c0-.654 0-.98-.127-1.23a1.167 1.167 0 0 0-.51-.51c-.25-.127-.576-.127-1.23-.127h-.933c-.653 0-.98 0-1.23.127-.219.112-.397.29-.51.51-.126.25-.126.576-.126 1.23v.466m1.166 3.209v2.916m2.334-2.916v2.916M1.75 3.5h10.5m-1.167 0v6.534c0 .98 0 1.47-.19 1.844a1.75 1.75 0 0 1-.765.765c-.375.19-.865.19-1.845.19H5.717c-.98 0-1.47 0-1.845-.19a1.75 1.75 0 0 1-.765-.765c-.19-.374-.19-.864-.19-1.844V3.499" stroke="#F74E4E" stroke-linecap="round" stroke-linejoin="round"/>
</svg>
