<svg width="14" height="14" viewBox="0 0 14 14" fill="none" xmlns="http://www.w3.org/2000/svg">
    <path d="M8.167 1.325v2.41c0 .326 0 .49.064.614.056.11.145.2.255.255.125.064.288.064.615.064h2.41m.156 1.16v4.207c0 .98 0 1.47-.19 1.844a1.75 1.75 0 0 1-.765.765c-.374.19-.865.19-1.845.19H5.134c-.98 0-1.47 0-1.845-.19a1.75 1.75 0 0 1-.764-.765c-.191-.374-.191-.864-.191-1.844V3.968c0-.98 0-1.47.19-1.845a1.75 1.75 0 0 1 .765-.764c.375-.191.865-.191 1.845-.191h1.874c.428 0 .642 0 .843.048.179.043.35.114.506.21.176.108.328.26.63.562l1.86 1.86c.303.303.454.454.562.63.096.157.167.328.21.506.048.202.048.416.048.844z" stroke="#E2E3E7" stroke-linecap="round" stroke-linejoin="round"/>
</svg>
