<svg width="24" height="23" viewBox="0 0 24 23" fill="none" xmlns="http://www.w3.org/2000/svg">
<rect width="24" height="23" rx="11.5" fill="#B831BF"/>
<path d="M10.8752 7.288V14.636H9.86316V12.656H8.30116V11.82H9.86316V10.632H8.30116V9.796H9.86316V7.288H10.8752ZM2.86716 9.246V8.41H5.11116V7.288H6.12316V8.41H8.27916V9.246H2.86716ZM3.39516 11.556C3.39516 10.456 4.30816 9.697 5.61716 9.708C6.90416 9.697 7.82816 10.456 7.83916 11.556C7.82816 12.656 6.90416 13.415 5.61716 13.404C4.30816 13.415 3.39516 12.656 3.39516 11.556ZM4.36316 11.556C4.34116 12.205 4.85816 12.623 5.61716 12.612C6.34316 12.623 6.86016 12.205 6.87116 11.556C6.86016 10.918 6.34316 10.511 5.61716 10.5C4.85816 10.511 4.34116 10.918 4.36316 11.556ZM4.58316 16.704V13.998H5.61716V15.89H11.0952V16.704H4.58316ZM15.894 10.126C15.894 11.732 16.95 13.393 18.446 14.02L17.874 14.834C16.741 14.328 15.85 13.272 15.399 11.996C14.948 13.36 14.046 14.537 12.924 15.076L12.33 14.262C13.782 13.591 14.86 11.776 14.86 10.126V9.092H12.66V8.256H18.094V9.092H15.894V10.126ZM19.304 16.902V7.288H20.338V16.902H19.304Z" fill="white"/>
</svg>
