<svg width="14" height="14" viewBox="0 0 14 14" fill="none" xmlns="http://www.w3.org/2000/svg">
<path d="M1.41174 7.41586C1.3323 7.29007 1.29257 7.22717 1.27034 7.13016C1.25364 7.0573 1.25364 6.94238 1.27034 6.86951C1.29257 6.7725 1.3323 6.70961 1.41174 6.58382C2.06823 5.54433 4.02232 2.9165 7.00024 2.9165C9.97815 2.9165 11.9322 5.54433 12.5887 6.58382C12.6682 6.70961 12.7079 6.7725 12.7301 6.86951C12.7468 6.94238 12.7468 7.0573 12.7301 7.13016C12.7079 7.22717 12.6682 7.29007 12.5887 7.41586C11.9322 8.45535 9.97815 11.0832 7.00024 11.0832C4.02232 11.0832 2.06823 8.45535 1.41174 7.41586Z" stroke="#94969E" stroke-linecap="round" stroke-linejoin="round"/>
<path d="M7.00024 8.74984C7.96673 8.74984 8.75024 7.96634 8.75024 6.99984C8.75024 6.03334 7.96673 5.24984 7.00024 5.24984C6.03374 5.24984 5.25024 6.03334 5.25024 6.99984C5.25024 7.96634 6.03374 8.74984 7.00024 8.74984Z" stroke="#94969E" stroke-linecap="round" stroke-linejoin="round"/>
</svg>
