<svg width="147" height="30" viewBox="0 0 147 30" fill="none" xmlns="http://www.w3.org/2000/svg">
    <path d="M141.344 1H13.317C10.745 1 8.66 2.857 8.66 5.15v5.53l-7.286 3.744c-.5.26-.5.892 0 1.152l7.286 3.745v5.53c0 2.292 2.084 4.149 4.656 4.149h128.027c2.573 0 4.656-1.857 4.656-4.15V5.15c0-2.293-2.083-4.15-4.656-4.15z" stroke="#C96915" stroke-miterlimit="10"/>
    <path d="M18.931 19h-1.257l2.793-7.777h1.364L24.635 19h-1.257l-.709-2.052H19.64L18.931 19zm1.047-3.04h2.348l-1.15-3.32h-.053l-1.145 3.32zm6.827-4.737V19h-1.181v-7.777h1.181zm6.682-.258v.483c-.006.72-.006 1.87-.306 3.518.403-.026.8-.059 1.187-.102l.064.763c-.95.129-1.934.21-2.9.263v3.465h-1.02v-3.422a81.59 81.59 0 0 1-2.493.038l-.14-.838c1.295-.01 2.788-.027 4.276-.102.107-.527.177-1.005.23-1.434l-3.721.322-.15-.86 3.936-.204c.032-.408.038-.757.038-1.052h-3.77v-.838h4.769zm1.525 8.948v-9.625h1.032v9.625h-1.032zM46.26 17.83v.838h-8.808v-.838h8.808zm-8.4-2.406c1.788-.29 3.448-1.622 3.448-3.094v-.3h-3.126V11.2h7.316v.827H42.37v.301c0 1.472 1.67 2.772 3.502 3.062l-.409.805c-1.557-.29-2.991-1.192-3.62-2.46-.617 1.279-2.04 2.208-3.566 2.503l-.42-.816zm17.907 2.481v.86h-8.808v-.86h3.877v-1.686h-2.803v-3.062h5.65v-1.353H48.01v-.838h6.682v3.008h-5.65v1.407h5.875v.838h-3.072v1.686h3.921zm8.26-6.767v4.49h-4.5v-4.49h4.5zm-3.501 3.684h2.503v-2.857h-2.503v2.857zm.086 4.888v-3.05h1.02v2.223h5.49v.827h-6.51zm5.08-2.374v-7.058h1.021v2.88h1.397v.859h-1.397v3.319h-1.02zm11.753-3.105v.817h-8.787v-.817h8.787zm-7.734 2.364v-.784h6.617v2.33h-5.608V19h5.876v.806H69.72v-2.417h5.597v-.795H69.71zm.096-3.062v-2.965h6.5v.828h-5.48v1.32h5.576v.817h-6.596zm10.968-2.524c1.31.005 2.261 1.112 2.417 2.89h1.987v-3.61h1.01v9.647h-1.01v-5.21h-1.976c-.113 1.88-1.085 3.045-2.428 3.04-1.434.005-2.45-1.306-2.439-3.384-.01-2.057 1.005-3.368 2.439-3.373zm-1.472 3.373c.006 1.53.602 2.47 1.472 2.47s1.466-.94 1.472-2.47c-.006-1.51-.602-2.455-1.472-2.46-.87.005-1.466.95-1.472 2.46zm17.177 3.491v.849H87.67v-.849h3.878v-1.976H88.68v-4.953h1.02v1.655h4.727v-1.655h1.01v4.953h-2.879v1.976h3.921zm-6.778-2.804h4.726v-1.643h-4.726v1.643zm10.409-2.148c0 1.536.644 3.174 1.933 3.964l-.569.784c-.902-.543-1.51-1.504-1.842-2.616-.35 1.22-1.015 2.262-1.95 2.83l-.634-.762c1.36-.816 2.079-2.519 2.074-4.157v-1.794h.988v1.75zm.891 1.6v-.848h1.494V10.47h.966v8.97h-.966v-4.92h-1.494zm3.481 5.393v-9.625h.977v9.625h-.977zm11.011-2.052v.849h-8.809v-.849h2.106v-2.513c-.79-.435-1.273-1.123-1.268-1.988-.005-1.514 1.482-2.508 3.545-2.513 2.068.005 3.556.999 3.556 2.513 0 .849-.462 1.531-1.236 1.966v2.535h2.106zm-6.983-4.5c0 1.03 1.048 1.702 2.557 1.707 1.498-.005 2.562-.676 2.567-1.708-.005-1.036-1.069-1.697-2.567-1.697-1.509 0-2.557.66-2.557 1.697zm1.289 4.5h2.557v-2.137c-.392.09-.827.14-1.289.14-.451 0-.881-.05-1.268-.14v2.137zm10.85-6.638-.097 5.532h-1.063l-.097-5.532h1.257zm-1.386 7.09a.763.763 0 0 1 .763-.763c.413 0 .757.344.763.762a.777.777 0 0 1-.763.763.766.766 0 0 1-.763-.762z" fill="#C96915"/>
    <path d="m134.5 12.5-5 5m0-5 5 5" stroke="#C96915" stroke-linecap="round" stroke-linejoin="round"/>
</svg>
