<svg width="16" height="16" viewBox="0 0 16 16" fill="none" xmlns="http://www.w3.org/2000/svg">
    <path d="M8 8.666a.667.667 0 1 0 0-1.333.667.667 0 0 0 0 1.333zM8 4a.667.667 0 1 0 0-1.334.667.667 0 0 0 0 1.333zM8 13.333a.667.667 0 1 0 0-1.334.667.667 0 0 0 0 1.334z" fill="#94969E"/>
    <path d="M8 8.666a.667.667 0 1 0 0-1.333.667.667 0 0 0 0 1.333zM8 4a.667.667 0 1 0 0-1.334.667.667 0 0 0 0 1.333zM8 13.333a.667.667 0 1 0 0-1.334.667.667 0 0 0 0 1.334z" stroke="#94969E" stroke-linecap="round" stroke-linejoin="round"/>
</svg>
