<svg width="14" height="14" viewBox="0 0 14 14" fill="none" xmlns="http://www.w3.org/2000/svg">
    <path d="M5.833 4.96a1.312 1.312 0 0 1 2.55.437c0 .874-1.312 1.311-1.312 1.311m.016 1.75h.006M5.775 11.2l.852 1.136c.126.168.19.253.267.283a.292.292 0 0 0 .212 0c.077-.03.14-.115.267-.283l.852-1.136c.171-.228.257-.342.36-.429.14-.116.304-.198.48-.24.132-.031.275-.031.56-.031.815 0 1.223 0 1.545-.133a1.75 1.75 0 0 0 .947-.947c.133-.322.133-.73.133-1.545V4.55c0-.98 0-1.47-.19-1.844a1.75 1.75 0 0 0-.766-.765c-.374-.191-.864-.191-1.844-.191h-4.9c-.98 0-1.47 0-1.844.19a1.75 1.75 0 0 0-.765.766c-.191.374-.191.864-.191 1.844v3.325c0 .815 0 1.223.133 1.545.178.428.518.77.947.947.322.133.73.133 1.545.133.285 0 .428 0 .56.031.176.042.34.124.48.24.104.087.189.201.36.429z" stroke="#E2E3E7" stroke-linecap="round" stroke-linejoin="round"/>
</svg>
