<svg width="14" height="14" viewBox="0 0 14 14" fill="none" xmlns="http://www.w3.org/2000/svg">
    <g clip-path="url(#pfiy6247ga)" fill="#E2E3E7">
        <path d="M12.724 5.433h-1.64a.028.028 0 0 1-.024-.013c-.112-.185-1.339-2.186-1.357-2.223-.097-.148-.333-.358-.536-.414l-2.555-.617a.68.68 0 0 0-.145-.016.681.681 0 0 0-.441.153l-1.49 1.672a.714.714 0 0 0-.11.99.683.683 0 0 0 .972.113l1.08-1.28a.402.402 0 0 1 .392-.136l.838.182a.016.016 0 0 1 .01.024L5.392 7.386a7.904 7.904 0 0 1-.412.566l-.692.87a.272.272 0 0 1-.232.102L1.323 8.73a.696.696 0 0 0-.738.654.7.7 0 0 0 .642.752l3.227.23a.678.678 0 0 0 .254-.031.687.687 0 0 0 .342-.232l1.23-1.546a.753.753 0 0 0 .023-.03l2.08 1.542a.05.05 0 0 1 .015.061L7.32 12.412a.698.698 0 0 0 .318.924l.022.01a.674.674 0 0 0 .907-.323l1.344-2.844a.703.703 0 0 0-.003-.608.7.7 0 0 0-.226-.283L7.662 7.79a.094.094 0 0 1-.022-.127L9.25 5.23a.022.022 0 0 1 .038 0l.825 1.293a.69.69 0 0 0 .476.313h.003l.03.004h.008a.757.757 0 0 0 .059.004H12.725a.698.698 0 0 0 .691-.705c0-.39-.31-.705-.692-.705zM11.033 3.404c.764 0 1.385-.632 1.385-1.411 0-.78-.62-1.411-1.385-1.411s-1.386.632-1.386 1.41c0 .78.62 1.412 1.386 1.412z"/>
    </g>
    <defs>
        <clipPath id="pfiy6247ga">
            <path fill="#fff" d="M0 0h14v14H0z"/>
        </clipPath>
    </defs>
</svg>
