<svg width="14" height="14" viewBox="0 0 14 14" fill="none" xmlns="http://www.w3.org/2000/svg">
    <path d="m10.208 3.792-6.416 6.416m1.166-4.083V3.792M3.792 4.958h2.333m1.75 4.084h2.333M4.55 12.25h4.9c.98 0 1.47 0 1.845-.19a1.75 1.75 0 0 0 .764-.766c.191-.374.191-.864.191-1.844v-4.9c0-.98 0-1.47-.19-1.844a1.75 1.75 0 0 0-.766-.765c-.374-.191-.864-.191-1.844-.191h-4.9c-.98 0-1.47 0-1.844.19a1.75 1.75 0 0 0-.765.766c-.191.374-.191.864-.191 1.844v4.9c0 .98 0 1.47.19 1.845.169.329.436.597.766.764.374.191.864.191 1.844.191z" stroke="#E2E3E7" stroke-linecap="round" stroke-linejoin="round"/>
</svg>
