<svg width="14" height="14" viewBox="0 0 14 14" fill="none" xmlns="http://www.w3.org/2000/svg">
    <g clip-path="url(#ly7nmataja)">
        <path d="m9.334 4.666-8.167 8.167M10.5 8.749H5.25m-1.4 2.334h3.93c.143 0 .214 0 .282-.016a.583.583 0 0 0 .168-.07c.059-.036.11-.087.21-.188l2.935-2.935c.14-.139.21-.209.265-.27a3.5 3.5 0 0 0 0-4.709c-.056-.061-.125-.131-.265-.27-.14-.14-.209-.21-.27-.266a3.5 3.5 0 0 0-4.709 0 8.813 8.813 0 0 0-.27.265L3.19 5.56c-.1.101-.151.152-.187.21a.583.583 0 0 0-.07.17c-.016.066-.016.138-.016.28v3.93c0 .327 0 .49.064.615.056.11.145.2.255.255.124.064.288.064.614.064z" stroke="#E2E3E7" stroke-linecap="round" stroke-linejoin="round"/>
    </g>
    <defs>
        <clipPath id="ly7nmataja">
            <path fill="#fff" d="M0 0h14v14H0z"/>
        </clipPath>
    </defs>
</svg>
