<svg width="14" height="14" viewBox="0 0 14 14" fill="none" xmlns="http://www.w3.org/2000/svg">
<g clip-path="url(#clip0_348_2546)">
<path d="M2.33367 12.7262C2.68518 12.8327 3.15995 12.8327 3.96699 12.8327H10.0337C10.8407 12.8327 11.3155 12.8327 11.667 12.7262M2.33367 12.7262C2.2583 12.7034 2.1886 12.6756 2.12251 12.6419C1.79323 12.4742 1.52551 12.2064 1.35773 11.8772C1.16699 11.5028 1.16699 11.0128 1.16699 10.0327V3.96602C1.16699 2.98592 1.16699 2.49588 1.35773 2.12153C1.52551 1.79225 1.79323 1.52453 2.12251 1.35675C2.49685 1.16602 2.9869 1.16602 3.96699 1.16602H10.0337C11.0138 1.16602 11.5038 1.16602 11.8781 1.35675C12.2074 1.52453 12.4751 1.79225 12.6429 2.12153C12.8337 2.49588 12.8337 2.98592 12.8337 3.96602V10.0327C12.8337 11.0128 12.8337 11.5028 12.6429 11.8772C12.4751 12.2064 12.2074 12.4742 11.8781 12.6419C11.812 12.6756 11.7423 12.7034 11.667 12.7262M2.33367 12.7262C2.33386 12.2541 2.3367 12.0043 2.37849 11.7941C2.56261 10.8685 3.28617 10.145 4.21178 9.96085C4.43718 9.91602 4.70823 9.91602 5.25033 9.91602H8.75033C9.29242 9.91602 9.56347 9.91602 9.78887 9.96085C10.7145 10.145 11.438 10.8685 11.6222 11.7941C11.664 12.0043 11.6668 12.2541 11.667 12.7262M9.33366 5.54102C9.33366 6.82968 8.28899 7.87435 7.00033 7.87435C5.71166 7.87435 4.66699 6.82968 4.66699 5.54102C4.66699 4.25235 5.71166 3.20768 7.00033 3.20768C8.28899 3.20768 9.33366 4.25235 9.33366 5.54102Z" stroke="#E2E3E7" stroke-linecap="round" stroke-linejoin="round"/>
</g>
<defs>
<clipPath id="clip0_348_2546">
<rect width="14" height="14" fill="white"/>
</clipPath>
</defs>
</svg>
