<svg width="14" height="14" viewBox="0 0 14 14" fill="none" xmlns="http://www.w3.org/2000/svg">
    <path d="m7.584 4.083-.651-1.301c-.187-.375-.281-.562-.42-.699a1.167 1.167 0 0 0-.437-.27c-.184-.063-.394-.063-.813-.063h-2.23c-.653 0-.98 0-1.229.127-.22.112-.398.29-.51.51-.127.25-.127.576-.127 1.23v.466m0 0h8.867c.98 0 1.47 0 1.844.191.33.168.597.436.765.765.19.374.19.864.19 1.844V9.45c0 .98 0 1.47-.19 1.845a1.75 1.75 0 0 1-.765.764c-.374.191-.864.191-1.844.191H3.967c-.98 0-1.47 0-1.844-.19a1.75 1.75 0 0 1-.765-.766c-.191-.374-.191-.864-.191-1.844V4.083z" stroke="#E2E3E7" stroke-linecap="round" stroke-linejoin="round"/>
</svg>
