<svg width="14" height="14" viewBox="0 0 14 14" fill="none" xmlns="http://www.w3.org/2000/svg">
<path d="M7.58366 4.08333L6.93293 2.78187C6.74564 2.4073 6.652 2.22001 6.51229 2.08318C6.38875 1.96218 6.23985 1.87015 6.07637 1.81376C5.8915 1.75 5.68211 1.75 5.26333 1.75H3.03366C2.38026 1.75 2.05357 1.75 1.804 1.87716C1.58448 1.98901 1.406 2.16749 1.29415 2.38701C1.16699 2.63657 1.16699 2.96327 1.16699 3.61667V4.08333M1.16699 4.08333H10.0337C11.0138 4.08333 11.5038 4.08333 11.8781 4.27407C12.2074 4.44185 12.4751 4.70957 12.6429 5.03885C12.8337 5.4132 12.8337 5.90324 12.8337 6.88333V9.45C12.8337 10.4301 12.8337 10.9201 12.6429 11.2945C12.4751 11.6238 12.2074 11.8915 11.8781 12.0593C11.5038 12.25 11.0138 12.25 10.0337 12.25H3.96699C2.9869 12.25 2.49685 12.25 2.12251 12.0593C1.79323 11.8915 1.52551 11.6238 1.35773 11.2945C1.16699 10.9201 1.16699 10.4301 1.16699 9.45V4.08333ZM7.00033 9.91667V6.41667M5.25033 8.16667H8.75033" stroke="#E2E3E7" stroke-linecap="round" stroke-linejoin="round"/>
</svg>
