<?xml version="1.0" encoding="UTF-8"?>
<svg xmlns="http://www.w3.org/2000/svg" xmlns:xlink="http://www.w3.org/1999/xlink" width="20px" height="20px" viewBox="0 0 18 18" version="1.1">
<g id="surface1">
<path style=" stroke:none;fill-rule:nonzero;fill:rgb(1.568628%,78.039217%,35.294119%);fill-opacity:1;" d="M 11.742188 0.34375 C 11.835938 0.371094 11.933594 0.402344 12.03125 0.433594 C 14.359375 1.25 16.171875 2.964844 17.25 5.167969 C 18.136719 7.183594 18.363281 9.640625 17.65625 11.742188 C 17.628906 11.835938 17.597656 11.933594 17.566406 12.03125 C 16.75 14.359375 15.035156 16.171875 12.832031 17.25 C 10.816406 18.136719 8.359375 18.363281 6.257812 17.65625 C 6.164062 17.628906 6.066406 17.597656 5.96875 17.566406 C 3.640625 16.75 1.828125 15.035156 0.75 12.832031 C -0.136719 10.816406 -0.363281 8.359375 0.34375 6.257812 C 0.371094 6.164062 0.402344 6.066406 0.433594 5.96875 C 1.25 3.640625 2.964844 1.828125 5.167969 0.75 C 7.183594 -0.136719 9.640625 -0.363281 11.742188 0.34375 Z M 11.742188 0.34375 "/>
<path style=" stroke:none;fill-rule:nonzero;fill:rgb(98.823529%,99.607843%,99.215686%);fill-opacity:1;" d="M 5.570312 5.570312 C 7.714844 5.570312 7.714844 5.570312 8.1875 5.953125 C 8.339844 6.199219 8.339844 6.199219 8.46875 6.464844 C 8.574219 6.648438 8.679688 6.828125 8.789062 7.007812 C 8.863281 7.140625 8.863281 7.140625 8.9375 7.28125 C 9.160156 7.671875 9.421875 8.03125 9.6875 8.394531 C 9.898438 8.695312 9.898438 8.695312 10.113281 9 C 10.140625 7.867188 10.171875 6.738281 10.199219 5.570312 C 10.933594 5.570312 11.671875 5.570312 12.429688 5.570312 C 12.429688 7.835938 12.429688 10.097656 12.429688 12.429688 C 10.285156 12.429688 10.285156 12.429688 9.8125 12.046875 C 9.660156 11.800781 9.660156 11.800781 9.53125 11.535156 C 9.425781 11.351562 9.320312 11.171875 9.210938 10.992188 C 9.164062 10.902344 9.113281 10.8125 9.0625 10.71875 C 8.839844 10.328125 8.578125 9.96875 8.3125 9.605469 C 8.171875 9.40625 8.03125 9.207031 7.886719 9 C 7.859375 10.132812 7.828125 11.261719 7.800781 12.429688 C 7.066406 12.429688 6.328125 12.429688 5.570312 12.429688 C 5.570312 10.164062 5.570312 7.902344 5.570312 5.570312 Z M 5.570312 5.570312 "/>
</g>
</svg>
