<svg width="14" height="14" viewBox="0 0 14 14" fill="none" xmlns="http://www.w3.org/2000/svg">
<path d="M6.58187 2.01466C6.71632 1.74228 6.78355 1.60609 6.87481 1.56257C6.95421 1.52472 7.04646 1.52472 7.12586 1.56257C7.21712 1.60609 7.28435 1.74228 7.4188 2.01466L8.69436 4.59881C8.73405 4.67922 8.7539 4.71943 8.7829 4.75064C8.80858 4.77828 8.83938 4.80068 8.87359 4.81659C8.91223 4.83455 8.9566 4.84104 9.04533 4.85401L11.8986 5.27105C12.199 5.31497 12.3493 5.33693 12.4188 5.41031C12.4793 5.47416 12.5077 5.5619 12.4962 5.64909C12.483 5.74931 12.3742 5.85525 12.1567 6.06711L10.0928 8.0773C10.0285 8.13997 9.99633 8.1713 9.97557 8.20858C9.9572 8.24158 9.94541 8.27785 9.94086 8.31535C9.93572 8.35771 9.94331 8.40197 9.95849 8.49049L10.4455 11.3298C10.4968 11.6293 10.5225 11.779 10.4742 11.8678C10.4323 11.9452 10.3576 11.9994 10.2711 12.0154C10.1717 12.0338 10.0372 11.9631 9.76831 11.8217L7.21755 10.4803C7.13807 10.4385 7.09833 10.4176 7.05647 10.4094C7.0194 10.4021 6.98127 10.4021 6.9442 10.4094C6.90234 10.4176 6.8626 10.4385 6.78312 10.4803L4.23236 11.8217C3.96344 11.9631 3.82898 12.0338 3.72956 12.0154C3.64306 11.9994 3.56841 11.9452 3.52642 11.8678C3.47816 11.779 3.50384 11.6293 3.5552 11.3298L4.04218 8.49049C4.05736 8.40197 4.06495 8.35771 4.05981 8.31535C4.05526 8.27785 4.04347 8.24158 4.0251 8.20858C4.00434 8.1713 3.97217 8.13996 3.90783 8.0773L1.84399 6.06711C1.62646 5.85525 1.5177 5.74931 1.50447 5.64909C1.49295 5.5619 1.5214 5.47416 1.58189 5.41031C1.65141 5.33693 1.80164 5.31497 2.1021 5.27105L4.95534 4.85401C5.04407 4.84104 5.08844 4.83455 5.12708 4.81659C5.16129 4.80068 5.19209 4.77828 5.21777 4.75064C5.24677 4.71943 5.26662 4.67922 5.30631 4.59881L6.58187 2.01466Z" stroke="#E2E3E7" stroke-linecap="round" stroke-linejoin="round"/>
</svg>
