<svg width="14" height="14" viewBox="0 0 14 14" fill="none" xmlns="http://www.w3.org/2000/svg">
    <g clip-path="url(#hvrtmtt88a)" stroke="#E2E3E7" stroke-linecap="round" stroke-linejoin="round">
        <path d="M7 8.75a1.75 1.75 0 1 0 0-3.5 1.75 1.75 0 0 0 0 3.5z"/>
        <path d="M10.925 8.591a.875.875 0 0 0 .175.965l.031.032a1.061 1.061 0 1 1-1.5 1.501l-.032-.032a.875.875 0 0 0-.965-.175.876.876 0 0 0-.53.8v.091a1.06 1.06 0 0 1-2.122 0v-.048a.875.875 0 0 0-.573-.8.875.875 0 0 0-.965.175l-.032.031a1.061 1.061 0 1 1-1.5-1.5l.032-.032a.875.875 0 0 0 .175-.965.875.875 0 0 0-.801-.53h-.09a1.06 1.06 0 0 1 0-2.122h.047a.875.875 0 0 0 .801-.573.875.875 0 0 0-.175-.965l-.032-.032a1.06 1.06 0 1 1 1.501-1.5l.032.032a.875.875 0 0 0 .965.175h.042a.875.875 0 0 0 .53-.801v-.09a1.06 1.06 0 1 1 2.122 0v.047a.875.875 0 0 0 .53.801.875.875 0 0 0 .965-.175l.032-.032A1.06 1.06 0 1 1 11.09 4.37l-.032.032a.875.875 0 0 0-.175.965v.042a.876.876 0 0 0 .8.53h.091a1.06 1.06 0 0 1 0 2.122h-.048a.875.875 0 0 0-.8.53z"/>
    </g>
    <defs>
        <clipPath id="hvrtmtt88a">
            <path fill="#fff" d="M0 0h14v14H0z"/>
        </clipPath>
    </defs>
</svg>
