<svg width="32" height="32" viewBox="0 0 32 32" fill="none" xmlns="http://www.w3.org/2000/svg">
    <path d="M21.333 8V6.932c0-1.494 0-2.24-.29-2.811a2.667 2.667 0 0 0-1.166-1.165c-.57-.291-1.317-.291-2.81-.291h-2.134c-1.493 0-2.24 0-2.81.29-.502.256-.91.664-1.166 1.166-.29.57-.29 1.317-.29 2.81V8m2.666 7.334v6.666m5.334-6.666v6.666M4 8h24m-2.667 0v14.934c0 2.24 0 3.36-.436 4.216a4 4 0 0 1-1.748 1.748c-.855.436-1.976.436-4.216.436h-5.866c-2.24 0-3.36 0-4.216-.436a4 4 0 0 1-1.748-1.748c-.436-.856-.436-1.976-.436-4.216V7.999" stroke="#E2E3E7" stroke-linecap="round" stroke-linejoin="round"/>
</svg>
