<svg width="14" height="14" viewBox="0 0 14 14" fill="none" xmlns="http://www.w3.org/2000/svg">
    <path d="M6.267 2.97A5.01 5.01 0 0 1 7 2.918c2.978 0 4.932 2.627 5.589 3.667.08.126.119.189.141.286a.684.684 0 0 1 0 .26c-.022.097-.062.16-.142.287a10.21 10.21 0 0 1-.795 1.088m-7.87-4.588c-1.262.856-2.118 2.044-2.51 2.666-.08.126-.12.19-.143.287a.684.684 0 0 0 0 .26c.023.097.062.16.142.286.656 1.04 2.61 3.667 5.588 3.667 1.201 0 2.235-.427 3.085-1.005M1.75 1.75l10.5 10.5M5.763 5.763a1.75 1.75 0 1 0 2.475 2.475" stroke="#94969E" stroke-linecap="round" stroke-linejoin="round"/>
</svg>
