<svg width="36" height="28" viewBox="0 0 36 28" fill="none" xmlns="http://www.w3.org/2000/svg">
    <g clip-path="url(#j3ygu18gsa)">
        <path d="M29.286 17.776c0 2.188-1.285 3.15-2.738 3.15s-2.718-.962-2.718-3.15v-1.379c0-2.187 1.286-3.15 2.718-3.15 1.431 0 2.738.961 2.738 3.15v1.379z" fill="#FFCA17"/>
        <path d="M26.583 6.303c-1.508 0-2.948.293-4.23.869.781 1.998.939 5.583.939 5.583v.004c.793-1.08 2.004-1.585 3.293-1.585 2.264 0 4.264 1.499 4.264 4.906v2.146c0 3.407-2 4.906-4.264 4.906-2.264 0-4.233-1.499-4.233-4.906V16.08c0-.176.009-.343.02-.508l-.02-.071c0-7.24-1.576-9.517-2.028-10.238C18.185 1.841 14.39 0 9.908 0H0v28h9.908c2.7 0 6.1-1.269 8.092-2.545-.941-1.34-1.612-2.973-1.926-4.898-1.274 1.336-4.045 2.573-6.165 2.573H5.152V4.872H9.91c3.082 0 5.552 1.346 6.59 4.244.342.956.53 2.084.53 3.386l.019.684.152 4.284v.858c0 2.54.677 4.58 1.803 6.12 1.73 2.364 4.521 3.554 7.58 3.554 5.086 0 9.417-3.237 9.417-9.674v-2.385c0-6.404-4.331-9.64-9.417-9.64z" fill="#000"/>
    </g>
    <defs>
        <clipPath id="j3ygu18gsa">
            <path fill="#fff" d="M0 0h36v28H0z"/>
        </clipPath>
    </defs>
</svg>
