<svg width="66" height="49" viewBox="0 0 66 49" fill="none" xmlns="http://www.w3.org/2000/svg">
    <g clip-path="url(#ymfxy5b02a)">
        <path d="M53.691 31.23c0 3.741-2.357 5.385-5.02 5.385-2.664 0-4.983-1.644-4.983-5.384v-2.357c0-3.737 2.357-5.384 4.982-5.384 2.626 0 5.021 1.644 5.021 5.384v2.357z" fill="#FFCA17"/>
        <path d="M48.736 11.622c-2.765 0-5.405.502-7.756 1.485 1.433 3.415 1.722 9.544 1.722 9.544v.005c1.454-1.845 3.674-2.708 6.037-2.708 4.15 0 7.818 2.561 7.818 8.384v3.669c0 5.823-3.668 8.384-7.818 8.384-4.151 0-7.76-2.561-7.76-8.384v-3.669c0-.3.016-.585.036-.868l-.035-.121c0-12.373-2.89-16.266-3.72-17.498C33.34 3.996 26.38.85 18.165.85H0v47.855h18.164c4.952 0 11.183-2.168 14.836-4.349-1.725-2.29-2.956-5.081-3.53-8.372-2.337 2.284-7.417 4.398-11.303 4.398H9.446V9.176h8.721c5.65 0 10.179 2.301 12.08 7.254.628 1.635.971 3.561.971 5.788 0 0 .015.438.036 1.168l.28 7.323v1.465c0 4.34 1.24 7.827 3.305 10.46 3.17 4.041 8.289 6.074 13.897 6.074C58.059 48.708 66 43.177 66 32.174v-4.075c0-10.946-7.94-16.477-17.264-16.477z" fill="#000"/>
    </g>
    <defs>
        <clipPath id="ymfxy5b02a">
            <path fill="#fff" transform="translate(0 .85)" d="M0 0h66v47.856H0z"/>
        </clipPath>
    </defs>
</svg>
